<svg width="39" height="41" viewBox="0 0 39 41" fill="none" xmlns="http://www.w3.org/2000/svg">
<path d="M2.5571 0.33387C1.19476 0.508087 0.522512 0.922611 0.284549 1.72763C0.236956 1.90185 0.195312 2.19622 0.195312 2.39447C0.195312 2.67683 3.03897 30.0173 3.68147 35.8687C3.91944 38.0855 4.18715 38.6923 5.1033 39.1248L5.46025 39.2931L9.61271 39.3111L13.7592 39.3291V39.0287V38.7283L9.79118 38.7103C5.82314 38.6923 5.81719 38.6923 5.48405 38.5541C4.97242 38.3499 4.68687 37.9654 4.52029 37.2745C4.35967 36.6377 0.831864 2.83903 0.873508 2.38846C0.9211 1.89584 0.992489 1.73363 1.2483 1.46329C1.49221 1.21098 1.80751 1.08482 2.42622 0.994705C2.99138 0.916603 34.7773 0.910599 35.4734 0.994705C36.2408 1.08482 36.562 1.16291 36.8238 1.33714C37.2521 1.61949 37.2878 1.72763 37.2819 2.85706C37.2759 3.71013 37.032 6.16723 35.5448 20.3391C34.5869 29.4106 33.7898 36.9261 33.7719 37.0402C33.6946 37.4487 33.415 37.9654 33.1354 38.2237C32.6 38.7223 32.9212 38.6923 28.2869 38.7103L24.1701 38.7283V39.0287V39.3291L28.4118 39.3111L32.6475 39.2931L32.9747 39.1369C33.5994 38.8365 34.0456 38.2898 34.2954 37.5328C34.3728 37.2925 34.5453 35.8447 34.8785 32.6847C36.7227 15.1245 37.9839 2.99523 38.0136 2.58071C38.1088 1.21098 37.3354 0.538128 35.4436 0.33387C34.813 0.267784 3.08657 0.267784 2.5571 0.33387Z" fill="white"/>
<path d="M30.5354 6.33551C23.5631 9.85595 19.5296 13.8149 17.1857 19.426C16.8764 20.171 16.1387 22.3637 16.1387 22.538C16.1387 22.6101 16.8645 22.6221 20.5648 22.6221H24.9909L25.0325 22.4238C25.1099 22.0814 25.5144 20.9279 25.794 20.2491C26.5793 18.3807 27.8227 16.6926 29.1612 15.6953C29.7502 15.2568 30.5354 14.8242 31.2731 14.5359C31.6658 14.3737 32.0108 14.2295 32.0406 14.2115C32.0644 14.1934 32.0763 12.241 32.0703 9.87397L32.0525 5.56654L30.5354 6.33551Z" fill="white"/>
<path d="M6.73828 9.82599V13.8511H12.8837H19.035L19.6002 13.1422C20.2427 12.3432 21.6526 10.8833 22.5271 10.1023C24.0323 8.76866 26.3048 7.18265 28.1728 6.16737C28.4881 5.99315 28.7499 5.84296 28.7499 5.82494C28.7499 5.81293 23.8002 5.80091 17.7441 5.80091H6.73828V9.82599Z" fill="white"/>
<path d="M30.3279 23.1988C30.197 23.2468 29.9888 23.385 29.8698 23.5052C29.7449 23.6253 29.6378 23.7154 29.6259 23.6974C29.614 23.6854 29.5426 23.5833 29.4713 23.4751L29.3404 23.2829H28.4778H27.6211V26.3768V29.4707H28.4837H29.3463V27.32C29.3463 26.1425 29.3761 25.0671 29.4058 24.935C29.5307 24.3703 30.1495 24.2501 30.5242 24.7127C30.5778 24.7848 30.5956 25.3615 30.5956 27.1398V29.4707H31.4583H32.3268L32.309 26.7493L32.2911 24.0338L32.1483 23.7395C32.0532 23.5412 31.9223 23.397 31.7379 23.2769C31.4939 23.1207 31.4107 23.1027 31.018 23.1087C30.7682 23.1087 30.4588 23.1507 30.3279 23.1988Z" fill="white"/>
<path d="M6.14453 26.3768V29.4707H7.78053H9.41653V28.9V28.3293H8.64315H7.86976V27.5783V26.8274H8.6134H9.35704V26.2566V25.6859H8.6134H7.86976V25.0551V24.4243H8.64315H9.41653V23.8536V23.2829H7.78053H6.14453V26.3768Z" fill="white"/>
<path d="M10.3086 26.3768V29.4707H11.8554H13.4021V28.9V28.3293H12.718H12.0338V25.8061V23.2829H11.1712H10.3086V26.3768Z" fill="white"/>
<path d="M13.998 26.3768V29.4707H15.634H17.27V28.9V28.3293H16.4967H15.7233V27.5783V26.8274H16.4669H17.2106V26.2566V25.6859H16.4669H15.7233V25.0551V24.4243H16.4967H17.27V23.8536V23.2829H15.634H13.998V26.3768Z" fill="white"/>
<path d="M17.8174 23.355C17.8353 23.397 18.0614 24.7908 18.3172 26.4489L18.7871 29.4707H20.1316H21.4821L22.0591 26.509C22.3744 24.8869 22.6481 23.4932 22.6659 23.4151C22.6957 23.2829 22.6897 23.2829 22.0472 23.2829H21.4047L21.024 25.2173C20.8158 26.2867 20.6195 27.2058 20.5897 27.2599C20.5302 27.3801 20.3934 27.4041 20.3339 27.308C20.3042 27.2659 19.7152 23.4571 19.7093 23.2949C19.7093 23.2889 19.2809 23.2829 18.7515 23.2829C18.0078 23.2829 17.7996 23.3009 17.8174 23.355Z" fill="white"/>
<path d="M23.2773 26.3768V29.4707H24.9133H26.5493V28.9V28.3293H25.776H25.0026V27.5783V26.8274H25.7462H26.4898V26.2566V25.6859H25.7462H25.0026V25.0551V24.4243H25.776H26.5493V23.8536V23.2829H24.9133H23.2773V26.3768Z" fill="white"/>
<path d="M14.8055 30.3238C14.6925 30.8765 14.2344 38.5242 14.2344 39.9059V40.2844H18.9758H23.7113L23.6756 38.0136C23.6339 35.8989 23.6934 32.3184 23.7886 30.8345L23.8302 30.1917H19.3327H14.8293L14.8055 30.3238Z" fill="white"/>
<path d="M25.503 30.6964C24.7058 31.195 25.0449 32.4146 25.9789 32.4146C26.3597 32.4146 26.6214 32.2463 26.794 31.8979C27.0855 31.2851 26.7047 30.6303 26.0325 30.5702C25.8064 30.5522 25.6993 30.5762 25.503 30.6964ZM26.3656 30.7805C27.0795 31.147 26.8118 32.3124 26.0146 32.3124C25.4971 32.3124 25.158 31.976 25.1699 31.4834C25.1758 30.8586 25.8064 30.4861 26.3656 30.7805Z" fill="white"/>
<path d="M25.5977 31.4833C25.5977 31.8978 25.6155 31.9939 25.6869 31.9939C25.7523 31.9939 25.7761 31.9278 25.7761 31.7776C25.7761 31.5674 25.7821 31.5674 25.9962 31.5854C26.1926 31.6034 26.2283 31.6274 26.2521 31.7776C26.2699 31.8737 26.3175 31.9639 26.3591 31.9819C26.4424 32.0059 26.4424 31.9819 26.371 31.6635C26.3413 31.5133 26.3413 31.3991 26.377 31.3571C26.4127 31.315 26.4127 31.2309 26.371 31.1288C26.3175 30.9846 26.2877 30.9726 25.9546 30.9726H25.5977V31.4833ZM26.2402 31.255C26.2223 31.3991 26.1926 31.4232 26.0022 31.4412C25.788 31.4592 25.7761 31.4532 25.7761 31.279C25.7761 31.0988 25.788 31.0928 26.02 31.0928C26.2461 31.0928 26.258 31.0988 26.2402 31.255Z" fill="white"/>
</svg>
