<svg width="69" height="41" viewBox="0 0 69 41" fill="none" xmlns="http://www.w3.org/2000/svg">
<path fill-rule="evenodd" clip-rule="evenodd" d="M68.0741 20.2844C68.0741 9.23867 59.1198 0.284424 48.0741 0.284424C43.2798 0.284424 38.9199 1.9607 35.4751 4.775C38.101 7.31249 40.1079 10.4882 41.1844 14.0791H39.5235C38.4816 10.888 36.6515 8.06989 34.2755 5.80922C31.9111 8.0622 30.1002 10.8919 29.0622 14.0676H27.4013C28.4739 10.4959 30.4462 7.31633 33.0529 4.78654C29.6158 2.00299 25.2751 0.284424 20.5116 0.284424C9.45815 0.284424 0.503906 9.23867 0.503906 20.2844C0.503906 31.3302 9.45815 40.2844 20.5039 40.2844C25.2713 40.2844 29.6119 38.5659 33.0452 35.7823C30.4385 33.2525 28.4662 30.073 27.3936 26.5013H29.0545C30.0925 29.677 31.9034 32.5066 34.2678 34.7596C36.6477 32.499 38.4739 29.6847 39.5158 26.4897H41.1767C40.1002 30.0807 38.0933 33.2564 35.4674 35.7938C38.9122 38.6043 43.2721 40.2844 48.0664 40.2844C59.1198 40.2844 68.0741 31.3302 68.0741 20.2844Z" fill="white"/>
<path fill-rule="evenodd" clip-rule="evenodd" d="M53.375 24.9672L54.7552 17.5662H56.5007L56.6814 18.2967C56.9928 17.9314 57.5926 17.5662 58.6114 17.5662L58.0655 19.4923C57.5695 19.4923 56.6314 19.3616 56.0317 21.5762L55.405 24.9633H53.375V24.9672Z" fill="#1F1F1F"/>
<path fill-rule="evenodd" clip-rule="evenodd" d="M26.6127 15.6863H28.6235L28.2121 17.6471H29.2963L28.9349 19.2464H27.9045L27.3355 22.2376C27.2317 22.8066 27.2855 23.3218 28.4466 23.1411L28.3159 24.6367C27.8776 24.9212 27.2855 24.9981 26.8203 24.9981C26.3551 24.9981 24.8326 24.7136 25.2209 22.7028L26.6127 15.6863Z" fill="#1F1F1F"/>
<path fill-rule="evenodd" clip-rule="evenodd" d="M35.3371 21.6724C35.5678 20.4844 36.1099 17.5432 32.5766 17.5432C29.324 17.5432 28.9126 20.7689 28.8358 21.2303C28.7589 21.6955 28.705 24.9711 32.1883 24.9711C33.038 24.998 34.2798 24.8942 34.7681 24.6366L35.0757 23.1141C34.7681 23.191 33.607 23.2948 32.8035 23.2948C32.0038 23.2948 30.7158 23.3448 30.9465 21.6686H35.3371V21.6724Z" fill="#1F1F1F"/>
<path fill-rule="evenodd" clip-rule="evenodd" d="M24.7054 19.3001L25.1706 17.8045C24.2171 17.4431 23.4674 17.52 23.1829 17.52C22.8984 17.52 20.484 17.4893 20.1149 19.2732C19.8304 20.6419 20.3302 21.2071 20.8108 21.4147C21.5835 21.7492 22.0257 22.0606 22.4371 22.2644C22.9484 22.5181 22.8523 23.3716 22.1795 23.3716C21.868 23.3716 20.5301 23.5254 19.5228 23.1909L19.2383 24.7134C20.1687 24.971 20.9146 24.971 21.6104 24.971C22.0987 24.971 24.4978 25.1017 24.8361 22.8795C25.0014 21.7992 24.5247 21.307 24.1402 21.0725C23.7519 20.8149 23.1099 20.4535 22.6946 20.2728C22.2833 20.0921 21.9718 19.3962 22.7216 19.1886C23.1829 19.1463 24.1364 19.1463 24.7054 19.3001Z" fill="#1F1F1F"/>
<path fill-rule="evenodd" clip-rule="evenodd" d="M11.6538 24.9749L13.3301 16.0476H10.0275L7.57463 21.4648L7.19016 16.0476H3.96448L2.23438 24.9749H4.24898L5.48697 18.5236L6.02907 24.9749H7.93603L10.7503 18.6812L9.56233 24.9749H11.6538Z" fill="#1F1F1F"/>
<path fill-rule="evenodd" clip-rule="evenodd" d="M13.8716 17.7776L13.5602 19.377C14.0523 19.327 15.3672 19.1194 16.0631 19.1463C16.759 19.1732 17.5356 19.0694 17.3011 20.1767C16.7859 20.2267 13.1719 19.6615 12.6067 22.7565C12.376 24.279 13.6909 25.0517 14.7213 25.0018C15.7517 24.9518 16.0362 24.8211 16.3976 24.5635L16.6552 24.9748H18.5391L19.3387 20.9495C19.5464 19.9422 19.8808 17.52 16.5014 17.52C15.8824 17.5469 15.1865 17.52 13.8716 17.7776Z" fill="#1F1F1F"/>
<path fill-rule="evenodd" clip-rule="evenodd" d="M46.4771 18.1123C45.9619 17.8009 45.6005 17.7509 44.9277 17.7509C44.2587 17.7509 42.7593 18.393 42.4787 20.2C42.1442 22.3414 43.6128 23.3987 45.6774 22.7028L46.2695 24.5098C45.6005 24.8213 44.9277 24.975 43.8205 24.975C41.7289 24.975 39.4606 23.1181 40.491 19.3503C41.2522 16.5744 43.6398 15.5594 45.0315 15.6094C46.6809 15.6709 47.2768 16.2284 47.792 16.7974L46.4771 18.1123Z" fill="#1F1F1F"/>
<path fill-rule="evenodd" clip-rule="evenodd" d="M63.6381 18.4236C63.2498 18.1391 63.0191 17.547 62.0656 17.547C60.9545 17.547 59.2282 17.3394 58.2478 20.6958C57.5942 22.9373 58.9168 24.9788 60.3624 24.9788C61.0352 24.9519 61.7042 24.6674 62.1156 24.3867L62.3732 24.9788H64.5416L66.2947 15.5901H64.1802L63.6381 18.4236Z" fill="#1F1F1F"/>
<path fill-rule="evenodd" clip-rule="evenodd" d="M47.9243 17.7776L47.6129 19.377C48.105 19.327 49.4199 19.1194 50.1158 19.1463C50.8117 19.1732 51.5883 19.0694 51.3538 20.1767C50.8386 20.2267 47.2246 19.6615 46.6595 22.7565C46.4288 24.279 47.7436 25.0517 48.774 25.0018C49.8044 24.9518 50.0889 24.8211 50.4503 24.5635L50.7079 24.9748H52.5918L53.3915 20.9495C53.5991 19.9422 53.9336 17.52 50.5541 17.52C49.939 17.5469 49.2392 17.52 47.9243 17.7776Z" fill="#1F1F1F"/>
<path fill-rule="evenodd" clip-rule="evenodd" d="M31.0781 20.3306H33.581C33.7117 19.6078 33.4772 18.9888 32.6775 18.9888C31.8778 18.9888 31.3127 19.404 31.0781 20.3306Z" fill="white"/>
<path fill-rule="evenodd" clip-rule="evenodd" d="M16.9676 21.6724C16.6331 21.6186 15.8834 21.4148 15.2375 21.8531C14.5916 22.2914 14.4109 23.0642 15.0837 23.3256C15.7296 23.5755 16.6831 23.1449 16.8138 22.476L16.9676 21.6724Z" fill="white"/>
<path fill-rule="evenodd" clip-rule="evenodd" d="M62.9158 21.4417C63.1234 20.7727 63.0081 19.9346 62.7851 19.6347C62.1661 18.8081 60.7436 19.4617 60.3091 21.0803C60.0246 22.1376 60.6436 22.9373 61.3395 22.9373C62.0892 22.9373 62.5544 22.3452 62.9158 21.4417Z" fill="white"/>
<path fill-rule="evenodd" clip-rule="evenodd" d="M51.0203 21.6724C50.6858 21.6186 49.9361 21.4148 49.2902 21.8531C48.6443 22.2914 48.4636 23.0642 49.1364 23.3256C49.7823 23.5755 50.7358 23.1449 50.8665 22.476L51.0203 21.6724Z" fill="white"/>
<path fill-rule="evenodd" clip-rule="evenodd" d="M35.3945 24.9749L36.7632 17.647H38.4933L38.674 18.3698C38.9855 18.0084 39.5775 17.647 40.581 17.647L40.0658 19.5808C39.5775 19.5808 38.6202 19.4271 38.0281 21.6185L37.4091 24.9711H35.3945V24.9749Z" fill="#1F1F1F"/>
</svg>
