<svg width="73" height="41" viewBox="0 0 73 41" fill="none" xmlns="http://www.w3.org/2000/svg">
<g clip-path="url(#clip0_143_1997)">
<path fill-rule="evenodd" clip-rule="evenodd" d="M20.7461 21.8949L27.1591 0.750488H32.8793L26.4663 21.8949H20.7461Z" fill="white"/>
<path fill-rule="evenodd" clip-rule="evenodd" d="M18.1842 0.754639L13.0373 9.71639C11.7258 12.063 10.9628 13.2508 10.5916 14.7313H10.5133C10.604 12.8507 10.3401 10.5412 10.3195 9.23799L9.75032 0.754639H0.120464L0.0214844 1.32377C2.49597 1.32377 3.96416 2.56513 4.36832 5.10973L6.24481 21.895H12.1712L24.1559 0.754639H18.1842Z" fill="white"/>
<path fill-rule="evenodd" clip-rule="evenodd" d="M62.6796 21.895L62.5229 18.7524L55.3799 18.7483L53.9199 21.8991H47.709L58.972 0.795898H66.5975L68.5029 21.8991H62.6796V21.895ZM62.0239 9.41947C61.962 7.85642 61.9084 5.73661 62.0115 4.45401H61.929C61.5826 5.50566 60.0855 8.6565 59.4257 10.2072L57.2976 14.8427H62.3125L62.0239 9.41947Z" fill="white"/>
<path fill-rule="evenodd" clip-rule="evenodd" d="M38.884 22.4929C34.8423 22.4929 32.1616 21.2103 30.248 20.0679L32.9741 15.9067C34.6939 16.8676 36.0425 17.977 39.1438 17.977C40.1419 17.977 41.1028 17.7171 41.6513 16.7727C42.4472 15.3994 41.4657 14.657 39.2345 13.3909L38.1293 12.6733C34.8176 10.4092 33.3824 8.2605 34.9413 4.50342C35.9435 2.10317 38.5747 0.284424 42.9174 0.284424C45.9115 0.284424 48.7201 1.5794 50.3573 2.84551L47.223 6.52012C45.627 5.22926 44.3031 4.57765 42.7895 4.57765C41.5812 4.57765 40.6656 5.04368 40.3481 5.67055C39.7501 6.85005 40.5419 7.65426 42.2823 8.7389L43.5938 9.57198C47.6148 12.1083 48.5757 14.7684 47.5653 17.2552C45.8332 21.5361 42.439 22.4929 38.884 22.4929Z" fill="white"/>
<path fill-rule="evenodd" clip-rule="evenodd" d="M5.27148 40.2844C20.0689 33.9414 40.8298 28.1965 68.3213 33.9497L68.61 26.9758C39.6008 23.8084 18.7863 33.0465 5.27148 39.5956V40.2844Z" fill="white"/>
<path fill-rule="evenodd" clip-rule="evenodd" d="M70.0665 4.02101H69.6912V1.72799H70.5614C71.1141 1.72799 71.3986 1.92182 71.3986 2.38785C71.3986 2.80439 71.1429 2.97348 70.8006 3.01472L71.444 4.02101H71.0192L70.4253 3.03946H70.0707V4.02101H70.0665ZM70.4872 2.71778C70.7676 2.71778 71.0192 2.68891 71.0192 2.35898C71.0192 2.08266 70.747 2.04967 70.5202 2.04967H70.0665V2.71778H70.4872ZM70.4748 4.90357C69.2829 4.90357 68.4375 4.01276 68.4375 2.83326C68.4375 1.58777 69.3778 0.762939 70.4748 0.762939C71.5595 0.762939 72.4998 1.58777 72.4998 2.83326C72.5039 4.07875 71.5636 4.90357 70.4748 4.90357ZM70.4748 1.12586C69.5799 1.12586 68.8788 1.82697 68.8788 2.83738C68.8788 3.77768 69.4892 4.5489 70.4748 4.5489C71.3615 4.5489 72.0585 3.85192 72.0585 2.83738C72.0585 1.82697 71.3615 1.12586 70.4748 1.12586Z" fill="white"/>
</g>
<defs>
<clipPath id="clip0_143_1997">
<rect width="72.4817" height="40" fill="white" transform="translate(0.0214844 0.284424)"/>
</clipPath>
</defs>
</svg>
