<svg width="87" height="41" viewBox="0 0 87 41" fill="none" xmlns="http://www.w3.org/2000/svg">
<path fill-rule="evenodd" clip-rule="evenodd" d="M0.015625 2.9868C0.015625 1.50038 1.23158 0.284424 2.718 0.284424H84.1003C85.5869 0.284424 86.8028 1.50038 86.8028 2.9868V37.5819C86.8028 39.0686 85.5869 40.2844 84.1003 40.2844H2.718C1.23158 40.2844 0.015625 39.0686 0.015625 37.5819V2.9868Z" fill="white"/>
<path fill-rule="evenodd" clip-rule="evenodd" d="M0.015625 4.21167H86.8029V36.3566H0.015625V4.21167Z" fill="#1F1F1F"/>
<path fill-rule="evenodd" clip-rule="evenodd" d="M72.9998 6.21689C66.3277 6.06358 63.1909 10.3419 58.6384 15.6188L54.3438 20.5958L61.1444 28.7372C62.7645 31.2386 59.6723 33.7212 57.7538 31.4323L51.4663 23.932L45.3395 31.0345C43.3884 33.2954 40.3312 30.7697 41.986 28.2917L48.6372 20.5572L44.2798 15.359L47.0828 11.8876L51.5143 17.2109L55.3344 12.7674C57.2088 10.5886 59.1203 7.70149 61.5978 6.21689H0.015625V34.352H14.4138C21.0867 34.352 24.1159 30.3623 28.5451 24.9822L32.7243 19.906L25.7366 11.9248C24.0606 9.4611 27.094 6.90862 29.0651 9.15245L35.5231 16.5062L41.4862 9.26382C43.3842 6.95748 46.4981 9.41326 44.9013 11.929L38.4299 19.8156L42.9064 24.912L40.0859 28.252L35.6301 23.2266L31.9141 27.756C30.0901 29.9774 28.2438 32.8107 25.8008 34.352H86.8029V6.21689H72.9998ZM25.5446 19.7682C25.5446 26.0403 20.4304 31.1552 14.1585 31.1552C7.88512 31.1552 2.77084 26.0403 2.77084 19.7682C2.77084 13.495 7.88512 8.38061 14.1585 8.38061C20.4304 8.38061 25.5446 13.495 25.5446 19.7682ZM73.5655 31.1552C67.2932 31.1552 62.1778 26.0403 62.1778 19.7682C62.1778 13.495 67.2932 8.38061 73.5655 8.38061C79.8381 8.38061 84.9523 13.495 84.9523 19.7682C84.9523 26.0403 79.8381 31.1552 73.5655 31.1552Z" fill="white"/>
</svg>
