<?xml version="1.0" encoding="UTF-8"?>
<svg xmlns="http://www.w3.org/2000/svg" xmlns:xlink="http://www.w3.org/1999/xlink" width="61px" height="21px" viewBox="0 0 61 21" version="1.1">
<g id="surface1">
<path style=" stroke:none;fill-rule:evenodd;fill:rgb(100%,100%,100%);fill-opacity:1;" d="M 51.09375 11.816406 C 50.933594 11.816406 50.746094 11.816406 50.554688 11.816406 C 48.019531 11.816406 45.476562 11.808594 42.9375 11.808594 C 42.074219 11.808594 41.957031 11.929688 41.953125 12.796875 C 41.949219 13.488281 41.949219 14.175781 41.953125 14.867188 C 41.957031 15.804688 42.050781 15.898438 43.007812 15.898438 C 45.804688 15.902344 48.597656 15.917969 51.390625 15.890625 C 51.972656 15.882812 52.195312 16.023438 52.164062 16.640625 C 52.113281 17.585938 52.136719 18.53125 52.15625 19.476562 C 52.164062 19.886719 52.054688 20.082031 51.597656 20.082031 C 46.652344 20.066406 41.710938 20.066406 36.765625 20.074219 C 36.332031 20.078125 36.148438 19.96875 36.148438 19.476562 C 36.167969 13.46875 36.167969 7.464844 36.15625 1.460938 C 36.15625 0.953125 36.316406 0.757812 36.828125 0.761719 C 41.714844 0.769531 46.601562 0.765625 51.488281 0.757812 C 51.957031 0.753906 52.160156 0.914062 52.148438 1.410156 C 52.121094 2.292969 52.121094 3.183594 52.15625 4.066406 C 52.175781 4.566406 51.988281 4.707031 51.511719 4.703125 C 48.699219 4.6875 45.886719 4.691406 43.074219 4.699219 C 42.058594 4.703125 41.945312 4.835938 41.941406 5.875 C 41.941406 6.308594 41.9375 6.742188 41.941406 7.171875 C 41.953125 7.972656 42.078125 8.113281 42.863281 8.101562 C 45.382812 8.070312 47.898438 8.019531 50.417969 7.980469 C 51.191406 7.96875 51.199219 7.976562 51.195312 8.757812 C 51.191406 9.722656 51.1875 10.683594 51.175781 11.648438 C 51.175781 11.683594 51.144531 11.71875 51.09375 11.816406 Z M 51.09375 11.816406 "/>
<path style=" stroke:none;fill-rule:evenodd;fill:rgb(100%,100%,100%);fill-opacity:1;" d="M 16.734375 6.03125 C 16.160156 6.074219 15.660156 6.109375 15.160156 6.144531 C 14.148438 6.21875 13.136719 6.277344 12.128906 6.367188 C 11.703125 6.40625 11.382812 6.335938 11.148438 5.925781 C 10.898438 5.480469 10.59375 5.066406 10.28125 4.664062 C 9.308594 3.390625 7.402344 3.726562 6.515625 4.414062 C 5.808594 4.957031 6.042969 6.257812 6.894531 6.523438 C 8.640625 7.066406 10.417969 7.535156 12.164062 8.082031 C 12.980469 8.335938 13.785156 8.65625 14.554688 9.03125 C 17.238281 10.347656 17.816406 13.265625 17.277344 15.429688 C 16.59375 18.160156 14.671875 19.539062 12.125 20.1875 C 9.5 20.859375 6.875 20.769531 4.285156 19.945312 C 1.867188 19.175781 0.597656 17.4375 0.144531 15 C -0.0625 13.90625 -0.0664062 13.898438 1.035156 13.824219 C 2.203125 13.746094 3.375 13.707031 4.539062 13.589844 C 5.195312 13.523438 5.53125 13.738281 5.726562 14.382812 C 6.148438 15.796875 7.144531 16.585938 8.566406 16.882812 C 9.683594 17.113281 11.113281 16.339844 11.511719 15.246094 C 11.78125 14.511719 11.433594 13.605469 10.644531 13.140625 C 10.214844 12.886719 9.730469 12.699219 9.253906 12.539062 C 7.683594 12.007812 6.097656 11.519531 4.53125 10.984375 C 3.503906 10.628906 2.582031 10.09375 1.835938 9.269531 C -0.316406 6.890625 0.320312 3.117188 3.136719 1.597656 C 6.65625 -0.304688 10.21875 -0.285156 13.820312 1.347656 C 15.371094 2.050781 16.28125 3.222656 16.515625 4.925781 C 16.5625 5.269531 16.648438 5.609375 16.734375 6.03125 Z M 16.734375 6.03125 "/>
<path style=" stroke:none;fill-rule:evenodd;fill:rgb(100%,100%,100%);fill-opacity:1;" d="M 18.179688 10.441406 C 18.179688 7.425781 18.175781 4.417969 18.179688 1.40625 C 18.179688 0.644531 18.207031 0.613281 18.976562 0.613281 C 21.949219 0.613281 24.917969 0.59375 27.882812 0.628906 C 28.894531 0.644531 29.917969 0.722656 30.902344 0.921875 C 33.082031 1.367188 34.476562 2.9375 34.691406 5.164062 C 34.824219 6.570312 34.878906 7.980469 34.273438 9.339844 C 33.34375 11.417969 31.714844 12.472656 29.523438 12.625 C 27.96875 12.738281 26.402344 12.726562 24.84375 12.726562 C 24.296875 12.722656 24.089844 12.867188 24.097656 13.453125 C 24.132812 15.480469 24.113281 17.507812 24.109375 19.535156 C 24.109375 20.246094 24.039062 20.3125 23.34375 20.316406 C 21.839844 20.320312 20.335938 20.304688 18.832031 20.332031 C 18.3125 20.339844 18.167969 20.160156 18.167969 19.652344 C 18.1875 16.578125 18.179688 13.511719 18.179688 10.441406 Z M 24.113281 6.695312 L 24.117188 6.695312 C 24.117188 7.285156 24.132812 7.875 24.113281 8.46875 C 24.097656 8.871094 24.257812 9.050781 24.660156 9.027344 C 25.421875 8.980469 26.183594 8.984375 26.9375 8.894531 C 28.121094 8.742188 28.828125 7.902344 28.800781 6.777344 C 28.769531 5.5625 27.941406 4.582031 26.792969 4.484375 C 26.074219 4.425781 25.347656 4.46875 24.628906 4.453125 C 24.257812 4.445312 24.097656 4.605469 24.109375 4.984375 C 24.128906 5.550781 24.113281 6.125 24.113281 6.695312 Z M 24.113281 6.695312 "/>
<path style=" stroke:none;fill-rule:evenodd;fill:rgb(100%,100%,100%);fill-opacity:1;" d="M 57.332031 16.054688 C 58.332031 14.617188 59.335938 13.179688 60.421875 11.617188 C 60.457031 11.902344 60.488281 12.027344 60.488281 12.152344 C 60.488281 14.628906 60.476562 17.109375 60.5 19.589844 C 60.503906 20.082031 60.296875 20.195312 59.882812 20.195312 C 58.375 20.195312 56.871094 20.203125 55.367188 20.210938 C 55.03125 20.214844 54.800781 20.160156 54.804688 19.734375 C 54.839844 17.457031 54.855469 15.175781 54.875 12.890625 C 54.878906 12.082031 54.875 12.078125 55.695312 12.082031 C 57.15625 12.085938 56.9375 11.933594 56.953125 13.324219 C 56.957031 14.011719 56.9375 14.699219 56.960938 15.386719 C 56.96875 15.601562 57.070312 15.8125 57.121094 16.023438 C 57.191406 16.035156 57.261719 16.046875 57.332031 16.054688 Z M 57.332031 16.054688 "/>
<path style=" stroke:none;fill-rule:evenodd;fill:rgb(100%,100%,100%);fill-opacity:1;" d="M 57.148438 3.945312 C 57.136719 4.109375 57.121094 4.273438 57.121094 4.433594 C 57.117188 5.324219 57.109375 6.207031 57.125 7.089844 C 57.132812 7.5 57.007812 7.714844 56.5625 7.691406 C 56.113281 7.667969 55.664062 7.671875 55.214844 7.695312 C 54.792969 7.714844 54.671875 7.496094 54.671875 7.128906 C 54.675781 5.214844 54.675781 3.308594 54.675781 1.398438 C 54.675781 0.953125 54.855469 0.714844 55.34375 0.722656 C 56.847656 0.738281 58.351562 0.734375 59.855469 0.722656 C 60.3125 0.722656 60.503906 0.875 60.5 1.382812 C 60.472656 3.445312 60.488281 5.511719 60.488281 7.582031 C 60.488281 7.726562 60.460938 7.871094 60.324219 8.070312 C 59.347656 6.660156 58.367188 5.25 57.386719 3.839844 C 57.308594 3.875 57.230469 3.910156 57.148438 3.945312 Z M 57.148438 3.945312 "/>
</g>
</svg>
