<?xml version="1.0" encoding="UTF-8"?>
<svg xmlns="http://www.w3.org/2000/svg" xmlns:xlink="http://www.w3.org/1999/xlink" width="37px" height="21px" viewBox="0 0 37 21" version="1.1">
<defs>
<clipPath id="clip1">
  <path d="M 10 0.144531 L 17 0.144531 L 17 12 L 10 12 Z M 10 0.144531 "/>
</clipPath>
<clipPath id="clip2">
  <path d="M 0.0117188 0.144531 L 13 0.144531 L 13 12 L 0.0117188 12 Z M 0.0117188 0.144531 "/>
</clipPath>
<clipPath id="clip3">
  <path d="M 24 0.144531 L 35 0.144531 L 35 12 L 24 12 Z M 24 0.144531 "/>
</clipPath>
<clipPath id="clip4">
  <path d="M 15 0.144531 L 26 0.144531 L 26 12 L 15 12 Z M 15 0.144531 "/>
</clipPath>
<clipPath id="clip5">
  <path d="M 2 13 L 35 13 L 35 20.632812 L 2 20.632812 Z M 2 13 "/>
</clipPath>
<clipPath id="clip6">
  <path d="M 34 0.144531 L 36.75 0.144531 L 36.75 3 L 34 3 Z M 34 0.144531 "/>
</clipPath>
</defs>
<g id="surface1">
<g clip-path="url(#clip1)" clip-rule="nonzero">
<path style=" stroke:none;fill-rule:evenodd;fill:rgb(100%,100%,100%);fill-opacity:1;" d="M 10.515625 11.214844 L 13.765625 0.382812 L 16.664062 0.382812 L 13.414062 11.214844 Z M 10.515625 11.214844 "/>
</g>
<g clip-path="url(#clip2)" clip-rule="nonzero">
<path style=" stroke:none;fill-rule:evenodd;fill:rgb(100%,100%,100%);fill-opacity:1;" d="M 9.214844 0.386719 L 6.609375 4.976562 C 5.941406 6.179688 5.554688 6.785156 5.367188 7.546875 L 5.328125 7.546875 C 5.375 6.582031 5.242188 5.398438 5.230469 4.730469 L 4.941406 0.386719 L 0.0625 0.386719 L 0.0117188 0.679688 C 1.265625 0.679688 2.007812 1.3125 2.214844 2.617188 L 3.164062 11.214844 L 6.167969 11.214844 L 12.242188 0.386719 Z M 9.214844 0.386719 "/>
</g>
<g clip-path="url(#clip3)" clip-rule="nonzero">
<path style=" stroke:none;fill-rule:evenodd;fill:rgb(100%,100%,100%);fill-opacity:1;" d="M 31.769531 11.214844 L 31.691406 9.605469 L 28.070312 9.601562 L 27.328125 11.214844 L 24.179688 11.214844 L 29.890625 0.40625 L 33.753906 0.40625 L 34.71875 11.214844 Z M 31.4375 4.824219 C 31.40625 4.023438 31.378906 2.9375 31.429688 2.28125 L 31.386719 2.28125 C 31.214844 2.820312 30.453125 4.433594 30.121094 5.226562 L 29.042969 7.601562 L 31.582031 7.601562 Z M 31.4375 4.824219 "/>
</g>
<g clip-path="url(#clip4)" clip-rule="nonzero">
<path style=" stroke:none;fill-rule:evenodd;fill:rgb(100%,100%,100%);fill-opacity:1;" d="M 19.707031 11.519531 C 17.660156 11.519531 16.300781 10.863281 15.332031 10.277344 L 16.714844 8.148438 C 17.585938 8.640625 18.269531 9.207031 19.839844 9.207031 C 20.347656 9.207031 20.832031 9.074219 21.109375 8.589844 C 21.515625 7.886719 21.015625 7.507812 19.886719 6.859375 L 19.324219 6.492188 C 17.648438 5.332031 16.917969 4.230469 17.710938 2.304688 C 18.21875 1.078125 19.550781 0.144531 21.753906 0.144531 C 23.269531 0.144531 24.695312 0.808594 25.523438 1.457031 L 23.933594 3.339844 C 23.125 2.679688 22.453125 2.34375 21.6875 2.34375 C 21.074219 2.34375 20.613281 2.582031 20.449219 2.90625 C 20.148438 3.507812 20.546875 3.921875 21.429688 4.476562 L 22.09375 4.902344 C 24.132812 6.203125 24.621094 7.5625 24.109375 8.839844 C 23.230469 11.03125 21.511719 11.519531 19.707031 11.519531 Z M 19.707031 11.519531 "/>
</g>
<g clip-path="url(#clip5)" clip-rule="nonzero">
<path style=" stroke:none;fill-rule:evenodd;fill:rgb(100%,100%,100%);fill-opacity:1;" d="M 2.671875 20.632812 C 10.171875 17.382812 20.695312 14.441406 34.628906 17.390625 L 34.773438 13.816406 C 20.070312 12.195312 9.523438 16.925781 2.671875 20.28125 Z M 2.671875 20.632812 "/>
</g>
<g clip-path="url(#clip6)" clip-rule="nonzero">
<path style=" stroke:none;fill-rule:evenodd;fill:rgb(100%,100%,100%);fill-opacity:1;" d="M 35.511719 2.058594 L 35.324219 2.058594 L 35.324219 0.886719 L 35.765625 0.886719 C 36.042969 0.886719 36.1875 0.984375 36.1875 1.222656 C 36.1875 1.4375 36.058594 1.523438 35.886719 1.542969 L 36.210938 2.058594 L 35.996094 2.058594 L 35.695312 1.558594 L 35.515625 1.558594 L 35.515625 2.058594 Z M 35.726562 1.390625 C 35.867188 1.390625 35.996094 1.378906 35.996094 1.207031 C 35.996094 1.066406 35.859375 1.050781 35.742188 1.050781 L 35.511719 1.050781 L 35.511719 1.390625 Z M 35.71875 2.511719 C 35.117188 2.511719 34.6875 2.054688 34.6875 1.453125 C 34.6875 0.8125 35.164062 0.390625 35.71875 0.390625 C 36.269531 0.390625 36.746094 0.8125 36.746094 1.453125 C 36.75 2.089844 36.273438 2.511719 35.71875 2.511719 Z M 35.71875 0.578125 C 35.265625 0.578125 34.910156 0.9375 34.910156 1.453125 C 34.910156 1.933594 35.21875 2.328125 35.71875 2.328125 C 36.167969 2.328125 36.523438 1.972656 36.523438 1.453125 C 36.523438 0.9375 36.167969 0.578125 35.71875 0.578125 Z M 35.71875 0.578125 "/>
</g>
</g>
</svg>
