<?xml version="1.0" encoding="UTF-8"?>
<svg xmlns="http://www.w3.org/2000/svg" xmlns:xlink="http://www.w3.org/1999/xlink" width="20px" height="21px" viewBox="0 0 20 21" version="1.1">
<g id="surface1">
<path style=" stroke:none;fill-rule:nonzero;fill:rgb(100%,100%,100%);fill-opacity:1;" d="M 1.3125 0.171875 C 0.613281 0.261719 0.269531 0.472656 0.144531 0.886719 C 0.121094 0.972656 0.101562 1.125 0.101562 1.226562 C 0.101562 1.371094 1.558594 15.375 1.886719 18.371094 C 2.011719 19.507812 2.148438 19.816406 2.617188 20.039062 L 2.800781 20.125 L 4.929688 20.136719 L 7.054688 20.144531 L 7.054688 19.835938 L 5.019531 19.828125 C 2.984375 19.816406 2.984375 19.816406 2.8125 19.746094 C 2.550781 19.644531 2.402344 19.445312 2.316406 19.09375 C 2.234375 18.765625 0.425781 1.453125 0.449219 1.222656 C 0.472656 0.972656 0.507812 0.886719 0.640625 0.75 C 0.765625 0.621094 0.925781 0.554688 1.246094 0.507812 C 1.535156 0.46875 17.835938 0.464844 18.191406 0.507812 C 18.585938 0.554688 18.75 0.59375 18.882812 0.683594 C 19.105469 0.828125 19.121094 0.886719 19.117188 1.464844 C 19.117188 1.898438 18.992188 3.160156 18.226562 10.417969 C 17.738281 15.0625 17.328125 18.914062 17.320312 18.972656 C 17.277344 19.179688 17.136719 19.445312 16.992188 19.578125 C 16.71875 19.832031 16.882812 19.816406 14.507812 19.828125 L 12.394531 19.835938 L 12.394531 20.144531 L 14.570312 20.136719 L 16.742188 20.125 L 16.910156 20.046875 C 17.230469 19.890625 17.460938 19.613281 17.585938 19.222656 C 17.628906 19.101562 17.714844 18.359375 17.886719 16.742188 C 18.832031 7.746094 19.480469 1.535156 19.496094 1.320312 C 19.542969 0.621094 19.144531 0.277344 18.175781 0.171875 C 17.851562 0.136719 1.582031 0.136719 1.3125 0.171875 Z M 1.3125 0.171875 "/>
<path style=" stroke:none;fill-rule:nonzero;fill:rgb(100%,100%,100%);fill-opacity:1;" d="M 15.660156 3.246094 C 12.082031 5.046875 10.015625 7.074219 8.8125 9.949219 C 8.65625 10.332031 8.277344 11.453125 8.277344 11.542969 C 8.277344 11.582031 8.648438 11.585938 10.546875 11.585938 L 12.816406 11.585938 L 12.835938 11.484375 C 12.875 11.308594 13.085938 10.71875 13.226562 10.371094 C 13.628906 9.414062 14.269531 8.550781 14.953125 8.039062 C 15.257812 7.816406 15.660156 7.59375 16.039062 7.445312 C 16.238281 7.363281 16.414062 7.289062 16.429688 7.277344 C 16.441406 7.269531 16.449219 6.269531 16.445312 5.058594 L 16.4375 2.851562 Z M 15.660156 3.246094 "/>
<path style=" stroke:none;fill-rule:nonzero;fill:rgb(100%,100%,100%);fill-opacity:1;" d="M 3.457031 5.03125 L 3.457031 7.09375 L 9.761719 7.09375 L 10.050781 6.730469 C 10.382812 6.320312 11.105469 5.574219 11.550781 5.175781 C 12.324219 4.492188 13.488281 3.679688 14.449219 3.160156 C 14.609375 3.070312 14.742188 2.992188 14.742188 2.984375 C 14.742188 2.976562 12.207031 2.972656 9.097656 2.972656 L 3.457031 2.972656 Z M 3.457031 5.03125 "/>
<path style=" stroke:none;fill-rule:nonzero;fill:rgb(100%,100%,100%);fill-opacity:1;" d="M 15.554688 11.882812 C 15.484375 11.90625 15.378906 11.976562 15.316406 12.039062 C 15.253906 12.101562 15.199219 12.148438 15.191406 12.136719 C 15.1875 12.132812 15.148438 12.078125 15.113281 12.023438 L 15.046875 11.925781 L 14.164062 11.925781 L 14.164062 15.09375 L 15.050781 15.09375 L 15.050781 13.992188 C 15.050781 13.390625 15.066406 12.839844 15.078125 12.773438 C 15.144531 12.480469 15.460938 12.421875 15.652344 12.65625 C 15.679688 12.695312 15.691406 12.988281 15.691406 13.902344 L 15.691406 15.09375 L 16.578125 15.09375 L 16.570312 13.699219 L 16.558594 12.308594 L 16.484375 12.160156 C 16.4375 12.058594 16.371094 11.984375 16.277344 11.921875 C 16.152344 11.84375 16.109375 11.832031 15.90625 11.835938 C 15.777344 11.835938 15.621094 11.859375 15.554688 11.882812 Z M 15.554688 11.882812 "/>
<path style=" stroke:none;fill-rule:nonzero;fill:rgb(100%,100%,100%);fill-opacity:1;" d="M 3.152344 13.511719 L 3.152344 15.09375 L 4.828125 15.09375 L 4.828125 14.511719 L 4.035156 14.511719 L 4.035156 13.742188 L 4.796875 13.742188 L 4.796875 13.15625 L 4.035156 13.15625 L 4.035156 12.511719 L 4.828125 12.511719 L 4.828125 11.925781 L 3.152344 11.925781 Z M 3.152344 13.511719 "/>
<path style=" stroke:none;fill-rule:nonzero;fill:rgb(100%,100%,100%);fill-opacity:1;" d="M 5.285156 13.511719 L 5.285156 15.09375 L 6.871094 15.09375 L 6.871094 14.511719 L 6.171875 14.511719 L 6.171875 11.925781 L 5.285156 11.925781 Z M 5.285156 13.511719 "/>
<path style=" stroke:none;fill-rule:nonzero;fill:rgb(100%,100%,100%);fill-opacity:1;" d="M 7.179688 13.511719 L 7.179688 15.09375 L 8.855469 15.09375 L 8.855469 14.511719 L 8.0625 14.511719 L 8.0625 13.742188 L 8.824219 13.742188 L 8.824219 13.15625 L 8.0625 13.15625 L 8.0625 12.511719 L 8.855469 12.511719 L 8.855469 11.925781 L 7.179688 11.925781 Z M 7.179688 13.511719 "/>
<path style=" stroke:none;fill-rule:nonzero;fill:rgb(100%,100%,100%);fill-opacity:1;" d="M 9.136719 11.960938 C 9.144531 11.984375 9.261719 12.699219 9.394531 13.546875 L 9.632812 15.09375 L 11.015625 15.09375 L 11.3125 13.578125 C 11.472656 12.746094 11.613281 12.03125 11.625 11.992188 C 11.640625 11.925781 11.636719 11.925781 11.304688 11.925781 L 10.976562 11.925781 L 10.78125 12.917969 C 10.675781 13.464844 10.574219 13.933594 10.558594 13.960938 C 10.527344 14.023438 10.457031 14.035156 10.425781 13.988281 C 10.414062 13.964844 10.109375 12.015625 10.105469 11.929688 C 10.105469 11.929688 9.886719 11.925781 9.617188 11.925781 C 9.234375 11.925781 9.128906 11.933594 9.136719 11.960938 Z M 9.136719 11.960938 "/>
<path style=" stroke:none;fill-rule:nonzero;fill:rgb(100%,100%,100%);fill-opacity:1;" d="M 11.9375 13.511719 L 11.9375 15.09375 L 13.613281 15.09375 L 13.613281 14.511719 L 12.820312 14.511719 L 12.820312 13.742188 L 13.585938 13.742188 L 13.585938 13.15625 L 12.820312 13.15625 L 12.820312 12.511719 L 13.613281 12.511719 L 13.613281 11.925781 L 11.9375 11.925781 Z M 11.9375 13.511719 "/>
<path style=" stroke:none;fill-rule:nonzero;fill:rgb(100%,100%,100%);fill-opacity:1;" d="M 7.59375 15.53125 C 7.535156 15.816406 7.300781 19.730469 7.300781 20.441406 L 7.300781 20.632812 L 12.160156 20.632812 L 12.140625 19.46875 C 12.121094 18.386719 12.152344 16.554688 12.199219 15.792969 L 12.21875 15.464844 L 7.605469 15.464844 Z M 7.59375 15.53125 "/>
<path style=" stroke:none;fill-rule:nonzero;fill:rgb(100%,100%,100%);fill-opacity:1;" d="M 13.078125 15.722656 C 12.667969 15.976562 12.84375 16.601562 13.324219 16.601562 C 13.519531 16.601562 13.652344 16.515625 13.742188 16.339844 C 13.890625 16.023438 13.695312 15.6875 13.351562 15.65625 C 13.234375 15.648438 13.179688 15.660156 13.078125 15.722656 Z M 13.519531 15.765625 C 13.886719 15.953125 13.75 16.550781 13.339844 16.550781 C 13.074219 16.550781 12.902344 16.378906 12.90625 16.125 C 12.910156 15.804688 13.234375 15.613281 13.519531 15.765625 Z M 13.519531 15.765625 "/>
<path style=" stroke:none;fill-rule:nonzero;fill:rgb(100%,100%,100%);fill-opacity:1;" d="M 13.128906 16.125 C 13.128906 16.339844 13.136719 16.386719 13.171875 16.386719 C 13.207031 16.386719 13.21875 16.351562 13.21875 16.277344 C 13.21875 16.167969 13.222656 16.167969 13.332031 16.179688 C 13.433594 16.1875 13.449219 16.199219 13.460938 16.277344 C 13.472656 16.324219 13.496094 16.371094 13.515625 16.382812 C 13.558594 16.394531 13.558594 16.382812 13.523438 16.21875 C 13.507812 16.140625 13.507812 16.082031 13.527344 16.0625 C 13.546875 16.039062 13.546875 15.996094 13.523438 15.945312 C 13.496094 15.871094 13.480469 15.863281 13.308594 15.863281 L 13.128906 15.863281 Z M 13.457031 16.007812 C 13.449219 16.082031 13.433594 16.09375 13.335938 16.105469 C 13.226562 16.113281 13.21875 16.109375 13.21875 16.019531 C 13.21875 15.929688 13.226562 15.925781 13.34375 15.925781 C 13.460938 15.925781 13.464844 15.929688 13.457031 16.007812 Z M 13.457031 16.007812 "/>
</g>
</svg>
