<svg width="120" height="41" viewBox="0 0 120 41" fill="none" xmlns="http://www.w3.org/2000/svg">
<path fill-rule="evenodd" clip-rule="evenodd" d="M100.51 23.0708C100.2 23.0708 99.8254 23.0708 99.4552 23.0708C94.4617 23.0664 89.4598 23.0579 84.4663 23.0579C82.7659 23.0535 82.5379 23.2904 82.5335 24.9863C82.5248 26.3378 82.5248 27.6766 82.5335 29.0239C82.5377 30.8577 82.7228 31.0428 84.6084 31.0428C90.1054 31.0472 95.6024 31.0773 101.1 31.0213C102.24 31.0085 102.679 31.2839 102.615 32.4892C102.52 34.3317 102.563 36.1828 102.602 38.0251C102.615 38.8301 102.4 39.2047 101.504 39.2047C91.7756 39.179 82.0515 39.179 72.3273 39.1959C71.4708 39.2002 71.1091 38.9851 71.1133 38.0251C71.1477 26.2992 71.1477 14.5778 71.1263 2.8517C71.1263 1.8616 71.4404 1.48279 72.4521 1.48719C82.0643 1.50444 91.6724 1.49582 101.285 1.47856C102.21 1.47433 102.611 1.78429 102.585 2.75273C102.537 4.47898 102.533 6.21368 102.602 7.93993C102.641 8.91277 102.275 9.18821 101.337 9.18398C95.8009 9.15369 90.2694 9.16249 84.7335 9.17535C82.7404 9.17958 82.5122 9.44216 82.5081 11.4697C82.5039 12.3135 82.4993 13.1615 82.5081 14.0052C82.5338 15.5677 82.7793 15.8433 84.3245 15.8174C89.275 15.7528 94.2296 15.6582 99.1843 15.5805C100.708 15.5591 100.717 15.5763 100.712 17.1C100.708 18.9811 100.695 20.8622 100.674 22.7434C100.673 22.8122 100.609 22.877 100.51 23.0708Z" fill="white"/>
<path fill-rule="evenodd" clip-rule="evenodd" d="M32.9187 11.775C31.7907 11.8569 30.8092 11.9259 29.8235 11.9988C27.8349 12.141 25.8461 12.257 23.8618 12.4337C23.0223 12.5112 22.3939 12.3736 21.9334 11.5684C21.4381 10.7032 20.8399 9.89413 20.2286 9.10621C18.313 6.6225 14.5638 7.27693 12.8159 8.61539C11.4299 9.67875 11.886 12.2185 13.5607 12.735C17.0001 13.7984 20.4912 14.7108 23.9307 15.7784C25.5363 16.2736 27.1204 16.8978 28.6314 17.6337C33.9088 20.2037 35.0497 25.9029 33.9865 30.1257C32.6434 35.4548 28.8595 38.1495 23.8532 39.4152C18.6876 40.7238 13.5263 40.5471 8.42963 38.9375C3.67285 37.4393 1.17188 34.0474 0.280761 29.2864C-0.119543 27.1469 -0.128172 27.1383 2.03272 26.9918C4.33151 26.837 6.63892 26.7593 8.92891 26.5311C10.2203 26.4064 10.8832 26.8196 11.262 28.0809C12.0929 30.8402 14.0559 32.3813 16.8495 32.9579C19.0492 33.4144 21.8601 31.8991 22.6436 29.7682C23.1732 28.3347 22.493 26.5612 20.9433 25.6572C20.0911 25.1579 19.1439 24.7962 18.2054 24.482C15.1147 23.4446 11.9982 22.4891 8.91165 21.4471C6.89271 20.7541 5.07628 19.7083 3.60822 18.0983C-0.623222 13.4535 0.633691 6.08397 6.16942 3.11807C13.0957 -0.592608 20.0993 -0.558094 27.1849 2.63165C30.2369 4.00496 32.0276 6.29072 32.4883 9.61818C32.5786 10.2858 32.7507 10.9487 32.9187 11.775Z" fill="white"/>
<path fill-rule="evenodd" clip-rule="evenodd" d="M35.7634 20.3844C35.7634 14.5 35.7592 8.62417 35.7634 2.74837C35.7634 1.25459 35.815 1.19859 37.3347 1.19859C43.1761 1.19859 49.0176 1.15561 54.8548 1.2287C56.8392 1.25459 58.8538 1.40956 60.7952 1.79701C65.0783 2.66648 67.8205 5.73576 68.2423 10.0792C68.505 12.8255 68.6169 15.5806 67.4246 18.2321C65.5951 22.2915 62.3924 24.349 58.079 24.6504C55.0184 24.87 51.9407 24.8485 48.8714 24.8442C47.7953 24.84 47.3906 25.1197 47.4077 26.2648C47.4724 30.2206 47.4378 34.181 47.4292 38.1368C47.4292 39.5274 47.2915 39.6609 45.9226 39.665C42.9653 39.6738 40.0038 39.6392 37.0465 39.6952C36.0263 39.7125 35.7378 39.3596 35.7422 38.3652C35.7806 32.3686 35.7634 26.3764 35.7634 20.3844ZM47.4377 13.0708H47.4419C47.4419 14.2245 47.472 15.3781 47.4334 16.5318C47.4076 17.3195 47.7219 17.6724 48.5139 17.6251C50.0077 17.5305 51.5099 17.5434 52.9907 17.3625C55.3196 17.07 56.71 15.4298 56.6584 13.2346C56.5937 10.8585 54.9665 8.94275 52.7066 8.75783C51.2947 8.64143 49.8655 8.72331 48.4494 8.6932C47.7175 8.68034 47.4076 8.9903 47.4292 9.73067C47.4636 10.8409 47.4377 11.9559 47.4377 13.0708Z" fill="white"/>
<path fill-rule="evenodd" clip-rule="evenodd" d="M112.786 31.3485C114.754 28.5416 116.725 25.7351 118.86 22.6831C118.929 23.2342 118.99 23.4795 118.99 23.7248C118.994 28.5633 118.968 33.406 119.015 38.2444C119.024 39.2086 118.615 39.4324 117.801 39.4324C114.835 39.4324 111.878 39.4409 108.921 39.4625C108.262 39.4668 107.806 39.3635 107.815 38.5327C107.879 34.0818 107.909 29.6265 107.948 25.171C107.961 23.5869 107.952 23.5783 109.562 23.5869C112.438 23.5999 112.007 23.2986 112.038 26.0106C112.05 27.3536 112.012 28.7007 112.055 30.0439C112.068 30.457 112.266 30.8704 112.373 31.2835C112.511 31.3054 112.649 31.3268 112.786 31.3485Z" fill="white"/>
<path fill-rule="evenodd" clip-rule="evenodd" d="M112.422 7.70297C112.4 8.02139 112.366 8.34454 112.366 8.65856C112.361 10.3933 112.344 12.1151 112.379 13.8458C112.396 14.6465 112.15 15.0639 111.272 15.0165C110.39 14.9734 109.503 14.9778 108.62 15.0208C107.79 15.0639 107.553 14.6377 107.553 13.9146C107.562 10.1824 107.557 6.45892 107.557 2.73099C107.557 1.85712 107.91 1.39658 108.87 1.40944C111.832 1.44396 114.789 1.43533 117.746 1.41384C118.65 1.41384 119.025 1.70654 119.016 2.69664C118.964 6.72996 118.995 10.7636 118.99 14.8012C118.99 15.0854 118.939 15.3695 118.672 15.7569C116.748 13.0018 114.824 10.2469 112.895 7.49622C112.74 7.56525 112.581 7.63411 112.422 7.70297Z" fill="white"/>
</svg>
