<svg width="228" height="40" viewBox="0 0 228 40" fill="none" xmlns="http://www.w3.org/2000/svg">
<g clip-path="url(#clip0_143_1949)">
<path d="M72.7539 3.55957H79.5731L67.2159 32.045H60.314L47.998 3.55957H54.8173L63.7856 24.8534L72.7539 3.55957Z" fill="url(#paint0_linear_143_1949)"/>
<path d="M88.6186 11.5548C90.1615 11.5548 91.5667 11.8628 92.8341 12.4789C94.1015 13.0681 95.1898 13.8583 96.0991 14.8493C97.0083 15.8135 97.7109 16.9385 98.2068 18.2242C98.7028 19.483 98.9507 20.7821 98.9507 22.1213C98.9507 22.9249 98.8405 23.782 98.6201 24.6927H83.9898C84.5408 25.6033 85.3261 26.3801 86.3455 27.0229C87.365 27.639 88.467 27.947 89.6518 27.947C90.8366 27.947 91.8698 27.8532 92.7514 27.6658C93.6607 27.4783 94.5148 27.2372 95.3138 26.9426L97.2149 30.3576C96.1955 31.054 95.0245 31.5897 93.702 31.9647C92.407 32.3397 91.0156 32.5272 89.5278 32.5272C87.9022 32.5272 86.3868 32.2593 84.9817 31.7236C83.5765 31.1612 82.3504 30.4112 81.3034 29.4737C80.2564 28.5363 79.4299 27.4247 78.8237 26.139C78.2175 24.8534 77.9145 23.4874 77.9145 22.041C77.9145 20.6214 78.19 19.2822 78.741 18.0233C79.2921 16.7376 80.0498 15.6261 81.0141 14.6886C82.006 13.7243 83.1494 12.961 84.4444 12.3985C85.7394 11.836 87.1308 11.5548 88.6186 11.5548ZM93.2887 20.3937C92.9581 19.242 92.3657 18.3045 91.5116 17.5813C90.6575 16.8582 89.6931 16.4966 88.6186 16.4966C87.5165 16.4966 86.5108 16.8582 85.6016 17.5813C84.7199 18.3045 84.1138 19.242 83.7831 20.3937H93.2887Z" fill="url(#paint1_linear_143_1949)"/>
<path d="M113.735 12.1173C114.507 12.1173 115.361 12.2244 116.297 12.4387C117.234 12.653 118.116 13.0547 118.942 13.644C119.769 14.2333 120.458 15.0502 121.009 16.0948C121.588 17.1394 121.877 18.492 121.877 20.1527V32.045H116.132V20.3535C116.132 19.7375 116.022 19.2152 115.802 18.7866C115.609 18.3581 115.333 18.0233 114.975 17.7822C114.644 17.5144 114.259 17.3269 113.818 17.2197C113.377 17.0858 112.936 17.0189 112.495 17.0189C112.137 17.0189 111.738 17.0858 111.297 17.2197C110.883 17.3269 110.484 17.5144 110.098 17.7822C109.74 18.0501 109.437 18.3983 109.189 18.8268C108.941 19.2554 108.817 19.7643 108.817 20.3535V32.045H103.114V12.1173H107.99L108.817 13.644C109.478 13.1887 110.222 12.8271 111.049 12.5592C111.875 12.2646 112.771 12.1173 113.735 12.1173Z" fill="url(#paint2_linear_143_1949)"/>
<path d="M132.995 24.8935C132.995 25.831 133.284 26.5542 133.863 27.0631C134.469 27.572 135.254 27.8265 136.218 27.8265C136.99 27.8265 137.761 27.6791 138.533 27.3845V32.045C137.844 32.2593 137.114 32.4334 136.342 32.5673C135.571 32.7281 134.8 32.8084 134.028 32.8084C133.146 32.8084 132.306 32.7013 131.507 32.487C130.708 32.2727 129.992 31.9111 129.358 31.4022C128.724 30.8665 128.215 30.1701 127.829 29.313C127.471 28.4291 127.292 27.3443 127.292 26.0587V17.059H124.357V13.3226L127.292 12.1173V7.65762H132.995V12.1173H138.533V17.059H132.995V24.8935Z" fill="url(#paint3_linear_143_1949)"/>
<path d="M154.23 12.1173H159.933V32.045H155.057L154.23 30.5183C153.569 30.9737 152.811 31.3486 151.957 31.6433C151.13 31.9111 150.235 32.045 149.271 32.045C148.527 32.045 147.673 31.9379 146.708 31.7236C145.771 31.5094 144.89 31.1076 144.063 30.5183C143.237 29.9291 142.534 29.1121 141.955 28.0675C141.404 27.0229 141.129 25.6703 141.129 24.0097V12.1173H146.874V23.8088C146.874 24.4248 146.97 24.9471 147.163 25.3757C147.383 25.8042 147.659 26.1524 147.989 26.4203C148.348 26.6613 148.747 26.8488 149.188 26.9827C149.629 27.0899 150.083 27.1435 150.552 27.1435C150.91 27.1435 151.296 27.0899 151.709 26.9827C152.15 26.8488 152.549 26.6479 152.908 26.3801C153.293 26.1122 153.61 25.764 153.858 25.3355C154.106 24.9069 154.23 24.398 154.23 23.8088V12.1173Z" fill="url(#paint4_linear_143_1949)"/>
<path d="M169.314 14.8895C169.589 14.4609 169.906 14.0592 170.264 13.6842C170.622 13.2824 171.049 12.9342 171.545 12.6396C172.041 12.3182 172.606 12.0637 173.24 11.8762C173.874 11.6887 174.59 11.595 175.389 11.595C176.326 11.595 177.414 11.7557 178.654 12.0771L178.117 17.0189C177.814 16.9653 177.511 16.8983 177.207 16.818C176.959 16.7644 176.684 16.7242 176.381 16.6974C176.078 16.6439 175.802 16.6171 175.554 16.6171C174.673 16.6171 173.846 16.7376 173.075 16.9787C172.331 17.2197 171.683 17.5545 171.132 17.9831C170.581 18.4117 170.14 18.934 169.81 19.55C169.479 20.1393 169.314 20.7821 169.314 21.4785V32.045H163.61V12.1173H168.776L169.314 14.8895Z" fill="url(#paint5_linear_143_1949)"/>
<path d="M197.886 12.1173H204.126L191.19 40.0001H184.95L190.033 29.0318L181.354 12.1173H187.719L193.05 22.5231L197.886 12.1173Z" fill="url(#paint6_linear_143_1949)"/>
<path d="M209.553 21.6113H216.255V23.6411H211.852V25.5237H215.726V27.5535H211.852V32.0395H209.553V21.6113Z" fill="white"/>
<path d="M223.475 26.4209L227.333 32.0395H224.579L222.083 28.436L219.601 32.0395H216.833L220.706 26.4209L217.393 21.6113H220.146L222.083 24.4206L224.019 21.6113H226.788L223.475 26.4209Z" fill="white"/>
<path d="M7.99006 28.4799C7.99006 30.446 6.35052 32.0399 4.32804 32.0399C2.30556 32.0399 0.666016 30.446 0.666016 28.4799C0.666016 26.5138 2.30556 24.9199 4.32804 24.9199C6.35052 24.9199 7.99006 26.5138 7.99006 28.4799Z" fill="url(#paint7_linear_143_1949)"/>
<path d="M4.32804 7.11996C6.0997 7.11996 7.57751 5.89692 7.91681 4.27198H29.2298V24.9911C27.5583 25.3209 26.3002 26.7576 26.3002 28.4798C26.3002 30.446 27.9397 32.0398 29.9622 32.0398C31.9847 32.0398 33.6242 30.446 33.6242 28.4798C33.6242 26.7576 32.3661 25.3209 30.6946 24.9911V2.84798H7.91681C7.57751 1.22304 6.0997 0 4.32804 0C2.30556 0 0.666016 1.59386 0.666016 3.55998C0.666016 5.5261 2.30556 7.11996 4.32804 7.11996Z" fill="white"/>
</g>
<defs>
<linearGradient id="paint0_linear_143_1949" x1="23.1848" y1="40.0001" x2="233.54" y2="40.0001" gradientUnits="userSpaceOnUse">
<stop stop-color="#FFD84E"/>
<stop offset="1" stop-color="#7FD6A8"/>
</linearGradient>
<linearGradient id="paint1_linear_143_1949" x1="23.1848" y1="40.0001" x2="233.54" y2="40.0001" gradientUnits="userSpaceOnUse">
<stop stop-color="#FFD84E"/>
<stop offset="1" stop-color="#7FD6A8"/>
</linearGradient>
<linearGradient id="paint2_linear_143_1949" x1="23.1848" y1="40.0001" x2="233.54" y2="40.0001" gradientUnits="userSpaceOnUse">
<stop stop-color="#FFD84E"/>
<stop offset="1" stop-color="#7FD6A8"/>
</linearGradient>
<linearGradient id="paint3_linear_143_1949" x1="23.1848" y1="40.0001" x2="233.54" y2="40.0001" gradientUnits="userSpaceOnUse">
<stop stop-color="#FFD84E"/>
<stop offset="1" stop-color="#7FD6A8"/>
</linearGradient>
<linearGradient id="paint4_linear_143_1949" x1="23.1848" y1="40.0001" x2="233.54" y2="40.0001" gradientUnits="userSpaceOnUse">
<stop stop-color="#FFD84E"/>
<stop offset="1" stop-color="#7FD6A8"/>
</linearGradient>
<linearGradient id="paint5_linear_143_1949" x1="23.1848" y1="40.0001" x2="233.54" y2="40.0001" gradientUnits="userSpaceOnUse">
<stop stop-color="#FFD84E"/>
<stop offset="1" stop-color="#7FD6A8"/>
</linearGradient>
<linearGradient id="paint6_linear_143_1949" x1="23.1848" y1="40.0001" x2="233.54" y2="40.0001" gradientUnits="userSpaceOnUse">
<stop stop-color="#FFD84E"/>
<stop offset="1" stop-color="#7FD6A8"/>
</linearGradient>
<linearGradient id="paint7_linear_143_1949" x1="-0.497985" y1="32.0399" x2="9.36986" y2="32.0399" gradientUnits="userSpaceOnUse">
<stop stop-color="#FFD84E"/>
<stop offset="1" stop-color="#7FD6A8"/>
</linearGradient>
<clipPath id="clip0_143_1949">
<rect width="226.667" height="40" fill="white" transform="translate(0.666016)"/>
</clipPath>
</defs>
</svg>
