<svg width="228" height="40" viewBox="0 0 228 40" fill="none" xmlns="http://www.w3.org/2000/svg">
<g clip-path="url(#clip0_2232_305)">
<path d="M72.7544 3.55957H79.5736L67.2163 32.045H60.3145L47.9985 3.55957H54.8178L63.7861 24.8534L72.7544 3.55957Z" fill="url(#paint0_linear_2232_305)"/>
<path d="M88.6191 11.5548C90.162 11.5548 91.5672 11.8628 92.8346 12.4789C94.102 13.0681 95.1903 13.8583 96.0996 14.8493C97.0088 15.8135 97.7114 16.9385 98.2073 18.2242C98.7033 19.483 98.9512 20.7821 98.9512 22.1213C98.9512 22.9249 98.841 23.782 98.6206 24.6927H83.9903C84.5413 25.6033 85.3266 26.3801 86.346 27.0229C87.3654 27.639 88.4675 27.947 89.6523 27.947C90.837 27.947 91.8703 27.8532 92.7519 27.6658C93.6612 27.4783 94.5153 27.2372 95.3143 26.9426L97.2154 30.3576C96.196 31.054 95.025 31.5897 93.7025 31.9647C92.4075 32.3397 91.0161 32.5272 89.5283 32.5272C87.9027 32.5272 86.3873 32.2593 84.9822 31.7236C83.577 31.1612 82.3509 30.4112 81.3039 29.4737C80.2569 28.5363 79.4303 27.4247 78.8242 26.139C78.218 24.8534 77.915 23.4874 77.915 22.041C77.915 20.6214 78.1905 19.2822 78.7415 18.0233C79.2926 16.7376 80.0503 15.6261 81.0146 14.6886C82.0065 13.7243 83.1499 12.961 84.4449 12.3985C85.7398 11.836 87.1312 11.5548 88.6191 11.5548ZM93.2892 20.3937C92.9586 19.242 92.3662 18.3045 91.5121 17.5813C90.658 16.8582 89.6936 16.4966 88.6191 16.4966C87.517 16.4966 86.5113 16.8582 85.6021 17.5813C84.7204 18.3045 84.1143 19.242 83.7836 20.3937H93.2892Z" fill="url(#paint1_linear_2232_305)"/>
<path d="M113.736 12.1173C114.507 12.1173 115.361 12.2244 116.298 12.4387C117.235 12.653 118.116 13.0547 118.943 13.644C119.77 14.2333 120.458 15.0502 121.009 16.0948C121.588 17.1394 121.877 18.492 121.877 20.1527V32.045H116.133V20.3535C116.133 19.7375 116.022 19.2152 115.802 18.7866C115.609 18.3581 115.334 18.0233 114.975 17.7822C114.645 17.5144 114.259 17.3269 113.818 17.2197C113.377 17.0858 112.937 17.0189 112.496 17.0189C112.138 17.0189 111.738 17.0858 111.297 17.2197C110.884 17.3269 110.484 17.5144 110.099 17.7822C109.74 18.0501 109.437 18.3983 109.189 18.8268C108.941 19.2554 108.817 19.7643 108.817 20.3535V32.045H103.114V12.1173H107.991L108.817 13.644C109.479 13.1887 110.223 12.8271 111.049 12.5592C111.876 12.2646 112.771 12.1173 113.736 12.1173Z" fill="url(#paint2_linear_2232_305)"/>
<path d="M132.995 24.8935C132.995 25.831 133.285 26.5542 133.863 27.0631C134.469 27.572 135.255 27.8265 136.219 27.8265C136.99 27.8265 137.762 27.6791 138.533 27.3845V32.045C137.845 32.2593 137.114 32.4334 136.343 32.5673C135.571 32.7281 134.8 32.8084 134.029 32.8084C133.147 32.8084 132.307 32.7013 131.508 32.487C130.709 32.2727 129.992 31.9111 129.358 31.4022C128.725 30.8665 128.215 30.1701 127.829 29.313C127.471 28.4291 127.292 27.3443 127.292 26.0587V17.059H124.358V13.3226L127.292 12.1173V7.65762H132.995V12.1173H138.533V17.059H132.995V24.8935Z" fill="url(#paint3_linear_2232_305)"/>
<path d="M154.231 12.1173H159.934V32.045H155.057L154.231 30.5183C153.569 30.9737 152.812 31.3486 151.957 31.6433C151.131 31.9111 150.235 32.045 149.271 32.045C148.527 32.045 147.673 31.9379 146.709 31.7236C145.772 31.5094 144.89 31.1076 144.064 30.5183C143.237 29.9291 142.535 29.1121 141.956 28.0675C141.405 27.0229 141.129 25.6703 141.129 24.0097V12.1173H146.874V23.8088C146.874 24.4248 146.97 24.9471 147.163 25.3757C147.384 25.8042 147.659 26.1524 147.99 26.4203C148.348 26.6613 148.748 26.8488 149.188 26.9827C149.629 27.0899 150.084 27.1435 150.552 27.1435C150.91 27.1435 151.296 27.0899 151.709 26.9827C152.15 26.8488 152.55 26.6479 152.908 26.3801C153.294 26.1122 153.611 25.764 153.859 25.3355C154.107 24.9069 154.231 24.398 154.231 23.8088V12.1173Z" fill="url(#paint4_linear_2232_305)"/>
<path d="M169.314 14.8895C169.59 14.4609 169.907 14.0592 170.265 13.6842C170.623 13.2824 171.05 12.9342 171.546 12.6396C172.042 12.3182 172.607 12.0637 173.24 11.8762C173.874 11.6887 174.59 11.595 175.389 11.595C176.326 11.595 177.415 11.7557 178.654 12.0771L178.117 17.0189C177.814 16.9653 177.511 16.8983 177.208 16.818C176.96 16.7644 176.684 16.7242 176.381 16.6974C176.078 16.6439 175.803 16.6171 175.555 16.6171C174.673 16.6171 173.847 16.7376 173.075 16.9787C172.331 17.2197 171.684 17.5545 171.133 17.9831C170.582 18.4117 170.141 18.934 169.81 19.55C169.479 20.1393 169.314 20.7821 169.314 21.4785V32.045H163.611V12.1173H168.777L169.314 14.8895Z" fill="url(#paint5_linear_2232_305)"/>
<path d="M197.886 12.1173H204.127L191.191 40.0001H184.95L190.034 29.0318L181.355 12.1173H187.719L193.051 22.5231L197.886 12.1173Z" fill="url(#paint6_linear_2232_305)"/>
<path d="M7.99055 28.4799C7.99055 30.446 6.35101 32.0399 4.32853 32.0399C2.30605 32.0399 0.666504 30.446 0.666504 28.4799C0.666504 26.5138 2.30605 24.9199 4.32853 24.9199C6.35101 24.9199 7.99055 26.5138 7.99055 28.4799Z" fill="url(#paint7_linear_2232_305)"/>
<path d="M4.32853 7.11996C6.10018 7.11996 7.578 5.89692 7.9173 4.27198H29.2303V24.9911C27.5588 25.3209 26.3007 26.7576 26.3007 28.4798C26.3007 30.446 27.9402 32.0398 29.9627 32.0398C31.9852 32.0398 33.6247 30.446 33.6247 28.4798C33.6247 26.7576 32.3666 25.3209 30.6951 24.9911V2.84798H7.9173C7.578 1.22304 6.10018 0 4.32853 0C2.30605 0 0.666504 1.59386 0.666504 3.55998C0.666504 5.5261 2.30605 7.11996 4.32853 7.11996Z" fill="white"/>
</g>
<defs>
<linearGradient id="paint0_linear_2232_305" x1="23.1853" y1="40.0001" x2="233.54" y2="40.0001" gradientUnits="userSpaceOnUse">
<stop stop-color="#FFD84E"/>
<stop offset="1" stop-color="#7FD6A8"/>
</linearGradient>
<linearGradient id="paint1_linear_2232_305" x1="23.1853" y1="40.0001" x2="233.54" y2="40.0001" gradientUnits="userSpaceOnUse">
<stop stop-color="#FFD84E"/>
<stop offset="1" stop-color="#7FD6A8"/>
</linearGradient>
<linearGradient id="paint2_linear_2232_305" x1="23.1853" y1="40.0001" x2="233.54" y2="40.0001" gradientUnits="userSpaceOnUse">
<stop stop-color="#FFD84E"/>
<stop offset="1" stop-color="#7FD6A8"/>
</linearGradient>
<linearGradient id="paint3_linear_2232_305" x1="23.1853" y1="40.0001" x2="233.54" y2="40.0001" gradientUnits="userSpaceOnUse">
<stop stop-color="#FFD84E"/>
<stop offset="1" stop-color="#7FD6A8"/>
</linearGradient>
<linearGradient id="paint4_linear_2232_305" x1="23.1853" y1="40.0001" x2="233.54" y2="40.0001" gradientUnits="userSpaceOnUse">
<stop stop-color="#FFD84E"/>
<stop offset="1" stop-color="#7FD6A8"/>
</linearGradient>
<linearGradient id="paint5_linear_2232_305" x1="23.1853" y1="40.0001" x2="233.54" y2="40.0001" gradientUnits="userSpaceOnUse">
<stop stop-color="#FFD84E"/>
<stop offset="1" stop-color="#7FD6A8"/>
</linearGradient>
<linearGradient id="paint6_linear_2232_305" x1="23.1853" y1="40.0001" x2="233.54" y2="40.0001" gradientUnits="userSpaceOnUse">
<stop stop-color="#FFD84E"/>
<stop offset="1" stop-color="#7FD6A8"/>
</linearGradient>
<linearGradient id="paint7_linear_2232_305" x1="-0.497497" y1="32.0399" x2="9.37035" y2="32.0399" gradientUnits="userSpaceOnUse">
<stop stop-color="#FFD84E"/>
<stop offset="1" stop-color="#7FD6A8"/>
</linearGradient>
<clipPath id="clip0_2232_305">
<rect width="226.667" height="40" fill="white" transform="translate(0.666504)"/>
</clipPath>
</defs>
</svg>
