<svg width="98" height="28" viewBox="0 0 98 28" fill="none" xmlns="http://www.w3.org/2000/svg">
<path d="M0.000617989 1.42824L3.44239 0.442946V13.8817H0.000617989V1.42824ZM14.0799 13.8817H10.9336V8.98627C10.9336 7.76366 10.9841 6.34909 9.45041 6.34909C8.24548 6.34909 7.65748 7.25362 7.65748 8.46753V13.8817H4.51186V4.48164L7.56513 3.60755V5.38617C7.8896 4.85811 8.33968 4.42262 8.87411 4.12194C9.40792 3.82064 10.0088 3.66346 10.619 3.66471C13.1348 3.66471 14.0799 5.12897 14.0799 7.51019V13.8817ZM17.0956 13.8817L13.8945 3.95172H17.1695L18.9451 10.5829L20.7411 3.95172H23.9422L20.7214 13.8817H17.0956ZM30.2223 7.50647C30.1534 7.05669 29.9323 6.64543 29.598 6.34474C29.2631 6.04344 28.8358 5.87198 28.39 5.86018C26.9782 5.86018 26.2775 7.21076 26.32 8.62408L30.2223 7.50647ZM28.6905 11.9931C29.3634 11.9949 30.0284 11.839 30.633 11.5377C31.2382 11.2364 31.7671 10.7972 32.1803 10.2542L33.025 12.6236C31.7314 13.6356 30.1454 14.1798 28.5162 14.1718C25.4697 14.1718 23.2237 12.3099 23.2237 8.88749C23.215 8.19294 23.3437 7.50398 23.6017 6.86162C23.8603 6.21925 24.2426 5.63653 24.7266 5.14885C25.2099 4.66118 25.7856 4.27787 26.4173 4.02254C27.0496 3.76721 27.7257 3.64483 28.4054 3.66284C31.4039 3.66284 33.2633 5.71481 33.2368 8.82536L26.5774 10.7344C26.9203 11.6334 27.7798 11.9931 28.6899 11.9931H28.6905ZM39.3495 7.74254C40.092 7.82206 40.813 8.04508 41.4749 8.39857C41.8462 8.63651 42.1534 8.96452 42.3701 9.35404C42.5862 9.74294 42.7051 10.1809 42.7149 10.6282C42.7149 13.2666 40.3137 14.1674 38.0307 14.1674C35.9822 14.1674 33.7688 13.4573 33.4037 11.1724L36.098 10.4008C36.1331 10.8779 36.3492 11.3215 36.7014 11.6371C37.0535 11.9527 37.5129 12.1142 37.9802 12.0869C38.6796 12.0869 39.5693 11.7781 39.5712 11.0109C39.5712 10.2269 38.5977 10.0703 38.0356 9.9349C37.6335 9.83923 37.2272 9.74232 36.811 9.65472C35.1886 9.3118 33.6198 8.80548 33.6198 6.70569C33.6198 4.30396 36.1294 3.66346 38.006 3.66346C39.7743 3.66346 42.0943 4.24929 42.4169 6.19813L39.666 6.98649C39.5256 6.08444 38.9277 5.75456 37.9519 5.75456C37.4224 5.75456 36.766 5.94094 36.766 6.51434C36.766 7.16416 37.8964 7.43813 38.3995 7.54995C38.7079 7.62015 39.0263 7.68414 39.3495 7.74254ZM46.363 6.05587V10.5711C46.3352 10.7587 46.3734 10.9494 46.4701 11.1109C46.5668 11.2724 46.7158 11.3936 46.8918 11.4545C47.4688 11.5619 48.0617 11.5389 48.6294 11.3874L47.9773 13.8723C47.5149 13.9369 47.0495 13.9717 46.5828 13.9761C43.91 13.981 43.2149 13.1728 43.2149 10.4748V2.11906L46.3611 1.21826V3.95234H48.6306L48.0684 6.05587H46.363ZM49.0708 4.50711L52.2164 3.60631V13.8817H49.0708V4.50711ZM59.704 8.9844C59.704 7.7618 59.7545 6.34661 58.2208 6.34661C57.0152 6.34661 56.4291 7.25114 56.4291 8.46504V13.8817H53.2828V4.48164L56.3361 3.60755V5.38617C56.66 4.85811 57.1106 4.42262 57.6445 4.12194C58.1789 3.82064 58.7798 3.66346 59.39 3.66471C61.9051 3.66471 62.8502 5.12897 62.8502 7.51019V13.8817H59.704V8.9844ZM68.5221 6.14967C67.1367 6.14657 66.6897 7.40955 66.6897 8.63713C66.6897 9.81376 67.2143 10.9742 68.503 10.9711C69.8347 10.968 70.4036 9.90632 70.4098 8.65514C70.4153 7.40458 69.9277 6.15527 68.5227 6.15216L68.5221 6.14967ZM68.3811 17.3681C66.5081 17.3681 64.5274 16.8481 63.8883 14.7253L66.7144 13.9146C66.8209 14.3147 67.0573 14.6663 67.3842 14.911C67.7118 15.1564 68.1108 15.2813 68.5165 15.2652C69.8181 15.2652 70.355 14.1898 70.355 12.9411V11.9459C70.0878 12.4056 69.7085 12.7864 69.2547 13.0523C68.8004 13.3176 68.2869 13.4586 67.7635 13.4611C64.8506 13.4518 63.5441 11.3228 63.5441 8.52468C63.5441 5.88192 65.0433 3.66471 67.7635 3.66471C68.2936 3.65228 68.8176 3.78771 69.2775 4.05795C69.7374 4.32757 70.1167 4.72082 70.3729 5.19545V4.47108L73.3898 3.60755V12.6771C73.3898 15.8367 71.164 17.3705 68.3811 17.3705V17.3681ZM74.8188 12.5429H75.8354V13.881H74.8188V12.5429ZM79.5554 13.4014C80.4728 13.3983 81.1797 12.5565 81.2812 11.5458L82.0102 11.7551C81.7572 13.1355 80.8977 14.0705 79.5548 14.0705C77.7182 14.0662 76.6906 12.4808 76.6906 10.6239C76.6906 8.76759 77.7108 7.18901 79.5548 7.17783C80.133 7.13869 80.7037 7.32693 81.1513 7.70278C81.5989 8.07925 81.8896 8.61538 81.9634 9.20246L81.232 9.41182C81.0313 8.4638 80.4544 7.84318 79.5548 7.84691C78.1467 7.84442 77.4528 9.2534 77.4528 10.6257C77.4528 11.998 78.1646 13.4014 79.5554 13.4014ZM85.6324 7.84753C84.2329 7.84753 83.531 9.2534 83.531 10.6257C83.531 11.9987 84.2409 13.4002 85.6324 13.4045C87.0245 13.4089 87.7338 11.9943 87.7338 10.6257C87.7338 9.25775 87.0325 7.84753 85.633 7.84753H85.6324ZM85.6324 14.0711C83.7964 14.0668 82.7688 12.4814 82.7688 10.6245C82.7688 8.76759 83.7841 7.17783 85.6324 7.17783C87.4814 7.17783 88.496 8.76386 88.496 10.6245C88.496 12.4851 87.469 14.0749 85.633 14.0711H85.6324ZM97.2261 13.8817V9.50065C97.2291 8.45138 96.8363 7.84504 95.7946 7.84691C94.4991 7.85126 94.1408 9.0633 94.1451 10.1946V13.881H93.3816V9.46276C93.3909 8.5837 93.0393 7.85126 92.1201 7.84753C90.7877 7.84504 90.3037 9.02913 90.3007 10.2461V13.8817H89.5378V7.46733L90.2397 7.26667V8.54021C90.4078 8.13206 90.691 7.78416 91.0543 7.54126C91.4169 7.29897 91.843 7.17286 92.2764 7.17907C92.6662 7.15733 93.051 7.27164 93.3687 7.50274C93.6858 7.73446 93.9167 8.06931 94.0232 8.45262C94.1876 8.06869 94.4597 7.74316 94.8051 7.51703C95.1499 7.29027 95.5532 7.17286 95.9633 7.17907C97.348 7.17597 97.9883 7.99538 97.9883 9.464V13.8817H97.2261Z" fill="white"/>
<path fill-rule="evenodd" clip-rule="evenodd" d="M49.1096 0.876574L52.2097 1.68544e-06V2.64773L49.1096 3.52431V0.876574Z" fill="#FFA500"/>
<path d="M35.026 26.0164H35.5365C35.4946 26.427 35.3825 26.7811 35.2003 27.0793C35.018 27.375 34.7693 27.6024 34.4541 27.7614C34.1388 27.9205 33.7589 28 33.3138 28C32.9708 28 32.6599 27.9341 32.3804 27.8031C32.1039 27.672 31.8663 27.4869 31.6674 27.2471C31.4685 27.0041 31.3146 26.714 31.2068 26.3767C31.0991 26.0394 31.0455 25.6641 31.0455 25.251V24.4894C31.0455 24.0769 31.0991 23.7029 31.2068 23.368C31.3146 23.0307 31.4697 22.7406 31.6717 22.4983C31.873 22.2554 32.115 22.0684 32.397 21.9373C32.679 21.8062 32.9973 21.741 33.3507 21.741C33.7792 21.741 34.1499 21.8205 34.4621 21.9789C34.7742 22.1355 35.0205 22.3616 35.2003 22.6573C35.3825 22.953 35.4946 23.3096 35.5365 23.7283H35.026C34.9872 23.3991 34.9017 23.1201 34.7693 22.8915C34.6363 22.6623 34.4522 22.4883 34.2176 22.3684C33.9855 22.2454 33.6967 22.1846 33.3507 22.1846C33.0687 22.1846 32.8175 22.2386 32.5965 22.3473C32.3748 22.456 32.187 22.6126 32.0325 22.8157C31.8773 23.017 31.7585 23.2581 31.6754 23.5401C31.5953 23.8215 31.5553 24.1353 31.5553 24.4813V25.251C31.5553 25.5859 31.5941 25.894 31.6717 26.1754C31.7493 26.4575 31.8626 26.7016 32.0116 26.9079C32.1636 27.1141 32.349 27.2744 32.5669 27.3887C32.7855 27.5036 33.0342 27.5608 33.3138 27.5608C33.6703 27.5608 33.9676 27.5036 34.2053 27.3887C34.4454 27.2719 34.632 27.0992 34.765 26.87C34.8974 26.6413 34.9848 26.3568 35.026 26.0164ZM36.3904 25.7238V25.5859C36.3904 25.2566 36.4372 24.9528 36.5314 24.6739C36.625 24.3949 36.7592 24.1533 36.9335 23.9501C37.1108 23.7464 37.322 23.5886 37.5676 23.4774C37.8139 23.3624 38.0873 23.3053 38.389 23.3053C38.6932 23.3053 38.9684 23.3624 39.214 23.4774C39.4603 23.5886 39.6715 23.7464 39.8488 23.9501C40.0255 24.1533 40.161 24.3949 40.2552 24.6739C40.3488 24.9528 40.3962 25.2566 40.3962 25.5859V25.7238C40.3962 26.053 40.3488 26.3568 40.2552 26.6358C40.161 26.9122 40.0255 27.152 39.8488 27.3558C39.6746 27.5589 39.4646 27.718 39.2183 27.8323C38.9721 27.9441 38.6987 28 38.397 28C38.0935 28 37.8182 27.9441 37.572 27.8323C37.3263 27.718 37.1145 27.5589 36.9378 27.3558C36.7605 27.152 36.625 26.9122 36.5314 26.6358C36.4372 26.3568 36.3904 26.053 36.3904 25.7238ZM36.8836 25.5859V25.7238C36.8836 25.9723 36.9169 26.2077 36.9833 26.4307C37.0498 26.6513 37.1465 26.8482 37.2733 27.0209C37.4008 27.1911 37.5584 27.3247 37.7462 27.4229C37.934 27.5204 38.1513 27.5689 38.397 27.5689C38.6408 27.5689 38.8551 27.5204 39.0398 27.4229C39.2282 27.3247 39.3858 27.1911 39.5127 27.0209C39.6401 26.8482 39.7355 26.6513 39.799 26.4307C39.8655 26.2077 39.8987 25.9723 39.8987 25.7238V25.5859C39.8987 25.3405 39.8655 25.1075 39.799 24.887C39.7355 24.667 39.6389 24.4701 39.5083 24.2974C39.3815 24.1241 39.2239 23.9874 39.0361 23.8868C38.8477 23.7867 38.6322 23.7364 38.389 23.7364C38.1458 23.7364 37.9303 23.7867 37.7425 23.8868C37.5566 23.9874 37.3996 24.1241 37.2697 24.2974C37.1422 24.4701 37.0455 24.667 36.979 24.887C36.9156 25.1075 36.8836 25.3405 36.8836 25.5859ZM41.9176 24.1384V27.9161H41.4244V23.3891H41.9053L41.9176 24.1384ZM43.5061 23.3556L43.4932 23.8159C43.4384 23.8079 43.3842 23.8004 43.3319 23.7948C43.2795 23.7892 43.2229 23.7867 43.1619 23.7867C42.9464 23.7867 42.7568 23.8271 42.5936 23.9079C42.4335 23.9862 42.2981 24.0961 42.1873 24.2384C42.0764 24.3782 41.9927 24.5428 41.9342 24.7323C41.8763 24.9193 41.8431 25.1199 41.8351 25.3349L41.6522 25.4057C41.6522 25.11 41.683 24.8354 41.744 24.5813C41.8043 24.3278 41.8973 24.1061 42.0216 23.9166C42.1485 23.724 42.3073 23.5749 42.4982 23.4687C42.6921 23.3599 42.9187 23.3053 43.1785 23.3053C43.242 23.3053 43.3041 23.3109 43.3651 23.322C43.4285 23.3307 43.4753 23.3419 43.5061 23.3556ZM44.7788 24.1384V27.9161H44.2856V23.3891H44.7664L44.7788 24.1384ZM46.3673 23.3556L46.3549 23.8159C46.2995 23.8079 46.2454 23.8004 46.193 23.7948C46.1407 23.7892 46.0834 23.7867 46.0231 23.7867C45.807 23.7867 45.618 23.8271 45.4548 23.9079C45.2947 23.9862 45.1593 24.0961 45.0484 24.2384C44.9382 24.3782 44.8539 24.5428 44.7954 24.7323C44.7375 24.9193 44.7043 25.1199 44.6962 25.3349L44.5134 25.4057C44.5134 25.11 44.5442 24.8354 44.6045 24.5813C44.6655 24.3278 44.7584 24.1061 44.8828 23.9166C45.0096 23.724 45.1685 23.5749 45.3594 23.4687C45.5527 23.3599 45.7799 23.3053 46.0397 23.3053C46.1031 23.3053 46.1653 23.3109 46.2263 23.322C46.2897 23.3307 46.3365 23.3419 46.3673 23.3556ZM48.7968 28C48.5037 28 48.2341 27.9453 47.9884 27.8366C47.7452 27.7279 47.5322 27.5744 47.3499 27.3763C47.1701 27.1781 47.0304 26.9445 46.9312 26.6736C46.8346 26.4003 46.7859 26.1021 46.7859 25.7784V25.5983C46.7859 25.2498 46.837 24.9348 46.9392 24.6527C47.0415 24.3707 47.1825 24.1297 47.3622 23.929C47.542 23.7283 47.7464 23.5749 47.9761 23.4687C48.2082 23.3599 48.4514 23.3053 48.7057 23.3053C48.9908 23.3053 49.2432 23.3568 49.4649 23.4606C49.6859 23.5606 49.8712 23.7047 50.0202 23.8911C50.1723 24.0756 50.2868 24.2943 50.3644 24.5484C50.442 24.7994 50.4808 25.0771 50.4808 25.3808V25.6859H47.0846V25.2597H49.987V25.2007C49.9814 24.9472 49.9303 24.7099 49.8337 24.4894C49.7395 24.2663 49.5985 24.0849 49.4107 23.9458C49.2229 23.806 48.9877 23.7364 48.7057 23.7364C48.4957 23.7364 48.3024 23.7811 48.1251 23.8706C47.9508 23.9594 47.8006 24.088 47.6732 24.2552C47.5488 24.4198 47.4521 24.6167 47.3832 24.8453C47.3167 25.0715 47.2834 25.3218 47.2834 25.5983V25.7784C47.2834 26.0294 47.3191 26.2636 47.3912 26.4811C47.4663 26.696 47.571 26.8855 47.7064 27.0501C47.8449 27.2147 48.0075 27.3427 48.1959 27.4353C48.3837 27.5272 48.5912 27.5732 48.8178 27.5732C49.0831 27.5732 49.3183 27.5241 49.5227 27.4266C49.7271 27.3266 49.9112 27.1688 50.0738 26.9538L50.3853 27.1967C50.2881 27.3415 50.1668 27.4757 50.0202 27.5981C49.8768 27.7211 49.7038 27.8186 49.5018 27.8913C49.2999 27.9633 49.0653 28 48.7968 28ZM53.1554 23.3891V23.7992H50.9074V23.3891H53.1554ZM51.7331 22.2262H52.2263V26.8159C52.2263 27.0253 52.254 27.1824 52.3094 27.2887C52.3642 27.3943 52.4362 27.4657 52.5249 27.5018C52.6136 27.5384 52.7084 27.5564 52.8106 27.5564C52.8857 27.5564 52.9571 27.5521 53.0267 27.544C53.0956 27.5328 53.1578 27.5216 53.2132 27.5105L53.2336 27.9329C53.1732 27.9528 53.0944 27.9677 52.9978 27.9789C52.9005 27.9932 52.8038 28 52.7071 28C52.5163 28 52.3482 27.9652 52.2017 27.8956C52.0551 27.8229 51.94 27.6999 51.8569 27.5272C51.7744 27.3514 51.7331 27.1129 51.7331 26.8116V22.2262ZM53.8394 25.7238V25.5859C53.8394 25.2566 53.8862 24.9528 53.9804 24.6739C54.074 24.3949 54.2082 24.1533 54.3825 23.9501C54.5592 23.7464 54.771 23.5886 55.0166 23.4774C55.2629 23.3624 55.5363 23.3053 55.838 23.3053C56.1421 23.3053 56.4174 23.3624 56.663 23.4774C56.9093 23.5886 57.1205 23.7464 57.2978 23.9501C57.4745 24.1533 57.61 24.3949 57.7042 24.6739C57.7978 24.9528 57.8446 25.2566 57.8446 25.5859V25.7238C57.8446 26.053 57.7978 26.3568 57.7042 26.6358C57.61 26.9122 57.4745 27.152 57.2978 27.3558C57.1236 27.5589 56.913 27.718 56.6673 27.8323C56.4211 27.9441 56.1477 28 55.846 28C55.5418 28 55.2672 27.9441 55.0209 27.8323C54.7753 27.718 54.5635 27.5589 54.3868 27.3558C54.2095 27.152 54.074 26.9122 53.9804 26.6358C53.8862 26.3568 53.8394 26.053 53.8394 25.7238ZM54.3326 25.5859V25.7238C54.3326 25.9723 54.3658 26.2077 54.4323 26.4307C54.4988 26.6513 54.5955 26.8482 54.7223 27.0209C54.8498 27.1911 55.0074 27.3247 55.1952 27.4229C55.383 27.5204 55.6003 27.5689 55.846 27.5689C56.0898 27.5689 56.3041 27.5204 56.4888 27.4229C56.6772 27.3247 56.8348 27.1911 56.9616 27.0209C57.0891 26.8482 57.1839 26.6513 57.2479 26.4307C57.3138 26.2077 57.3471 25.9723 57.3471 25.7238V25.5859C57.3471 25.3405 57.3138 25.1075 57.2479 24.887C57.1839 24.667 57.0872 24.4701 56.9573 24.2974C56.8305 24.1241 56.6729 23.9874 56.4845 23.8868C56.2967 23.7867 56.0812 23.7364 55.838 23.7364C55.5948 23.7364 55.3787 23.7867 55.1909 23.8868C55.0056 23.9874 54.8479 24.1241 54.7186 24.2974C54.5912 24.4701 54.4945 24.667 54.428 24.887C54.3646 25.1075 54.3326 25.3405 54.3326 25.5859ZM59.3666 24.1384V27.9161H58.8734V23.3891H59.3543L59.3666 24.1384ZM60.9545 23.3556L60.9422 23.8159C60.8874 23.8079 60.8332 23.8004 60.7808 23.7948C60.7279 23.7892 60.6712 23.7867 60.6109 23.7867C60.3948 23.7867 60.2058 23.8271 60.0426 23.9079C59.8825 23.9862 59.7465 24.0961 59.6362 24.2384C59.5254 24.3782 59.4411 24.5428 59.3832 24.7323C59.3253 24.9193 59.2921 25.1199 59.2835 25.3349L59.1012 25.4057C59.1012 25.11 59.132 24.8354 59.1923 24.5813C59.2533 24.3278 59.3462 24.1061 59.47 23.9166C59.5975 23.724 59.7563 23.5749 59.9472 23.4687C60.1405 23.3599 60.3671 23.3053 60.6269 23.3053C60.6909 23.3053 60.7531 23.3109 60.8141 23.322C60.8775 23.3307 60.9243 23.3419 60.9545 23.3556ZM64.2971 27.1048V24.7702C64.2971 24.5552 64.2528 24.3695 64.1641 24.2135C64.0761 24.057 63.9455 23.9371 63.7744 23.8538C63.6032 23.77 63.3914 23.7283 63.1402 23.7283C62.9081 23.7283 62.7006 23.77 62.5183 23.8538C62.3386 23.9346 62.1963 24.0446 62.0911 24.1843C61.9888 24.321 61.9377 24.4726 61.9377 24.6403L61.4403 24.636C61.4403 24.4658 61.4815 24.3011 61.5646 24.1421C61.6471 23.983 61.7647 23.8408 61.9168 23.7153C62.0689 23.5898 62.2499 23.491 62.4599 23.4183C62.6729 23.3432 62.9062 23.3053 63.1605 23.3053C63.4813 23.3053 63.7633 23.3599 64.0065 23.4687C64.2528 23.5774 64.4449 23.7408 64.5828 23.9582C64.7213 24.1756 64.7903 24.449 64.7903 24.7782V26.9663C64.7903 27.1228 64.8014 27.2843 64.8235 27.4521C64.8482 27.6192 64.8833 27.7571 64.9276 27.8658V27.9161H64.4006C64.3673 27.8155 64.3414 27.6906 64.3217 27.5397C64.3051 27.3862 64.2971 27.2415 64.2971 27.1048ZM64.4129 25.2802L64.4215 25.6654H63.4468C63.1925 25.6654 62.9647 25.689 62.7628 25.7362C62.5639 25.7809 62.3952 25.848 62.2567 25.9375C62.1188 26.0238 62.0122 26.1282 61.9377 26.2512C61.8657 26.3736 61.83 26.5134 61.83 26.6693C61.83 26.8314 61.87 26.9793 61.9501 27.1129C62.0332 27.2471 62.1489 27.3539 62.2985 27.4353C62.4506 27.5129 62.6298 27.5521 62.8373 27.5521C63.1137 27.5521 63.3569 27.5005 63.5669 27.3974C63.7799 27.2943 63.9554 27.1588 64.0939 26.9917C64.2318 26.824 64.3248 26.6413 64.3716 26.4432L64.5871 26.732C64.5514 26.8718 64.4849 27.0153 64.3882 27.1632C64.294 27.3079 64.1715 27.4446 64.0194 27.5732C63.8673 27.6987 63.6876 27.8018 63.4801 27.8826C63.2757 27.9609 63.0435 28 62.7837 28C62.4906 28 62.2345 27.9441 62.0166 27.8323C61.8004 27.7211 61.6317 27.5689 61.5104 27.3763C61.3916 27.1812 61.3319 26.9607 61.3319 26.7153C61.3319 26.4922 61.3793 26.2928 61.4729 26.117C61.5671 25.9387 61.7025 25.7878 61.8793 25.6654C62.059 25.5399 62.2745 25.4448 62.5264 25.3808C62.7806 25.3137 63.0657 25.2802 63.3803 25.2802H64.4129ZM70.3636 25.4349H68.6427V24.9957H70.3636C70.7226 24.9957 71.0144 24.9373 71.2385 24.8205C71.4651 24.7 71.6295 24.5384 71.7317 24.3347C71.837 24.1315 71.8893 23.9023 71.8893 23.6488C71.8893 23.4003 71.837 23.1717 71.7317 22.9623C71.6295 22.7536 71.4651 22.5859 71.2385 22.4604C71.0144 22.3324 70.7226 22.2678 70.3636 22.2678H68.8207V27.9161H68.3109V21.8242H70.3636C70.8057 21.8242 71.1776 21.9013 71.4787 22.0547C71.7828 22.2082 72.0125 22.4212 72.167 22.6946C72.3222 22.9679 72.3991 23.2835 72.3991 23.6401C72.3991 24.0141 72.3222 24.3365 72.167 24.6068C72.0125 24.8745 71.784 25.0795 71.483 25.2218C71.1819 25.3641 70.8088 25.4349 70.3636 25.4349ZM76.1063 27.1048V24.7702C76.1063 24.5552 76.0626 24.3695 75.9739 24.2135C75.8852 24.057 75.7553 23.9371 75.5842 23.8538C75.4124 23.77 75.2012 23.7283 74.9494 23.7283C74.7172 23.7283 74.5098 23.77 74.3275 23.8538C74.1477 23.9346 74.0055 24.0446 73.9008 24.1843C73.798 24.321 73.7469 24.4726 73.7469 24.6403L73.2494 24.636C73.2494 24.4658 73.2907 24.3011 73.3738 24.1421C73.4569 23.983 73.5745 23.8408 73.7266 23.7153C73.878 23.5898 74.0597 23.491 74.2696 23.4183C74.4827 23.3432 74.716 23.3053 74.9703 23.3053C75.2911 23.3053 75.5731 23.3599 75.8163 23.4687C76.0626 23.5774 76.2547 23.7408 76.3926 23.9582C76.5311 24.1756 76.6001 24.449 76.6001 24.7782V26.9663C76.6001 27.1228 76.6111 27.2843 76.6333 27.4521C76.6579 27.6192 76.6924 27.7571 76.7367 27.8658V27.9161H76.2103C76.1771 27.8155 76.1506 27.6906 76.1315 27.5397C76.1149 27.3862 76.1063 27.2415 76.1063 27.1048ZM76.2226 25.2802L76.2306 25.6654H75.2566C75.0023 25.6654 74.7739 25.689 74.5719 25.7362C74.3731 25.7809 74.2044 25.848 74.0665 25.9375C73.9279 26.0238 73.8214 26.1282 73.7469 26.2512C73.6749 26.3736 73.6392 26.5134 73.6392 26.6693C73.6392 26.8314 73.6792 26.9793 73.7598 27.1129C73.8423 27.2471 73.9587 27.3539 74.1077 27.4353C74.2598 27.5129 74.4396 27.5521 74.6471 27.5521C74.9235 27.5521 75.1667 27.5005 75.3767 27.3974C75.5897 27.2943 75.7652 27.1588 75.9037 26.9917C76.0416 26.824 76.134 26.6413 76.1814 26.4432L76.3969 26.732C76.3606 26.8718 76.2947 27.0153 76.1974 27.1632C76.1038 27.3079 75.9807 27.4446 75.8286 27.5732C75.6765 27.6987 75.4967 27.8018 75.2898 27.8826C75.0848 27.9609 74.8527 28 74.5929 28C74.2998 28 74.0443 27.9441 73.8257 27.8323C73.6102 27.7211 73.4415 27.5689 73.3202 27.3763C73.2008 27.1812 73.1417 26.9607 73.1417 26.7153C73.1417 26.4922 73.1885 26.2928 73.2827 26.117C73.3769 25.9387 73.5123 25.7878 73.689 25.6654C73.8688 25.5399 74.0843 25.4448 74.3361 25.3808C74.5904 25.3137 74.8749 25.2802 75.1901 25.2802H76.2226ZM78.4244 24.1384V27.9161H77.9312V23.3891H78.4121L78.4244 24.1384ZM80.0129 23.3556L80 23.8159C79.9452 23.8079 79.891 23.8004 79.8386 23.7948C79.7857 23.7892 79.7291 23.7867 79.6681 23.7867C79.4526 23.7867 79.2636 23.8271 79.1004 23.9079C78.9397 23.9862 78.8049 24.0961 78.6941 24.2384C78.5832 24.3782 78.4989 24.5428 78.441 24.7323C78.3831 24.9193 78.3499 25.1199 78.3413 25.3349L78.159 25.4057C78.159 25.11 78.1892 24.8354 78.2501 24.5813C78.3111 24.3278 78.4035 24.1061 78.5284 23.9166C78.6553 23.724 78.8141 23.5749 79.005 23.4687C79.1983 23.3599 79.4255 23.3053 79.6853 23.3053C79.7488 23.3053 79.8109 23.3109 79.8713 23.322C79.9353 23.3307 79.9821 23.3419 80.0129 23.3556ZM82.3636 27.5689C82.5736 27.5689 82.77 27.5297 82.9529 27.4521C83.1376 27.3707 83.2897 27.2526 83.4085 27.0961C83.5304 26.9371 83.5994 26.7432 83.616 26.5146H84.0888C84.0747 26.8016 83.9879 27.0588 83.8278 27.2843C83.6702 27.5074 83.4627 27.6832 83.2053 27.8118C82.951 27.9373 82.6709 28 82.3636 28C82.0515 28 81.775 27.9428 81.5343 27.8285C81.2966 27.7142 81.0978 27.5552 80.9371 27.3514C80.777 27.1452 80.6551 26.9054 80.5726 26.632C80.4919 26.3556 80.4519 26.0586 80.4519 25.7405V25.5647C80.4519 25.2467 80.4919 24.9509 80.5726 24.6776C80.6551 24.4018 80.777 24.162 80.9371 23.9582C81.0978 23.7519 81.2966 23.5917 81.5343 23.4774C81.772 23.3624 82.0472 23.3053 82.3593 23.3053C82.6801 23.3053 82.9677 23.3711 83.2219 23.5022C83.4793 23.6333 83.6837 23.819 83.8358 24.0588C83.9903 24.2986 84.0747 24.5832 84.0888 24.9124H83.616C83.6018 24.6695 83.5384 24.4602 83.4251 24.2844C83.3118 24.1085 83.1628 23.9737 82.9775 23.8787C82.7922 23.7836 82.5865 23.7364 82.3593 23.7364C82.105 23.7364 81.8883 23.7867 81.7085 23.8868C81.5287 23.9849 81.3822 24.1203 81.2689 24.293C81.1587 24.4633 81.0768 24.6583 81.0245 24.8789C80.9715 25.0963 80.9457 25.3249 80.9457 25.5647V25.7405C80.9457 25.9834 80.9703 26.2146 81.0202 26.4351C81.0725 26.6525 81.1544 26.8464 81.2652 27.0166C81.3785 27.1868 81.5251 27.3222 81.7042 27.4229C81.8871 27.5204 82.1069 27.5689 82.3636 27.5689ZM86.8213 28C86.5283 28 86.2586 27.9453 86.0129 27.8366C85.7697 27.7279 85.5567 27.5744 85.3744 27.3763C85.1946 27.1781 85.0549 26.9445 84.9551 26.6736C84.8585 26.4003 84.8104 26.1021 84.8104 25.7784V25.5983C84.8104 25.2498 84.8615 24.9348 84.9638 24.6527C85.066 24.3707 85.207 24.1297 85.3867 23.929C85.5665 23.7283 85.7709 23.5749 86.0006 23.4687C86.2327 23.3599 86.4759 23.3053 86.7302 23.3053C87.0147 23.3053 87.2677 23.3568 87.4887 23.4606C87.7098 23.5606 87.8951 23.7047 88.0447 23.8911C88.1968 24.0756 88.3113 24.2943 88.3889 24.5484C88.4665 24.7994 88.5047 25.0771 88.5047 25.3808V25.6859H85.1091V25.2597H88.0115V25.2007C88.0059 24.9472 87.9548 24.7099 87.8582 24.4894C87.764 24.2663 87.623 24.0849 87.4352 23.9458C87.2468 23.806 87.0122 23.7364 86.7302 23.7364C86.5202 23.7364 86.3263 23.7811 86.1496 23.8706C85.9753 23.9594 85.8245 24.088 85.6977 24.2552C85.5733 24.4198 85.4766 24.6167 85.4077 24.8453C85.3412 25.0715 85.3079 25.3218 85.3079 25.5983V25.7784C85.3079 26.0294 85.3436 26.2636 85.4157 26.4811C85.4902 26.696 85.5955 26.8855 85.7309 27.0501C85.8688 27.2147 86.032 27.3427 86.2198 27.4353C86.4082 27.5272 86.6157 27.5732 86.8423 27.5732C87.1076 27.5732 87.3422 27.5241 87.5466 27.4266C87.7516 27.3266 87.9357 27.1688 88.0983 26.9538L88.4098 27.1967C88.3126 27.3415 88.1913 27.4757 88.0447 27.5981C87.9007 27.7211 87.7282 27.8186 87.5263 27.8913C87.3243 27.9633 87.0898 28 86.8213 28ZM90.0353 23.3891V27.9161H89.5415V23.3891H90.0353ZM89.4547 22.0796C89.4547 21.9845 89.4836 21.9056 89.5415 21.841C89.6024 21.7739 89.6856 21.741 89.7902 21.741C89.8955 21.741 89.978 21.7739 90.039 21.841C90.1024 21.9056 90.1344 21.9845 90.1344 22.0796C90.1344 22.1715 90.1024 22.251 90.039 22.3181C89.978 22.3821 89.8955 22.4144 89.7902 22.4144C89.6856 22.4144 89.6024 22.3821 89.5415 22.3181C89.4836 22.251 89.4547 22.1715 89.4547 22.0796ZM91.8842 24.1384V27.9161H91.3911V23.3891H91.8719L91.8842 24.1384ZM93.4727 23.3556L93.4598 23.8159C93.405 23.8079 93.3508 23.8004 93.2985 23.7948C93.2456 23.7892 93.1889 23.7867 93.1286 23.7867C92.9125 23.7867 92.7234 23.8271 92.5603 23.9079C92.4002 23.9862 92.2641 24.0961 92.1539 24.2384C92.0431 24.3782 91.9587 24.5428 91.9009 24.7323C91.843 24.9193 91.8097 25.1199 91.8011 25.3349L91.6189 25.4057C91.6189 25.11 91.649 24.8354 91.71 24.5813C91.771 24.3278 91.8633 24.1061 91.9883 23.9166C92.1151 23.724 92.274 23.5749 92.4649 23.4687C92.6582 23.3599 92.8854 23.3053 93.1452 23.3053C93.2086 23.3053 93.2708 23.3109 93.3311 23.322C93.3952 23.3307 93.442 23.3419 93.4727 23.3556ZM96.8148 27.1048V24.7702C96.8148 24.5552 96.7704 24.3695 96.6818 24.2135C96.5937 24.057 96.4638 23.9371 96.2921 23.8538C96.1209 23.77 95.9091 23.7283 95.6579 23.7283C95.4258 23.7283 95.2183 23.77 95.036 23.8538C94.8562 23.9346 94.714 24.0446 94.6087 24.1843C94.5065 24.321 94.4554 24.4726 94.4554 24.6403L93.9573 24.636C93.9573 24.4658 93.9992 24.3011 94.0823 24.1421C94.1648 23.983 94.2824 23.8408 94.4345 23.7153C94.5866 23.5898 94.7676 23.491 94.9775 23.4183C95.1906 23.3432 95.4239 23.3053 95.6782 23.3053C95.999 23.3053 96.281 23.3599 96.5242 23.4687C96.7705 23.5774 96.9625 23.7408 97.1005 23.9582C97.239 24.1756 97.308 24.449 97.308 24.7782V26.9663C97.308 27.1228 97.319 27.2843 97.3412 27.4521C97.3658 27.6192 97.4009 27.7571 97.4453 27.8658V27.9161H96.9182C96.885 27.8155 96.8591 27.6906 96.8394 27.5397C96.8228 27.3862 96.8148 27.2415 96.8148 27.1048ZM96.9305 25.2802L96.9392 25.6654H95.9645C95.7102 25.6654 95.4824 25.689 95.2804 25.7362C95.0816 25.7809 94.9129 25.848 94.7743 25.9375C94.6364 26.0238 94.5299 26.1282 94.4554 26.2512C94.3834 26.3736 94.3477 26.5134 94.3477 26.6693C94.3477 26.8314 94.3877 26.9793 94.4677 27.1129C94.5508 27.2471 94.6666 27.3539 94.8162 27.4353C94.9683 27.5129 95.1475 27.5521 95.3549 27.5521C95.6314 27.5521 95.8746 27.5005 96.0852 27.3974C96.2976 27.2943 96.4731 27.1588 96.6116 26.9917C96.7495 26.824 96.8425 26.6413 96.8893 26.4432L97.1048 26.732C97.0691 26.8718 97.0026 27.0153 96.9059 27.1632C96.8117 27.3079 96.6886 27.4446 96.5365 27.5732C96.385 27.6987 96.2052 27.8018 95.9977 27.8826C95.7933 27.9609 95.5612 28 95.3014 28C95.0083 28 94.7522 27.9441 94.5342 27.8323C94.3181 27.7211 94.15 27.5689 94.0281 27.3763C93.9093 27.1812 93.8496 26.9607 93.8496 26.7153C93.8496 26.4922 93.897 26.2928 93.9906 26.117C94.0848 25.9387 94.2202 25.7878 94.3969 25.6654C94.5767 25.5399 94.7922 25.4448 95.044 25.3808C95.2983 25.3137 95.5828 25.2802 95.898 25.2802H96.9305Z" fill="white"/>
</svg>
