<svg width="240" height="68" viewBox="0 0 240 68" fill="none" xmlns="http://www.w3.org/2000/svg">
<path d="M0.641154 3.64914L9.02508 1.27044V33.7143H0.641154V3.64914ZM34.9372 33.7143H27.2732V21.8958C27.2732 18.9442 27.3962 15.5291 23.6602 15.5291C20.7251 15.5291 19.2928 17.7128 19.2928 20.6435V33.7143H11.6302V11.0207L19.0678 8.91046V13.2044C19.8582 11.9296 20.9545 10.8782 22.2564 10.1523C23.5567 9.4249 25.0205 9.04544 26.5068 9.04844C32.635 9.04844 34.9372 12.5835 34.9372 18.3322V33.7143ZM42.2833 33.7143L34.4858 9.74135H42.4633L46.7887 25.7503L51.1637 9.74135H58.9612L51.1157 33.7143H42.2833ZM74.2592 18.3233C74.0912 17.2374 73.5528 16.2445 72.7384 15.5186C71.9225 14.7912 70.8816 14.3773 69.7958 14.3488C66.3567 14.3488 64.6499 17.6093 64.7534 21.0214L74.2592 18.3233ZM70.5277 29.1549C72.167 29.1594 73.7868 28.7829 75.2596 28.0555C76.7339 27.3281 78.0222 26.2677 79.0286 24.9569L81.0863 30.6772C77.9352 33.1203 74.0717 34.4342 70.1032 34.4147C62.6822 34.4147 57.2109 29.9198 57.2109 21.6573C57.1899 19.9805 57.5033 18.3173 58.1318 16.7665C58.7617 15.2157 59.6931 13.8088 60.8719 12.6315C62.0493 11.4541 63.4516 10.5288 64.9904 9.91233C66.5307 9.29591 68.1775 9.00045 69.8333 9.04394C77.1373 9.04394 81.6667 13.9978 81.6022 21.5073L65.3803 26.1162C66.2157 28.2865 68.3095 29.1549 70.5262 29.1549H70.5277ZM96.4923 18.8932C98.3011 19.0852 100.057 19.6236 101.67 20.477C102.574 21.0514 103.322 21.8433 103.85 22.7837C104.377 23.7226 104.666 24.7799 104.69 25.8598C104.69 32.2295 98.841 34.4042 93.2797 34.4042C88.2899 34.4042 82.8981 32.6899 82.0087 27.1736L88.5719 25.3109C88.6573 26.4627 89.1838 27.5336 90.0417 28.2955C90.8996 29.0574 92.0184 29.4473 93.1568 29.3813C94.8605 29.3813 97.0278 28.6359 97.0323 26.7837C97.0323 24.8909 94.6611 24.513 93.2917 24.186C92.3124 23.955 91.3225 23.7211 90.3086 23.5096C86.3566 22.6817 82.5351 21.4593 82.5351 16.39C82.5351 10.5917 88.6483 9.04544 93.2198 9.04544C97.5272 9.04544 103.178 10.4598 103.964 15.1647L97.2632 17.0679C96.9213 14.8902 95.465 14.0938 93.0878 14.0938C91.7979 14.0938 90.1991 14.5437 90.1991 15.9281C90.1991 17.4969 92.9528 18.1583 94.1781 18.4282C94.9295 18.5977 95.7049 18.7522 96.4923 18.8932ZM113.577 14.8212V25.7218C113.509 26.1747 113.602 26.6352 113.838 27.0251C114.073 27.4151 114.436 27.7075 114.865 27.8545C116.27 28.114 117.715 28.0585 119.097 27.6925L117.509 33.6918C116.383 33.8478 115.249 33.9317 114.112 33.9422C107.601 33.9542 105.908 32.003 105.908 25.4893V5.31692L113.572 3.1422V9.74285H119.1L117.731 14.8212H113.577ZM120.173 11.0822L127.835 8.90746V33.7143H120.173V11.0822ZM146.074 21.8913C146.074 18.9397 146.197 15.5231 142.461 15.5231C139.525 15.5231 138.097 17.7068 138.097 20.6375V33.7143H130.433V11.0207L137.871 8.91046V13.2044C138.659 11.9296 139.757 10.8782 141.058 10.1523C142.359 9.4249 143.823 9.04544 145.31 9.04844C151.436 9.04844 153.738 12.5835 153.738 18.3322V33.7143H146.074V21.8913ZM167.555 15.0477C164.18 15.0402 163.091 18.0893 163.091 21.0529C163.091 23.8935 164.369 26.6952 167.508 26.6877C170.752 26.6802 172.138 24.117 172.153 21.0964C172.167 18.0773 170.979 15.0612 167.556 15.0537L167.555 15.0477ZM167.211 42.1312C162.649 42.1312 157.824 40.8759 156.267 35.751L163.151 33.7938C163.411 34.7596 163.987 35.6085 164.783 36.1995C165.581 36.7919 166.553 37.0933 167.541 37.0543C170.712 37.0543 172.02 34.4582 172.02 31.4436V29.0409C171.369 30.1507 170.445 31.0701 169.339 31.712C168.233 32.3524 166.982 32.6929 165.707 32.6989C158.611 32.6764 155.429 27.5366 155.429 20.7814C155.429 14.4013 159.081 9.04844 165.707 9.04844C166.998 9.01845 168.275 9.34541 169.395 9.99782C170.515 10.6487 171.439 11.5981 172.063 12.744V10.9952L179.412 8.91046V30.8061C179.412 38.4342 173.99 42.1372 167.211 42.1372V42.1312ZM182.893 30.4822H185.369V33.7128H182.893V30.4822ZM194.431 32.5549C196.666 32.5474 198.388 30.5152 198.635 28.075L200.411 28.5804C199.795 31.913 197.701 34.1702 194.43 34.1702C189.956 34.1597 187.453 30.3322 187.453 25.8493C187.453 21.3679 189.938 17.5568 194.43 17.5299C195.838 17.4354 197.228 17.8898 198.319 18.7972C199.409 19.7061 200.117 21.0004 200.297 22.4177L198.515 22.9232C198.026 20.6345 196.621 19.1361 194.43 19.1451C191 19.1391 189.309 22.5407 189.309 25.8538C189.309 29.1669 191.043 32.5549 194.431 32.5549ZM209.234 19.1466C205.825 19.1466 204.115 22.5407 204.115 25.8538C204.115 29.1684 205.845 32.5519 209.234 32.5624C212.625 32.5729 214.353 29.1579 214.353 25.8538C214.353 22.5512 212.645 19.1466 209.236 19.1466H209.234ZM209.234 34.1717C204.762 34.1612 202.259 30.3337 202.259 25.8508C202.259 21.3679 204.732 17.5299 209.234 17.5299C213.738 17.5299 216.21 21.3589 216.21 25.8508C216.21 30.3427 213.708 34.1807 209.236 34.1717H209.234ZM237.476 33.7143V23.1376C237.483 20.6045 236.526 19.1406 233.989 19.1451C230.833 19.1556 229.96 22.0818 229.971 24.8129V33.7128H228.111V23.0461C228.133 20.9239 227.277 19.1556 225.038 19.1466C221.792 19.1406 220.613 21.9993 220.606 24.9374V33.7143H218.748V18.2288L220.457 17.7443V20.8189C220.867 19.8336 221.557 18.9937 222.442 18.4072C223.325 17.8223 224.363 17.5179 225.419 17.5329C226.368 17.4804 227.306 17.7563 228.079 18.3143C228.852 18.8737 229.414 19.6821 229.674 20.6075C230.074 19.6806 230.737 18.8947 231.578 18.3487C232.418 17.8013 233.401 17.5179 234.4 17.5329C237.773 17.5254 239.332 19.5036 239.332 23.0491V33.7143H237.476Z" fill="white"/>
<path fill-rule="evenodd" clip-rule="evenodd" d="M120.267 2.31731L127.819 0.201084V6.59326L120.267 8.70949V2.31731Z" fill="#FFA500"/>
<path d="M85.9607 63.01H87.204C87.102 64.0014 86.8291 64.8563 86.3851 65.5762C85.9412 66.2901 85.3353 66.839 84.5674 67.223C83.7995 67.6069 82.8741 67.7989 81.7897 67.7989C80.9543 67.7989 80.1969 67.6399 79.516 67.3235C78.8426 67.007 78.2637 66.5601 77.7792 65.9811C77.2948 65.3947 76.9198 64.6943 76.6574 63.8799C76.3949 63.0655 76.2644 62.1596 76.2644 61.1623V59.3235C76.2644 58.3276 76.3949 57.4247 76.6574 56.6163C76.9198 55.8019 77.2978 55.1015 77.7897 54.5166C78.2802 53.9302 78.8696 53.4787 79.5565 53.1623C80.2434 52.8458 81.0188 52.6883 81.8797 52.6883C82.9236 52.6883 83.8265 52.8803 84.5869 53.2628C85.3473 53.6407 85.9472 54.1866 86.3851 54.9006C86.8291 55.6145 87.102 56.4754 87.204 57.4862H85.9607C85.8662 56.6913 85.6577 56.0179 85.3353 55.466C85.0113 54.9126 84.5629 54.4926 83.9914 54.2031C83.426 53.9062 82.7226 53.7592 81.8797 53.7592C81.1928 53.7592 80.5809 53.8897 80.0424 54.1521C79.5025 54.4146 79.0451 54.7926 78.6686 55.283C78.2907 55.7689 78.0012 56.3509 77.7987 57.0318C77.6038 57.7112 77.5063 58.4686 77.5063 59.304V61.1623C77.5063 61.9706 77.6008 62.7146 77.7897 63.394C77.9787 64.0749 78.2547 64.6643 78.6176 65.1622C78.9881 65.6602 79.4395 66.0471 79.9704 66.3231C80.5029 66.6006 81.1088 66.7385 81.7897 66.7385C82.6581 66.7385 83.3825 66.6006 83.9614 66.3231C84.5464 66.0411 85.0008 65.6242 85.3248 65.0707C85.6472 64.5188 85.8602 63.8319 85.9607 63.01ZM89.2842 62.3036V61.9706C89.2842 61.1757 89.3982 60.4423 89.6277 59.7689C89.8557 59.0955 90.1826 58.5121 90.6071 58.0217C91.039 57.5297 91.5535 57.1488 92.1519 56.8803C92.7518 56.6028 93.4177 56.4649 94.1526 56.4649C94.8935 56.4649 95.5639 56.6028 96.1624 56.8803C96.7623 57.1488 97.2767 57.5297 97.7087 58.0217C98.1391 58.5121 98.4691 59.0955 98.6985 59.7689C98.9265 60.4423 99.042 61.1757 99.042 61.9706V62.3036C99.042 63.0985 98.9265 63.8319 98.6985 64.5053C98.4691 65.1727 98.1391 65.7517 97.7087 66.2436C97.2842 66.734 96.7728 67.118 96.1729 67.394C95.5729 67.6639 94.907 67.7989 94.1721 67.7989C93.4327 67.7989 92.7623 67.6639 92.1624 67.394C91.5639 67.118 91.048 66.734 90.6176 66.2436C90.1856 65.7517 89.8557 65.1727 89.6277 64.5053C89.3982 63.8319 89.2842 63.0985 89.2842 62.3036ZM90.4856 61.9706V62.3036C90.4856 62.9035 90.5666 63.472 90.7286 64.0104C90.8905 64.5428 91.126 65.0183 91.435 65.4352C91.7454 65.8462 92.1294 66.1686 92.5868 66.4056C93.0443 66.641 93.5737 66.758 94.1721 66.758C94.766 66.758 95.288 66.641 95.7379 66.4056C96.1969 66.1686 96.5808 65.8462 96.8898 65.4352C97.2002 65.0183 97.4327 64.5428 97.5872 64.0104C97.7492 63.472 97.8302 62.9035 97.8302 62.3036V61.9706C97.8302 61.3782 97.7492 60.8158 97.5872 60.2834C97.4327 59.7524 97.1972 59.277 96.8793 58.86C96.5703 58.4416 96.1864 58.1116 95.7289 57.8687C95.27 57.6272 94.745 57.5057 94.1526 57.5057C93.5602 57.5057 93.0353 57.6272 92.5778 57.8687C92.1249 58.1116 91.7424 58.4416 91.426 58.86C91.1155 59.277 90.88 59.7524 90.7181 60.2834C90.5636 60.8158 90.4856 61.3782 90.4856 61.9706ZM102.748 58.4761V67.5964H101.547V56.6673H102.718L102.748 58.4761ZM106.618 56.5863L106.586 57.6977C106.453 57.6782 106.321 57.6602 106.193 57.6467C106.066 57.6332 105.928 57.6272 105.779 57.6272C105.254 57.6272 104.792 57.7247 104.395 57.9197C104.005 58.1086 103.675 58.3741 103.405 58.7176C103.135 59.055 102.931 59.4525 102.789 59.9099C102.648 60.3614 102.567 60.8458 102.547 61.3647L102.102 61.5357C102.102 60.8218 102.177 60.1589 102.325 59.5455C102.472 58.9335 102.699 58.3981 103.001 57.9407C103.31 57.4757 103.697 57.1158 104.162 56.8593C104.635 56.5968 105.187 56.4649 105.82 56.4649C105.974 56.4649 106.126 56.4784 106.274 56.5053C106.429 56.5263 106.543 56.5533 106.618 56.5863ZM109.718 58.4761V67.5964H108.516V56.6673H109.688L109.718 58.4761ZM113.587 56.5863L113.557 57.6977C113.422 57.6782 113.29 57.6602 113.163 57.6467C113.035 57.6332 112.896 57.6272 112.749 57.6272C112.222 57.6272 111.762 57.7247 111.364 57.9197C110.974 58.1086 110.645 58.3741 110.375 58.7176C110.106 59.055 109.901 59.4525 109.758 59.9099C109.617 60.3614 109.536 60.8458 109.517 61.3647L109.071 61.5357C109.071 60.8218 109.146 60.1589 109.293 59.5455C109.442 58.9335 109.668 58.3981 109.971 57.9407C110.28 57.4757 110.667 57.1158 111.132 56.8593C111.603 56.5968 112.156 56.4649 112.789 56.4649C112.944 56.4649 113.095 56.4784 113.244 56.5053C113.398 56.5263 113.512 56.5533 113.587 56.5863ZM119.505 67.7989C118.791 67.7989 118.135 67.6669 117.536 67.4044C116.944 67.142 116.425 66.7715 115.981 66.2931C115.543 65.8147 115.202 65.2507 114.961 64.5968C114.725 63.9369 114.607 63.217 114.607 62.4356V62.0006C114.607 61.1592 114.731 60.3988 114.98 59.7179C115.229 59.037 115.573 58.4551 116.011 57.9707C116.449 57.4862 116.947 57.1158 117.506 56.8593C118.072 56.5968 118.664 56.4649 119.283 56.4649C119.978 56.4649 120.593 56.5893 121.133 56.8398C121.671 57.0813 122.123 57.4292 122.485 57.8792C122.856 58.3246 123.135 58.8525 123.324 59.466C123.513 60.0719 123.607 60.7423 123.607 61.4757V62.2121H115.334V61.1832H122.404V61.0408C122.391 60.4288 122.267 59.8559 122.031 59.3235C121.802 58.7851 121.458 58.3471 121.001 58.0112C120.543 57.6737 119.97 57.5057 119.283 57.5057C118.772 57.5057 118.301 57.6137 117.869 57.8297C117.445 58.0442 117.079 58.3546 116.768 58.7581C116.465 59.1555 116.23 59.6309 116.062 60.1829C115.9 60.7288 115.819 61.3332 115.819 62.0006V62.4356C115.819 63.0415 115.906 63.6069 116.081 64.1319C116.264 64.6508 116.519 65.1082 116.849 65.5057C117.187 65.9031 117.583 66.2121 118.042 66.4356C118.499 66.6575 119.004 66.7685 119.556 66.7685C120.203 66.7685 120.776 66.65 121.274 66.4146C121.772 66.1731 122.22 65.7922 122.616 65.2732L123.375 65.8596C123.138 66.2091 122.842 66.5331 122.485 66.8285C122.136 67.1255 121.715 67.361 121.223 67.5364C120.731 67.7104 120.159 67.7989 119.505 67.7989ZM130.122 56.6673V57.6572H124.647V56.6673H130.122ZM126.658 53.8597H127.859V64.9403C127.859 65.4457 127.927 65.8251 128.062 66.0816C128.195 66.3366 128.371 66.5091 128.587 66.5961C128.803 66.6845 129.034 66.728 129.283 66.728C129.466 66.728 129.64 66.7175 129.809 66.698C129.977 66.671 130.129 66.6441 130.263 66.6171L130.313 67.6369C130.166 67.6849 129.974 67.7209 129.739 67.7479C129.502 67.7824 129.266 67.7989 129.031 67.7989C128.566 67.7989 128.156 67.7149 127.799 67.5469C127.442 67.3715 127.162 67.0745 126.959 66.6575C126.758 66.2331 126.658 65.6572 126.658 64.9298V53.8597ZM131.789 62.3036V61.9706C131.789 61.1757 131.903 60.4423 132.132 59.7689C132.36 59.0955 132.687 58.5121 133.112 58.0217C133.542 57.5297 134.058 57.1488 134.656 56.8803C135.256 56.6028 135.922 56.4649 136.657 56.4649C137.398 56.4649 138.068 56.6028 138.667 56.8803C139.267 57.1488 139.781 57.5297 140.213 58.0217C140.644 58.5121 140.974 59.0955 141.203 59.7689C141.431 60.4423 141.545 61.1757 141.545 61.9706V62.3036C141.545 63.0985 141.431 63.8319 141.203 64.5053C140.974 65.1727 140.644 65.7517 140.213 66.2436C139.789 66.734 139.276 67.118 138.677 67.394C138.077 67.6639 137.412 67.7989 136.677 67.7989C135.936 67.7989 135.267 67.6639 134.667 67.394C134.068 67.118 133.553 66.734 133.122 66.2436C132.69 65.7517 132.36 65.1727 132.132 64.5053C131.903 63.8319 131.789 63.0985 131.789 62.3036ZM132.99 61.9706V62.3036C132.99 62.9035 133.071 63.472 133.233 64.0104C133.395 64.5428 133.631 65.0183 133.94 65.4352C134.25 65.8462 134.634 66.1686 135.091 66.4056C135.549 66.641 136.078 66.758 136.677 66.758C137.271 66.758 137.793 66.641 138.242 66.4056C138.701 66.1686 139.085 65.8462 139.394 65.4352C139.705 65.0183 139.936 64.5428 140.092 64.0104C140.252 63.472 140.333 62.9035 140.333 62.3036V61.9706C140.333 61.3782 140.252 60.8158 140.092 60.2834C139.936 59.7524 139.7 59.277 139.384 58.86C139.075 58.4416 138.691 58.1116 138.232 57.8687C137.775 57.6272 137.25 57.5057 136.657 57.5057C136.065 57.5057 135.538 57.6272 135.081 57.8687C134.629 58.1116 134.245 58.4416 133.931 58.86C133.62 59.277 133.385 59.7524 133.223 60.2834C133.068 60.8158 132.99 61.3782 132.99 61.9706ZM145.253 58.4761V67.5964H144.051V56.6673H145.223L145.253 58.4761ZM149.121 56.5863L149.091 57.6977C148.957 57.6782 148.825 57.6602 148.698 57.6467C148.569 57.6332 148.431 57.6272 148.284 57.6272C147.757 57.6272 147.297 57.7247 146.899 57.9197C146.509 58.1086 146.178 58.3741 145.909 58.7176C145.64 59.055 145.434 59.4525 145.293 59.9099C145.152 60.3614 145.071 60.8458 145.05 61.3647L144.606 61.5357C144.606 60.8218 144.681 60.1589 144.828 59.5455C144.977 58.9335 145.203 58.3981 145.505 57.9407C145.815 57.4757 146.202 57.1158 146.667 56.8593C147.138 56.5968 147.69 56.4649 148.323 56.4649C148.479 56.4649 148.63 56.4784 148.779 56.5053C148.933 56.5263 149.047 56.5533 149.121 56.5863ZM157.263 65.6377V60.0014C157.263 59.4825 157.155 59.034 156.939 58.6576C156.725 58.2796 156.407 57.9902 155.99 57.7892C155.573 57.5867 155.057 57.4862 154.445 57.4862C153.879 57.4862 153.374 57.5867 152.93 57.7892C152.492 57.9842 152.146 58.2496 151.889 58.5871C151.64 58.917 151.516 59.283 151.516 59.6879L150.304 59.6774C150.304 59.2665 150.404 58.869 150.607 58.4851C150.808 58.1011 151.094 57.7577 151.465 57.4547C151.835 57.1518 152.276 56.9133 152.788 56.7378C153.307 56.5563 153.875 56.4649 154.494 56.4649C155.276 56.4649 155.963 56.5968 156.555 56.8593C157.155 57.1218 157.623 57.5162 157.959 58.0412C158.296 58.5661 158.464 59.226 158.464 60.0209V65.3032C158.464 65.6812 158.491 66.0711 158.545 66.4761C158.605 66.8795 158.691 67.2125 158.799 67.4749V67.5964H157.515C157.434 67.3535 157.371 67.052 157.323 66.6875C157.283 66.3171 157.263 65.9676 157.263 65.6377ZM157.545 61.2327L157.566 62.1626H155.192C154.572 62.1626 154.017 62.2196 153.525 62.3336C153.041 62.4416 152.63 62.6036 152.293 62.8195C151.957 63.028 151.697 63.28 151.516 63.5769C151.34 63.8724 151.253 64.2099 151.253 64.5863C151.253 64.9778 151.351 65.3347 151.546 65.6572C151.748 65.9811 152.03 66.2391 152.395 66.4356C152.765 66.623 153.202 66.7175 153.707 66.7175C154.38 66.7175 154.973 66.5931 155.484 66.3441C156.003 66.0951 156.431 65.7682 156.768 65.3647C157.104 64.9598 157.331 64.5188 157.444 64.0404L157.969 64.7378C157.882 65.0752 157.72 65.4217 157.485 65.7787C157.256 66.1281 156.957 66.4581 156.587 66.7685C156.216 67.0715 155.778 67.3205 155.273 67.5154C154.775 67.7044 154.209 67.7989 153.576 67.7989C152.863 67.7989 152.239 67.6639 151.708 67.394C151.181 67.1255 150.77 66.758 150.475 66.2931C150.185 65.8222 150.04 65.2897 150.04 64.6973C150.04 64.1589 150.155 63.6774 150.383 63.253C150.613 62.8225 150.943 62.4581 151.373 62.1626C151.811 61.8597 152.336 61.6302 152.95 61.4757C153.569 61.3137 154.263 61.2327 155.03 61.2327H157.545ZM172.041 61.6062H167.849V60.5458H172.041C172.915 60.5458 173.626 60.4048 174.172 60.1229C174.724 59.8319 175.124 59.442 175.373 58.95C175.63 58.4596 175.757 57.9062 175.757 57.2942C175.757 56.6943 175.63 56.1424 175.373 55.637C175.124 55.133 174.724 54.7281 174.172 54.4251C173.626 54.1162 172.915 53.9602 172.041 53.9602H168.282V67.5964H167.04V52.8893H172.041C173.117 52.8893 174.023 53.0753 174.757 53.4457C175.498 53.8162 176.057 54.3306 176.434 54.9905C176.811 55.6505 176.999 56.4124 176.999 57.2733C176.999 58.1761 176.811 58.9545 176.434 59.6069C176.057 60.2534 175.501 60.7483 174.767 61.0918C174.034 61.4352 173.125 61.6062 172.041 61.6062ZM186.029 65.6377V60.0014C186.029 59.4825 185.923 59.034 185.707 58.6576C185.491 58.2796 185.174 57.9902 184.757 57.7892C184.339 57.5867 183.825 57.4862 183.211 57.4862C182.646 57.4862 182.14 57.5867 181.696 57.7892C181.258 57.9842 180.912 58.2496 180.657 58.5871C180.407 58.917 180.282 59.283 180.282 59.6879L179.07 59.6774C179.07 59.2665 179.171 58.869 179.373 58.4851C179.576 58.1011 179.862 57.7577 180.233 57.4547C180.602 57.1518 181.044 56.9133 181.555 56.7378C182.074 56.5563 182.643 56.4649 183.262 56.4649C184.044 56.4649 184.73 56.5968 185.323 56.8593C185.923 57.1218 186.391 57.5162 186.727 58.0412C187.064 58.5661 187.232 59.226 187.232 60.0209V65.3032C187.232 65.6812 187.259 66.0711 187.313 66.4761C187.373 66.8795 187.457 67.2125 187.565 67.4749V67.5964H186.283C186.202 67.3535 186.137 67.052 186.091 66.6875C186.05 66.3171 186.029 65.9676 186.029 65.6377ZM186.313 61.2327L186.332 62.1626H183.96C183.34 62.1626 182.784 62.2196 182.292 62.3336C181.807 62.4416 181.396 62.6036 181.06 62.8195C180.723 63.028 180.464 63.28 180.282 63.5769C180.107 63.8724 180.02 64.2099 180.02 64.5863C180.02 64.9778 180.117 65.3347 180.314 65.6572C180.515 65.9811 180.798 66.2391 181.161 66.4356C181.531 66.623 181.969 66.7175 182.475 66.7175C183.148 66.7175 183.741 66.5931 184.252 66.3441C184.771 66.0951 185.198 65.7682 185.536 65.3647C185.872 64.9598 186.097 64.5188 186.212 64.0404L186.737 64.7378C186.649 65.0752 186.488 65.4217 186.251 65.7787C186.023 66.1281 185.723 66.4581 185.353 66.7685C184.982 67.0715 184.545 67.3205 184.041 67.5154C183.541 67.7044 182.976 67.7989 182.343 67.7989C181.629 67.7989 181.006 67.6639 180.474 67.394C179.949 67.1255 179.538 66.758 179.243 66.2931C178.952 65.8222 178.808 65.2897 178.808 64.6973C178.808 64.1589 178.922 63.6774 179.151 63.253C179.381 62.8225 179.711 62.4581 180.141 62.1626C180.579 61.8597 181.104 61.6302 181.717 61.4757C182.337 61.3137 183.03 61.2327 183.798 61.2327H186.313ZM191.676 58.4761V67.5964H190.475V56.6673H191.646L191.676 58.4761ZM195.546 56.5863L195.514 57.6977C195.381 57.6782 195.249 57.6602 195.121 57.6467C194.992 57.6332 194.854 57.6272 194.706 57.6272C194.181 57.6272 193.72 57.7247 193.323 57.9197C192.931 58.1086 192.603 58.3741 192.333 58.7176C192.063 59.055 191.858 59.4525 191.717 59.9099C191.576 60.3614 191.495 60.8458 191.474 61.3647L191.03 61.5357C191.03 60.8218 191.103 60.1589 191.252 59.5455C191.4 58.9335 191.625 58.3981 191.93 57.9407C192.239 57.4757 192.625 57.1158 193.09 56.8593C193.561 56.5968 194.115 56.4649 194.748 56.4649C194.902 56.4649 195.054 56.4784 195.201 56.5053C195.357 56.5263 195.471 56.5533 195.546 56.5863ZM201.272 66.758C201.783 66.758 202.262 66.6635 202.707 66.4761C203.157 66.2796 203.528 65.9946 203.817 65.6167C204.114 65.2327 204.282 64.7648 204.322 64.2129H205.474C205.44 64.9058 205.228 65.5267 204.838 66.0711C204.454 66.6096 203.949 67.034 203.322 67.3445C202.703 67.6474 202.02 67.7989 201.272 67.7989C200.511 67.7989 199.838 67.6609 199.252 67.3849C198.673 67.109 198.188 66.725 197.797 66.2331C197.407 65.7352 197.11 65.1562 196.909 64.4963C196.712 63.8289 196.615 63.112 196.615 62.3441V61.9197C196.615 61.1517 196.712 60.4378 196.909 59.7779C197.11 59.112 197.407 58.5331 197.797 58.0412C198.188 57.5432 198.673 57.1563 199.252 56.8803C199.831 56.6028 200.501 56.4649 201.261 56.4649C202.043 56.4649 202.743 56.6238 203.363 56.9403C203.99 57.2568 204.487 57.7052 204.858 58.2841C205.234 58.863 205.44 59.55 205.474 60.3449H204.322C204.288 59.7584 204.133 59.253 203.858 58.8285C203.582 58.4041 203.219 58.0786 202.767 57.8492C202.316 57.6197 201.815 57.5057 201.261 57.5057C200.642 57.5057 200.114 57.6272 199.676 57.8687C199.238 58.1056 198.881 58.4326 198.605 58.8495C198.337 59.2605 198.137 59.7314 198.01 60.2639C197.881 60.7888 197.818 61.3407 197.818 61.9197V62.3441C197.818 62.9305 197.878 63.4884 197.999 64.0209C198.127 64.5458 198.326 65.0138 198.596 65.4247C198.872 65.8357 199.229 66.1626 199.666 66.4056C200.111 66.641 200.646 66.758 201.272 66.758ZM212.13 67.7989C211.417 67.7989 210.76 67.6669 210.161 67.4044C209.569 67.142 209.05 66.7715 208.606 66.2931C208.168 65.8147 207.828 65.2507 207.585 64.5968C207.349 63.9369 207.232 63.217 207.232 62.4356V62.0006C207.232 61.1592 207.357 60.3988 207.606 59.7179C207.855 59.037 208.198 58.4551 208.636 57.9707C209.074 57.4862 209.572 57.1158 210.131 56.8593C210.697 56.5968 211.289 56.4649 211.908 56.4649C212.601 56.4649 213.218 56.5893 213.756 56.8398C214.295 57.0813 214.746 57.4292 215.111 57.8792C215.481 58.3246 215.76 58.8525 215.949 59.466C216.138 60.0719 216.231 60.7423 216.231 61.4757V62.2121H207.96V61.1832H215.03V61.0408C215.016 60.4288 214.892 59.8559 214.656 59.3235C214.427 58.7851 214.083 58.3471 213.626 58.0112C213.167 57.6737 212.595 57.5057 211.908 57.5057C211.397 57.5057 210.925 57.6137 210.494 57.8297C210.07 58.0442 209.702 58.3546 209.393 58.7581C209.09 59.1555 208.855 59.6309 208.687 60.1829C208.525 60.7288 208.444 61.3332 208.444 62.0006V62.4356C208.444 63.0415 208.531 63.6069 208.706 64.1319C208.888 64.6508 209.144 65.1082 209.474 65.5057C209.81 65.9031 210.208 66.2121 210.665 66.4356C211.124 66.6575 211.63 66.7685 212.181 66.7685C212.828 66.7685 213.399 66.65 213.897 66.4146C214.397 66.1731 214.845 65.7922 215.241 65.2732L216 65.8596C215.763 66.2091 215.468 66.5331 215.111 66.8285C214.76 67.1255 214.34 67.361 213.848 67.5364C213.356 67.7104 212.784 67.7989 212.13 67.7989ZM219.959 56.6673V67.5964H218.757V56.6673H219.959ZM218.545 53.5057C218.545 53.2763 218.616 53.0858 218.757 52.9298C218.905 52.7678 219.108 52.6883 219.363 52.6883C219.619 52.6883 219.82 52.7678 219.968 52.9298C220.123 53.0858 220.201 53.2763 220.201 53.5057C220.201 53.7277 220.123 53.9197 219.968 54.0817C219.82 54.2361 219.619 54.3141 219.363 54.3141C219.108 54.3141 218.905 54.2361 218.757 54.0817C218.616 53.9197 218.545 53.7277 218.545 53.5057ZM224.463 58.4761V67.5964H223.262V56.6673H224.433L224.463 58.4761ZM228.333 56.5863L228.301 57.6977C228.168 57.6782 228.036 57.6602 227.908 57.6467C227.779 57.6332 227.641 57.6272 227.494 57.6272C226.968 57.6272 226.508 57.7247 226.11 57.9197C225.72 58.1086 225.389 58.3741 225.12 58.7176C224.85 59.055 224.645 59.4525 224.504 59.9099C224.363 60.3614 224.282 60.8458 224.261 61.3647L223.817 61.5357C223.817 60.8218 223.89 60.1589 224.039 59.5455C224.187 58.9335 224.412 58.3981 224.717 57.9407C225.026 57.4757 225.413 57.1158 225.878 56.8593C226.349 56.5968 226.902 56.4649 227.535 56.4649C227.689 56.4649 227.841 56.4784 227.988 56.5053C228.144 56.5263 228.258 56.5533 228.333 56.5863ZM236.474 65.6377V60.0014C236.474 59.4825 236.366 59.034 236.15 58.6576C235.935 58.2796 235.619 57.9902 235.201 57.7892C234.784 57.5867 234.268 57.4862 233.656 57.4862C233.09 57.4862 232.585 57.5867 232.141 57.7892C231.703 57.9842 231.356 58.2496 231.1 58.5871C230.851 58.917 230.727 59.283 230.727 59.6879L229.513 59.6774C229.513 59.2665 229.615 58.869 229.818 58.4851C230.019 58.1011 230.305 57.7577 230.676 57.4547C231.046 57.1518 231.487 56.9133 231.998 56.7378C232.517 56.5563 233.086 56.4649 233.705 56.4649C234.487 56.4649 235.174 56.5968 235.766 56.8593C236.366 57.1218 236.834 57.5162 237.17 58.0412C237.507 58.5661 237.675 59.226 237.675 60.0209V65.3032C237.675 65.6812 237.702 66.0711 237.756 66.4761C237.816 66.8795 237.902 67.2125 238.01 67.4749V67.5964H236.726C236.645 67.3535 236.582 67.052 236.534 66.6875C236.493 66.3171 236.474 65.9676 236.474 65.6377ZM236.756 61.2327L236.777 62.1626H234.403C233.783 62.1626 233.228 62.2196 232.736 62.3336C232.252 62.4416 231.841 62.6036 231.503 62.8195C231.168 63.028 230.908 63.28 230.727 63.5769C230.551 63.8724 230.464 64.2099 230.464 64.5863C230.464 64.9778 230.562 65.3347 230.757 65.6572C230.959 65.9811 231.241 66.2391 231.605 66.4356C231.976 66.623 232.412 66.7175 232.918 66.7175C233.591 66.7175 234.184 66.5931 234.697 66.3441C235.214 66.0951 235.641 65.7682 235.979 65.3647C236.315 64.9598 236.541 64.5188 236.655 64.0404L237.18 64.7378C237.093 65.0752 236.931 65.4217 236.696 65.7787C236.466 66.1281 236.166 66.4581 235.796 66.7685C235.427 67.0715 234.989 67.3205 234.484 67.5154C233.986 67.7044 233.42 67.7989 232.787 67.7989C232.073 67.7989 231.449 67.6639 230.919 67.394C230.392 67.1255 229.983 66.758 229.686 66.2931C229.396 65.8222 229.251 65.2897 229.251 64.6973C229.251 64.1589 229.366 63.6774 229.594 63.253C229.824 62.8225 230.154 62.4581 230.584 62.1626C231.022 61.8597 231.547 61.6302 232.16 61.4757C232.78 61.3137 233.473 61.2327 234.241 61.2327H236.756Z" fill="white"/>
</svg>
