<svg width="66" height="40" viewBox="0 0 66 40" fill="none" xmlns="http://www.w3.org/2000/svg">
<mask id="mask0_2033_353" style="mask-type:luminance" maskUnits="userSpaceOnUse" x="0" y="0" width="66" height="40">
<path d="M65.2822 0H0.635742V40H65.2822V0Z" fill="white"/>
</mask>
<g mask="url(#mask0_2033_353)">
<path d="M32.9798 39.9919H5.05415C4.54829 40.0186 4.04124 39.9806 3.54548 39.8788C2.70831 39.6788 1.96526 39.1996 1.44082 38.5204C0.916778 37.8416 0.642836 37.0045 0.665462 36.1487C0.656169 31.4828 0.665462 26.8153 0.665462 22.1491C0.665462 16.1639 0.719221 10.1772 0.642453 4.19601C0.618211 3.63953 0.710735 3.08414 0.913967 2.56502C1.1176 2.04595 1.42709 1.57452 1.82345 1.18066C2.21982 0.786762 2.69416 0.479045 3.21658 0.276984C3.73901 0.0749236 4.2978 -0.017036 4.8578 0.00688318C23.6433 0.0413882 42.4291 0.0459539 61.2158 0.0204993C61.8376 -0.0161471 62.4594 0.0929034 63.0311 0.338843C63.6028 0.584782 64.1083 0.960742 64.5071 1.43642C65.0154 2.02927 65.2905 2.7849 65.282 3.56369C65.2671 14.5068 65.2639 25.4502 65.2723 36.3944C65.2736 37.2901 64.9358 38.1536 64.3261 38.8134C63.7164 39.4731 62.8792 39.8812 61.981 39.9564C61.6243 39.9879 61.2663 39.9919 60.9083 39.9919H32.9798ZM33.0129 39.3418C42.4069 39.3418 51.8008 39.3119 61.1952 39.3649C61.6719 39.3903 62.1487 39.3156 62.5944 39.1451C63.04 38.9746 63.4444 38.7123 63.781 38.3758C64.118 38.0392 64.379 37.636 64.5479 37.1919C64.7168 36.7479 64.7891 36.2736 64.7608 35.8C64.7277 25.274 64.7471 14.748 64.7455 4.22058C64.7988 3.73731 64.7418 3.24834 64.5786 2.79003C64.4154 2.33173 64.1503 1.91589 63.8028 1.57343C63.4558 1.231 63.0352 0.970762 62.5729 0.812055C62.1103 0.653388 61.6178 0.600378 61.1321 0.656903C42.3822 0.656903 23.636 0.651489 4.89376 0.64058C4.41295 0.614075 3.93215 0.688459 3.48245 0.858843C3.03275 1.02927 2.62386 1.29185 2.28325 1.62955C1.94224 1.96725 1.67678 2.3725 1.50385 2.81892C1.33092 3.26535 1.25496 3.74292 1.28001 4.22058C1.33294 14.7466 1.33294 25.2731 1.28001 35.8C1.25657 36.2768 1.33416 36.7527 1.5079 37.198C1.68163 37.6428 1.9471 38.0465 2.28811 38.383C2.62872 38.7192 3.03679 38.9806 3.48568 39.1503C3.93417 39.32 4.41416 39.394 4.89376 39.3677C14.2671 39.3051 23.6392 39.3406 33.0073 39.3406" fill="#0BB7E5"/>
<path d="M45.8853 17.2537C45.7249 15.2491 45.8663 13.2431 45.8098 11.2385C45.7976 10.7929 45.9318 10.6566 46.3694 10.6825C46.9366 10.7114 47.5055 10.7114 48.0728 10.6825C48.3827 10.6702 48.4635 10.7847 48.4623 11.0804C48.4538 14.1539 48.4538 17.227 48.4623 20.2995C48.4623 20.5885 48.3884 20.7411 48.0756 20.6975C48.0336 20.6907 47.9912 20.6907 47.9491 20.6975C47.2829 20.8645 46.5783 20.7906 45.9617 20.489C45.3447 20.1874 44.8562 19.6779 44.5827 19.0512C43.6485 17.4486 42.2732 16.1268 41.4283 14.4492C41.3928 14.3769 41.3378 14.3129 41.1746 14.3483C41.2655 15.4447 41.2938 16.5453 41.2595 17.6449C41.2595 18.5021 41.2417 19.3606 41.2692 20.2164C41.2817 20.6075 41.1512 20.7247 40.7673 20.7043C40.2009 20.6743 39.6304 20.6866 39.0639 20.7043C38.7649 20.7111 38.6033 20.6607 38.6045 20.2954C38.6166 17.2229 38.6166 14.1498 38.6045 11.0763C38.6045 10.7752 38.7047 10.6498 39.0049 10.6879C39.0469 10.6944 39.0894 10.6944 39.1314 10.6879C39.798 10.5234 40.5023 10.597 41.1201 10.8959C41.7382 11.1948 42.2308 11.7 42.5116 12.3232C43.5197 14.0226 44.9803 15.4317 45.8784 17.251" fill="#047091"/>
<path d="M26.4584 29.5365C25.8548 29.5365 25.3077 29.5201 24.7647 29.5365C24.4079 29.5515 24.3311 29.3293 24.3053 29.0704C24.2338 28.3331 23.8334 28.1015 23.1202 28.2023C22.6806 28.257 22.2362 28.257 21.797 28.2023C21.277 28.1451 20.9877 28.3291 20.9425 28.8387C20.8916 29.4193 20.5901 29.5705 20.0249 29.5419C19.0172 29.4915 18.0035 29.512 16.9942 29.5419C16.8301 29.5643 16.6637 29.5328 16.519 29.4524C16.3748 29.372 16.2609 29.247 16.1946 29.0963C15.7716 28.3048 15.2815 27.5503 14.7299 26.8409C14.7299 27.5495 14.7081 28.2596 14.7384 28.9669C14.7562 29.3757 14.6669 29.5487 14.1978 29.5446C12.814 29.5324 12.814 29.5556 12.814 28.1819C12.814 26.3204 12.8265 24.4574 12.8047 22.5945C12.8047 22.168 12.8992 22.0031 13.353 22.0263C14.298 22.0753 15.2471 22.0562 16.1934 22.0971C16.7198 22.1055 17.2269 22.2952 17.6281 22.6339C18.0293 22.9727 18.3 23.4394 18.3934 23.9542C18.4867 24.4691 18.3974 25.0003 18.1404 25.457C17.8835 25.9136 17.475 26.2674 16.9845 26.458C16.9283 26.4839 16.875 26.5193 16.7788 26.5738L18.7138 29.4193C18.9966 28.6248 19.2528 27.9202 19.5012 27.2007C20.0374 25.6621 20.5901 24.1276 21.092 22.5782C21.1061 22.4882 21.1388 22.4021 21.1881 22.3252C21.237 22.2483 21.3017 22.1823 21.3776 22.1312C21.4532 22.0801 21.5388 22.045 21.6289 22.0281C21.719 22.0112 21.8115 22.0129 21.9012 22.0331C22.3416 22.0706 22.7849 22.0706 23.2257 22.0331C23.3206 22.0116 23.4188 22.0098 23.5146 22.0279C23.6104 22.046 23.7008 22.0836 23.7812 22.1382C23.8617 22.1929 23.9295 22.2634 23.9809 22.3455C24.0326 22.4276 24.0661 22.5193 24.0802 22.615C24.7784 24.7164 25.5202 26.8028 26.2471 28.8933C26.313 29.0854 26.3732 29.2789 26.454 29.5297M22.58 23.3891C22.3756 24.0827 22.2027 24.6809 22.0205 25.2764C21.5405 26.8464 21.5405 26.8396 23.1873 26.7592C23.4863 26.7455 23.6083 26.7019 23.5 26.368C23.1901 25.4141 22.9049 24.4493 22.58 23.3891ZM15.1663 23.6275C14.8083 23.5485 14.6903 23.7324 14.7178 24.1113C14.7453 24.4901 14.7259 24.8622 14.7178 25.2383C14.7178 25.4427 14.7356 25.5844 15.0071 25.6158C15.7449 25.7003 16.3235 25.3432 16.3659 24.7409C16.418 23.9832 16.052 23.6316 15.1619 23.6289" fill="#03AFD8"/>
<path d="M24.7041 15.2713C25.0714 15.3306 25.4213 15.4685 25.7299 15.6756C26.0382 15.8827 26.2976 16.1538 26.4899 16.4704C26.6823 16.7869 26.8031 17.1413 26.8443 17.5089C26.8851 17.8764 26.8451 18.2485 26.7271 18.5991C26.5752 19.1709 26.237 19.6768 25.7659 20.0378C25.2948 20.3989 24.7162 20.5951 24.1214 20.5956C22.5275 20.7551 20.9259 20.6992 19.3214 20.7169C18.9715 20.7169 18.9102 20.5806 18.9102 20.2699C18.9182 17.2173 18.9182 14.1652 18.9102 11.1134C18.9102 10.8409 18.9469 10.6814 19.2802 10.691C20.8786 10.6481 22.4782 10.69 24.0718 10.8164C24.4002 10.8246 24.7231 10.901 25.0196 11.0405C25.3166 11.1801 25.5805 11.3799 25.795 11.627C26.0091 11.874 26.1695 12.1629 26.2645 12.4751C26.3598 12.7873 26.3885 13.1159 26.3485 13.4397C26.315 13.8818 26.1352 14.3006 25.8378 14.631C25.5401 14.9614 25.1413 15.185 24.7029 15.2672M21.4592 17.5716V18.3212C21.4592 18.5133 21.5073 18.6496 21.7336 18.6482C22.34 18.6864 22.9489 18.6405 23.5425 18.5119C23.7453 18.4368 23.9186 18.2997 24.0378 18.1204C24.157 17.9411 24.216 17.7288 24.2063 17.5141C24.1962 17.2994 24.1182 17.0934 23.9829 16.9256C23.8475 16.7579 23.6621 16.6372 23.4536 16.5809C23.1663 16.5223 22.8754 16.4872 22.5825 16.4759C21.4637 16.446 21.4637 16.4528 21.4637 17.5743M21.4637 13.6223C21.4758 14.8093 21.3497 14.6962 22.0326 14.6989C23.3122 14.6989 23.8071 14.41 23.7978 13.6823C23.7881 12.9546 23.3299 12.7283 22.0148 12.6793C21.0726 12.6479 21.6201 13.3321 21.4661 13.6223" fill="#047091"/>
<path d="M59.712 10.6991C58.5694 12.1982 57.5439 13.5964 56.4562 14.9441C56.3641 15.0209 56.2902 15.1167 56.2397 15.2249C56.1888 15.3331 56.1625 15.451 56.1625 15.5703C56.1625 15.6897 56.1888 15.8076 56.2397 15.9158C56.2902 16.0239 56.3641 16.1198 56.4562 16.1965C57.5439 17.4993 58.5722 18.8498 59.6199 20.184C59.731 20.3203 59.8284 20.477 59.9916 20.7073C58.8724 20.7073 57.8469 20.7073 56.8263 20.7073C56.5318 20.7073 56.4453 20.4743 56.3148 20.2985C55.3617 19.0052 54.4182 17.7092 53.3374 16.4323V19.5149C53.3374 20.7073 53.3374 20.7073 52.1625 20.7073C50.6086 20.7073 50.6086 20.7073 50.6086 19.1483C50.6086 16.514 50.6195 13.8798 50.5977 11.2442C50.5977 10.8082 50.7043 10.6555 51.1572 10.6882C51.7241 10.7251 52.2934 10.7251 52.8603 10.6882C53.2716 10.6637 53.354 10.8245 53.3471 11.1924C53.316 12.4777 53.3536 13.7637 53.4595 15.045C54.055 14.2019 54.649 13.3588 55.2425 12.5157C55.6663 11.9202 55.9774 11.1039 56.5576 10.8C57.2659 10.6164 58.0049 10.5815 58.7273 10.6978C59.0013 10.6978 59.2675 10.6978 59.7079 10.6978" fill="#047091"/>
<path d="M32.4658 10.7443C33.0295 10.7443 33.737 10.5399 34.1115 10.8015C34.4856 11.0632 34.5652 11.7882 34.7519 12.3183C35.661 14.9198 36.5499 17.5295 37.4767 20.1256C37.6578 20.6298 37.5483 20.7443 37.0436 20.7102C36.4953 20.6747 35.9458 20.6747 35.3979 20.7102C35.0262 20.7334 34.8917 20.5835 34.7943 20.251C34.3996 18.9059 34.383 18.9086 32.9814 18.9086C32.3079 18.9086 31.6335 18.9263 30.96 18.9018C30.6198 18.8896 30.4856 19.0286 30.3907 19.3324C29.9604 20.7034 29.9519 20.6952 28.5382 20.6952C27.2763 20.6952 27.2776 20.6952 27.6945 19.4892C28.6384 16.7636 29.5968 14.0476 30.5058 11.3126C30.6804 10.792 30.9285 10.6203 31.444 10.6762C31.7806 10.697 32.118 10.6993 32.4549 10.6829V10.732M33.8262 16.9313L32.4767 12.4559L31.1438 16.9326L33.8262 16.9313Z" fill="#047091"/>
<path d="M32.6097 26.9656C32.6097 25.4134 32.6251 24.0206 32.6017 22.6279C32.5948 22.1973 32.7111 22.0528 33.1612 22.0542C34.5653 22.0542 34.5653 22.0378 34.5653 23.4019C34.5653 25.2635 34.5516 27.1264 34.5766 28.9893C34.5766 29.4254 34.4542 29.5058 34.0279 29.5617C33.5798 29.6511 33.1152 29.5904 32.7055 29.3892C32.2962 29.188 31.9653 28.8576 31.7649 28.4497C30.9819 27.1686 29.9067 26.0784 29.1249 24.7293C29.1431 25.0836 29.1718 25.4393 29.1758 25.7936C29.1839 26.5881 29.1758 27.3826 29.1758 28.1785C29.1758 29.5521 29.1758 29.529 27.7936 29.5508C27.3217 29.5576 27.1928 29.4336 27.1984 28.9621C27.2255 26.8484 27.2214 24.7375 27.1984 22.6211C27.1984 22.1891 27.3217 22.0978 27.7576 22.0446C28.2065 21.9553 28.6724 22.0159 29.0829 22.217C29.4934 22.4182 29.8255 22.7485 30.0275 23.1566C30.7956 24.424 31.8708 25.4924 32.6114 26.9724" fill="#03AFD8"/>
<path d="M60.0184 29.5356C59.256 29.5356 58.6099 29.5233 57.9615 29.5356C57.6568 29.5437 57.576 29.3284 57.4608 29.1376C57.0285 28.3627 56.5336 27.6239 55.9808 26.9286C55.9808 27.644 55.9647 28.3595 55.9877 29.0749C55.9986 29.4306 55.8794 29.5315 55.5215 29.541C54.0334 29.5764 54.0334 29.5887 54.0334 28.091C54.0334 26.2499 54.0459 24.4115 54.0225 22.5677C54.0225 22.148 54.1501 22.0226 54.5574 22.0362C55.5667 22.0758 56.5788 22.0566 57.5881 22.1153C58.0891 22.1267 58.5691 22.317 58.9404 22.6514C59.3113 22.9857 59.5493 23.4417 59.6095 23.9359C59.7485 24.4256 59.6972 24.9493 59.4665 25.4034C59.2358 25.8575 58.8418 26.2091 58.3631 26.3889C57.9954 26.5484 58.0669 26.6737 58.2354 26.9177C58.8156 27.7531 59.3821 28.5993 60.0184 29.5342M55.9659 24.5901C55.9768 24.7147 55.9768 24.8401 55.9659 24.9648C55.852 25.5849 56.1841 25.6802 56.6859 25.5808C56.7885 25.5603 56.8915 25.5399 56.993 25.5099C57.1117 25.4823 57.2229 25.4299 57.3194 25.3563C57.416 25.2827 57.496 25.1895 57.5538 25.083C57.6111 24.9764 57.6455 24.8589 57.654 24.7383C57.6629 24.6176 57.6455 24.4964 57.6035 24.3829C57.4839 23.8078 57.0148 23.5298 56.2867 23.6266C55.6819 23.7056 56.081 24.1867 55.9671 24.4661C55.9598 24.5075 55.9598 24.5499 55.9671 24.5914" fill="#03AFD8"/>
<path d="M48.0729 25.7412C48.0729 24.6756 48.0867 23.6099 48.0644 22.5442C48.0576 22.1776 48.1359 22.025 48.5444 22.0331C49.7638 22.059 50.9844 22.0563 52.2034 22.0331C52.5986 22.0264 52.6943 22.1531 52.6875 22.5374C52.6669 23.708 52.6875 23.708 51.5372 23.708C51.2628 23.727 50.9881 23.727 50.7141 23.708C50.1654 23.6289 50.064 23.8675 50.0572 24.3689C50.0491 24.9004 50.2054 25.0694 50.7267 25.0122C51.1214 24.9686 51.5258 25.0408 51.9262 24.9944C52.4531 24.9331 52.5929 25.1607 52.5271 25.6268C52.5093 25.7511 52.5093 25.8772 52.5271 26.0016C52.5986 26.4785 52.4285 26.6829 51.9141 26.6298C51.519 26.5875 51.1145 26.6584 50.7141 26.6121C50.1654 26.548 50.0543 26.762 50.0588 27.2703C50.0628 27.7786 50.1958 27.9517 50.6935 27.8876C50.9675 27.87 51.2422 27.87 51.5166 27.8876C52.7602 27.8876 52.7505 27.8876 52.6822 29.1509C52.6657 29.4398 52.5929 29.5597 52.2818 29.5597C51.0022 29.5475 49.7157 29.542 48.4333 29.5597C48.0329 29.5597 48.0632 29.339 48.0644 29.0787V25.7385" fill="#03AFD8"/>
<path d="M40.18 23.9809C39.7695 23.6687 39.2782 23.4795 38.7634 23.4358C38.3877 23.4358 38.0188 23.5066 37.9255 23.94C37.8321 24.3734 38.1461 24.5764 38.5081 24.7004C38.8701 24.8244 39.2337 24.9157 39.5929 25.0329C39.9784 25.1092 40.3315 25.3007 40.6042 25.5817C40.8774 25.8628 41.0576 26.22 41.1206 26.6056C41.2285 27.0787 41.1978 27.5726 41.0321 28.0289C40.8669 28.4853 40.5735 28.8851 40.1869 29.1812C39.5279 29.6021 38.7493 29.7997 37.9679 29.7444C37.1865 29.6892 36.4442 29.384 35.8519 28.8746C35.6996 28.7233 35.6075 28.5911 35.7558 28.3935C35.8051 28.3267 35.8434 28.2573 35.8927 28.1796C36.0822 27.8784 36.2071 27.445 36.4798 27.3115C36.8269 27.1411 36.997 27.6671 37.3028 27.8212C37.6564 28.0516 38.0749 28.1629 38.4972 28.1387C38.6786 28.1358 38.8531 28.0694 38.9901 27.9512C39.1271 27.8331 39.2176 27.6707 39.2459 27.4927C39.2875 27.3164 39.26 27.1311 39.1695 26.9741C39.079 26.817 38.9319 26.7 38.7578 26.6465C38.3655 26.4965 37.9582 26.3862 37.5618 26.2485C37.0895 26.1592 36.6665 25.9002 36.3735 25.521C36.0806 25.1418 35.9384 24.6688 35.9739 24.1921C35.9861 23.6858 36.163 23.1971 36.479 22.7996C36.7949 22.4022 37.2321 22.1175 37.7251 21.9885C38.6325 21.7582 39.5933 21.8714 40.4212 22.306C40.7162 22.4423 40.8491 22.5963 40.6612 22.9302C40.4733 23.264 40.3525 23.6116 40.1897 23.9822" fill="#03AFD8"/>
<path d="M42.3116 25.7549C42.3116 24.7301 42.3322 23.7107 42.3019 22.6805C42.2882 22.2103 42.3912 22.0127 42.9205 22.0318C44.0765 22.0727 45.2393 22.0645 46.3928 22.0318C46.8373 22.0209 46.9617 22.1531 46.9524 22.5878C46.9347 23.6998 46.9524 23.7039 45.8236 23.7039C45.5718 23.7222 45.3185 23.7222 45.0668 23.7039C44.4632 23.6153 44.2547 23.8293 44.2947 24.448C44.3221 24.8773 44.4127 25.0394 44.8636 25.004C45.3864 24.9658 45.9157 25.004 46.4421 24.9917C46.7165 24.9849 46.7933 25.0789 46.8126 25.3515C46.9003 26.6148 46.9112 26.6148 45.6413 26.6148C44.3137 26.6148 44.3137 26.6148 44.3137 27.9053V28.0934C44.3137 29.5924 44.3137 29.5924 42.7682 29.5447C42.409 29.5352 42.2963 29.4316 42.3019 29.0759C42.3197 27.968 42.3019 26.8587 42.3019 25.7494" fill="#03AFD8"/>
<path d="M8.04935 26.6697C8.04935 25.8971 8.03561 25.123 8.04935 24.3531C8.05905 23.9974 7.98633 23.838 7.56936 23.8339C6.33501 23.8189 6.36126 23.7984 6.35156 22.5665C6.35156 22.1481 6.47481 22.035 6.88248 22.0418C8.35521 22.0627 9.82793 22.0627 11.3011 22.0418C11.674 22.0418 11.8659 22.1249 11.7989 22.527C11.7952 22.5687 11.7952 22.6106 11.7989 22.6523C11.8057 23.8148 11.8057 23.8366 10.6332 23.8339C10.2013 23.8339 10.112 23.9865 10.116 24.379C10.1338 25.9257 10.116 27.4738 10.131 29.0205C10.131 29.4185 10.0352 29.5561 9.60571 29.5575C8.03844 29.5575 8.03845 29.5806 8.03845 28.0584V26.6793" fill="#03AFD8"/>
<path d="M12.7368 10.6705C13.8927 10.6705 15.0503 10.6828 16.2047 10.6637C16.5808 10.6637 16.7534 10.7073 16.7534 11.157C16.7534 12.6792 16.7699 12.6887 15.216 12.6751C13.3024 12.6579 11.3897 12.6283 9.47819 12.5866C9.17799 12.5866 8.70728 12.6574 8.63334 12.3603C8.5493 11.8673 8.5493 11.3638 8.63334 10.8708C8.65112 10.7005 8.92427 10.7536 9.08305 10.7523C10.3024 10.7523 11.5214 10.7523 12.7408 10.7523V10.6732" fill="#D41E1E"/>
<path d="M12.8963 16.4204C11.7799 16.4204 10.6652 16.4108 9.55003 16.4204C9.18397 16.4204 9.03973 16.3291 9.03447 15.9298C9.0167 14.6229 8.99731 14.6093 10.2906 14.5847C12.2696 14.5466 14.2486 14.5411 16.226 14.4948C16.651 14.4839 16.7484 14.6215 16.7484 15.0236C16.7484 16.4967 16.7622 16.4967 15.2947 16.4953H12.8951V16.4163" fill="#D41E1E"/>
<path d="M13.2484 18.7082C14.2577 18.7082 15.267 18.7205 16.2751 18.7082C16.6125 18.7082 16.7426 18.7723 16.7494 19.1456C16.7797 20.7237 16.7935 20.7347 15.208 20.7197C13.547 20.7033 11.8876 20.6501 10.2258 20.6406C9.78135 20.6406 9.60033 20.518 9.60558 20.0342C9.61932 18.775 9.59469 18.7709 10.8496 18.7559C11.6492 18.7464 12.4488 18.7559 13.2496 18.7559L13.2484 18.7082Z" fill="#D41E1E"/>
</g>
</svg>
