<svg width="53" height="40" viewBox="0 0 53 40" fill="none" xmlns="http://www.w3.org/2000/svg">
<mask id="mask0_2033_329" style="mask-type:luminance" maskUnits="userSpaceOnUse" x="0" y="0" width="53" height="40">
<path d="M52.6354 0H0.96875V40H52.6354V0Z" fill="white"/>
</mask>
<g mask="url(#mask0_2033_329)">
<mask id="mask1_2033_329" style="mask-type:luminance" maskUnits="userSpaceOnUse" x="0" y="0" width="53" height="40">
<path d="M52.6354 0H0.96875V40H52.6354V0Z" fill="white"/>
</mask>
<g mask="url(#mask1_2033_329)">
<path d="M26.7886 28.6017C26.1776 29.0912 25.5239 29.5259 24.8352 29.9007C23.0546 30.9043 21.0912 31.548 19.0586 31.7945C16.1969 32.1565 13.2899 31.7447 10.6449 30.6027C7.99991 29.4606 5.7149 27.6308 4.0319 25.3066C2.57857 23.3078 1.60857 21.0039 1.19723 18.5735C0.785567 16.143 0.943906 13.6511 1.65924 11.2911C2.27457 9.21849 3.3219 7.29729 4.73357 5.65179C7.1069 2.79379 10.4372 0.877941 14.1166 0.254062C17.4106 -0.340366 20.8096 0.117306 23.8242 1.5612C24.8839 2.06962 25.8862 2.68798 26.8146 3.40592L26.7939 3.46049C26.7346 3.46155 26.6782 3.48499 26.6359 3.52599C26.2232 3.89029 25.8022 4.23415 25.4212 4.62439C25.0402 5.01459 24.6882 5.42939 24.3389 5.85235C23.8862 6.41182 23.4662 6.99629 23.0802 7.60295C22.8506 7.95225 22.6799 8.33019 22.4806 8.69449C22.1726 9.29862 21.9022 9.92109 21.6719 10.5583C21.5166 10.9554 21.4146 11.377 21.2949 11.7863C21.2289 12.0087 21.1739 12.2352 21.1299 12.4686C21.0189 12.9888 20.9356 13.5143 20.8796 14.0431C20.8212 14.4451 20.7866 14.8501 20.7766 15.2561C20.7496 15.9947 20.7679 16.7342 20.8316 17.4706C20.8906 17.8622 20.9029 18.2647 20.9772 18.6509C21.0796 19.2506 21.2209 19.8431 21.4009 20.4246C21.5782 20.9704 21.7462 21.508 21.9509 22.0415C22.2219 22.716 22.5436 23.3691 22.9139 23.9954C23.2696 24.6088 23.6669 25.1973 24.1036 25.7569C24.5469 26.3232 25.0202 26.8657 25.5216 27.3819C25.7086 27.5798 25.9452 27.7258 26.1322 27.9277C26.2616 28.0742 26.4079 28.2047 26.5682 28.3166C26.6262 28.3446 26.6762 28.3855 26.7152 28.4362C26.7542 28.4869 26.7806 28.5459 26.7926 28.6086" fill="#FE3423"/>
<path d="M26.7899 28.6019C26.7782 28.5393 26.7515 28.4803 26.7129 28.4296C26.6739 28.3789 26.6235 28.3379 26.5659 28.3099C26.4052 28.1976 26.2589 28.0666 26.1299 27.9197C25.9442 27.7177 25.7075 27.5717 25.5192 27.3739C25.0162 26.8577 24.5415 26.3153 24.0969 25.7488C23.6602 25.1893 23.2629 24.6007 22.9072 23.9873C22.5372 23.361 22.2152 22.7079 21.9445 22.0335C21.7449 21.5 21.5759 20.9569 21.3942 20.4166C21.2142 19.8351 21.0729 19.2426 20.9705 18.6428C20.8962 18.2539 20.8825 17.8542 20.8249 17.4626C20.7612 16.7262 20.7429 15.9867 20.7699 15.2481C20.7802 14.8421 20.8145 14.4371 20.8729 14.0351C20.9289 13.5063 21.0122 12.9807 21.1232 12.4605C21.1685 12.2327 21.2252 12.0075 21.2882 11.7783C21.4065 11.369 21.5099 10.9528 21.6639 10.5503C21.8942 9.91303 22.1645 9.29056 22.4725 8.68646C22.6719 8.32079 22.8439 7.93876 23.0722 7.59492C23.4582 6.98826 23.8782 6.40379 24.3309 5.84432C24.6802 5.42546 25.0335 5.00929 25.4132 4.61632C25.7929 4.22339 26.2205 3.88226 26.6279 3.51796C26.6702 3.47692 26.7269 3.45352 26.7859 3.45246C26.9029 3.44156 26.9592 3.57936 27.0762 3.56842C27.1075 3.61816 27.1452 3.66396 27.1875 3.70489C27.4869 3.93959 27.7735 4.19012 28.0459 4.45532C28.3442 4.73639 28.6249 5.03386 28.8999 5.33949C29.3512 5.85019 29.7742 6.38492 30.1669 6.94136C30.7959 7.83742 31.3262 8.79806 31.7485 9.80669C31.9135 10.1915 32.0745 10.579 32.1995 10.976C32.4152 11.6401 32.5892 12.3168 32.7209 13.0022C32.8529 13.6775 32.9342 14.3616 32.9642 15.0489C33.0329 16.2912 32.9629 17.5372 32.7552 18.7642C32.6179 19.5188 32.4225 20.2569 32.2149 20.9951C32.1185 21.343 31.9395 21.6569 31.8269 22.0021C31.6945 22.409 31.5222 22.8021 31.3125 23.1755C31.1072 23.5838 30.8809 23.9813 30.6342 24.3666C30.4075 24.6928 30.2122 25.0407 29.9782 25.3586C29.7265 25.7038 29.4502 26.0313 29.1779 26.3615C28.7925 26.8281 28.3525 27.2443 27.9399 27.6877C27.9195 27.7086 27.8959 27.7261 27.8699 27.7396C27.6529 27.8734 27.4632 28.0459 27.3099 28.2485C27.1575 28.3319 27.0185 28.4372 26.8972 28.5609L26.7819 28.6019" fill="#FF5815"/>
<path d="M26.9041 28.5608C27.0254 28.437 27.1644 28.3317 27.3168 28.2483C27.3684 28.382 27.4601 28.4969 27.5791 28.5778C27.6984 28.6587 27.8394 28.7018 27.9838 28.7013C28.0254 28.6916 28.0688 28.6926 28.1098 28.7043C28.1504 28.716 28.1878 28.738 28.2178 28.7682C28.3304 28.8787 28.4114 28.8419 28.5024 28.7218C28.6178 28.569 28.7774 28.5853 28.8241 28.7668C28.8601 28.9033 28.9728 29.0192 28.9688 29.1762C28.9644 29.3331 29.0621 29.3808 29.1998 29.3713C29.3431 29.369 29.4818 29.4212 29.5874 29.5173C29.8818 29.7288 30.2038 29.943 30.5958 29.7069C30.6154 29.693 30.6388 29.6846 30.6628 29.6824C30.6871 29.6803 30.7114 29.6845 30.7334 29.6946C30.7898 29.726 30.8831 29.7083 30.8971 29.7956C30.9108 29.8829 30.8488 29.9321 30.7594 29.9512C30.6701 29.9703 30.5958 29.988 30.6328 30.0958C30.6701 30.2036 30.7084 30.3032 30.8474 30.3018C30.8721 30.3049 30.8971 30.299 30.9174 30.2852C30.9381 30.2714 30.9528 30.2506 30.9588 30.2268C30.9634 30.1885 30.9728 30.151 30.9864 30.1149C31.0814 29.9457 31.2311 29.943 31.3191 30.1149C31.3571 30.1796 31.4181 30.2282 31.4898 30.2513C31.7401 30.3714 32.0401 30.4042 32.2134 30.6607C32.2231 30.6778 32.2388 30.6908 32.2574 30.6976C32.2761 30.7043 32.2964 30.7043 32.3151 30.6975C32.3754 30.677 32.3714 30.632 32.3661 30.5788C32.3441 30.3223 32.3441 30.3209 32.5861 30.3059C32.6641 30.313 32.7428 30.2954 32.8101 30.2554C32.8638 30.2131 32.9311 30.1545 32.9891 30.2227C33.0468 30.2909 32.9491 30.3373 32.9218 30.3946C32.8941 30.4468 32.8481 30.4871 32.7924 30.5078C32.7711 30.5142 32.7511 30.5247 32.7341 30.5388C32.7171 30.5529 32.7031 30.5703 32.6928 30.59C32.6828 30.6096 32.6768 30.631 32.6751 30.653C32.6734 30.675 32.6764 30.6971 32.6838 30.718C32.6918 30.7716 32.7211 30.8198 32.7648 30.8522C32.8084 30.8847 32.8634 30.8987 32.9174 30.8913C33.1158 30.8778 33.3131 30.9255 33.4828 31.0277C33.7484 31.1697 34.0378 31.2622 34.3371 31.3006C34.6134 31.3598 34.8948 31.3932 35.1774 31.4002C35.3851 31.4097 35.5981 31.3893 35.8101 31.4166C35.8554 31.4166 35.9021 31.3893 35.9474 31.3811C36.0038 31.365 36.0631 31.3617 36.1208 31.3715C36.3508 31.4234 36.5874 31.4404 36.8224 31.422C36.9108 31.4175 36.9994 31.4262 37.0851 31.448C37.2271 31.485 37.3764 31.485 37.5184 31.448C37.7494 31.4097 37.9861 31.2678 38.2184 31.4643C38.2401 31.4734 38.2634 31.4781 38.2871 31.4781C38.3108 31.4781 38.3341 31.4734 38.3561 31.4643C38.4988 31.4328 38.6444 31.4132 38.7904 31.4057C38.9378 31.3811 39.1111 31.3934 39.2128 31.2433C39.2291 31.2188 39.2538 31.2009 39.2824 31.1928C39.3108 31.1848 39.3414 31.1872 39.3684 31.1996C39.6954 31.2638 40.0338 31.245 40.3518 31.145C40.8741 31.022 41.3864 30.8615 41.8854 30.6648C42.1094 30.5856 42.4011 30.6156 42.5291 30.3346C42.5414 30.3073 42.6198 30.3127 42.6664 30.2964C42.9724 30.244 43.2684 30.1455 43.5441 30.0044C43.7628 29.8365 44.0298 29.7738 44.2564 29.6264C44.5318 29.449 44.8961 29.4067 45.0598 29.0711C45.0748 29.0477 45.0984 29.031 45.1258 29.0247C45.5034 28.8898 45.8501 28.681 46.1451 28.4107C46.3228 28.3101 46.4874 28.1887 46.6361 28.0491C46.9291 27.7435 47.2648 27.4788 47.5864 27.2018C47.7241 27.0872 47.8878 26.9985 47.9261 26.817C47.9568 26.7162 48.0131 26.625 48.0898 26.5523C48.2411 26.3681 48.5024 26.2876 48.5768 26.027C48.5768 26.0052 48.6208 25.9915 48.6428 25.9779C48.9794 25.7297 49.2554 25.4093 49.4501 25.0405C49.6244 24.7503 49.8201 24.4734 50.0361 24.2123C50.1038 24.156 50.1518 24.0801 50.1738 23.9954C50.2184 23.8054 50.3038 23.6272 50.4241 23.4728C50.5108 23.3809 50.5831 23.2765 50.6384 23.1631C50.6644 22.8859 50.7854 22.6258 50.9811 22.4263C50.9944 22.2319 51.0574 22.0442 51.1641 21.8805C51.2754 21.459 51.4241 21.048 51.6081 20.6525C51.6311 20.6202 51.6428 20.5814 51.6411 20.542C51.6068 20.3005 51.7638 20.1203 51.8378 19.9143C51.8641 19.8406 51.9244 19.7779 51.9301 19.7015C51.9671 19.2389 52.1528 18.805 52.1968 18.337C52.2928 17.7348 52.3431 17.1265 52.3481 16.5169C52.3481 16.3886 52.4238 16.2808 52.3868 16.1444C52.3251 15.9178 52.3284 15.6787 52.3964 15.454C52.4151 15.4137 52.4248 15.37 52.4248 15.3257C52.4248 15.2814 52.4151 15.2377 52.3964 15.1974C52.2204 14.9709 52.3221 14.709 52.3138 14.4743C52.2968 14.1306 52.2471 13.7894 52.1654 13.455C52.1358 13.2247 52.0898 12.9967 52.0278 12.7728C51.9864 12.6637 52.0348 12.5313 51.9864 12.3908C51.9304 12.1469 51.8374 11.9128 51.7114 11.6963C51.6921 11.669 51.7018 11.6199 51.7004 11.5817C51.6728 11.2438 51.5904 10.9126 51.4571 10.6006C51.3551 10.3277 51.2601 10.0549 51.1404 9.80244C51.0208 9.55001 50.9344 9.29351 50.8078 9.06017C50.6371 8.75044 50.4378 8.44891 50.2644 8.13374C50.2068 8.02731 50.0924 7.97681 50.0541 7.86084C49.9064 7.50527 49.7144 7.16967 49.4818 6.86207C49.3648 6.68197 49.1958 6.52777 49.0691 6.34221C48.9934 6.20684 48.9011 6.08127 48.7941 5.96834C48.4048 5.61634 48.0981 5.19061 47.7391 4.81131C47.5561 4.61891 47.3181 4.50021 47.1451 4.29827C46.9274 3.98831 46.6274 3.74417 46.2784 3.59287C46.2348 3.56984 46.1974 3.53661 46.1698 3.49597C45.7911 3.16449 45.3878 2.86164 44.9634 2.58999C44.9118 2.5442 44.8458 2.51766 44.7764 2.51495C44.7518 2.51567 44.7274 2.50985 44.7061 2.49809C44.6844 2.48633 44.6664 2.46907 44.6541 2.44809C44.6254 2.38557 44.5804 2.33174 44.5241 2.29217C44.4674 2.2526 44.4011 2.22871 44.3321 2.22296C44.1108 2.15665 43.9064 2.04405 43.7324 1.89276C43.7161 1.88185 43.7038 1.86275 43.6858 1.85865C43.3254 1.76041 43.0228 1.53255 42.6721 1.41248C42.3861 1.31424 42.0984 1.21737 41.8248 1.0932C41.5784 0.978744 41.3208 0.890031 41.0558 0.828501C40.7424 0.718064 40.4144 0.653264 40.0821 0.636114C40.0624 0.634171 40.0434 0.627114 40.0271 0.615647C39.8441 0.516044 39.6144 0.550154 39.4454 0.479204C39.2391 0.425251 39.0258 0.403157 38.8124 0.413711C38.6794 0.420894 38.5461 0.406141 38.4178 0.370047C38.2444 0.292274 38.0698 0.172203 37.8758 0.330478C37.8608 0.342757 37.8181 0.330478 37.7921 0.319563C37.5508 0.250856 37.2994 0.225895 37.0494 0.245883C36.6201 0.213136 36.1814 0.245883 35.7538 0.233603C35.3258 0.221323 34.9161 0.370047 34.4868 0.395971C34.1094 0.434744 33.7368 0.510151 33.3741 0.621104C33.0474 0.715284 32.7128 0.780127 32.3741 0.814854C32.2378 0.830807 32.1071 0.877481 31.9918 0.951301C31.9094 1.00152 31.8194 1.03794 31.7251 1.05909C31.4224 1.11802 31.1278 1.21237 30.8474 1.34017C30.3848 1.4804 29.9544 1.70941 29.5808 2.0142C29.5698 2.0239 29.5568 2.03131 29.5428 2.036C29.5291 2.04069 29.5141 2.04256 29.4994 2.04149C29.2398 2.01829 29.0594 2.19567 28.8601 2.30619C28.2451 2.64321 27.7321 3.13714 27.1091 3.46597C27.0718 3.48507 27.0664 3.53147 27.0624 3.56831C26.9454 3.57921 26.8891 3.44141 26.7734 3.45231L26.7941 3.39774C29.3128 1.43177 32.3731 0.268798 35.5711 0.0620129C38.7694 -0.144772 41.9558 0.61433 44.7104 2.23933C46.8528 3.49347 48.6731 5.22327 50.0281 7.29284C51.3831 9.36244 52.2358 11.7154 52.5194 14.1671C52.8034 16.6187 52.5101 19.1023 51.6634 21.4226C50.8164 23.743 49.4388 25.837 47.6388 27.5402C45.7404 29.3364 43.4241 30.6395 40.8954 31.3336C38.3671 32.0277 35.7051 32.0914 33.1458 31.5189C30.9641 31.0313 28.9131 30.0854 27.1311 28.745C27.0528 28.6863 26.9784 28.6222 26.9028 28.5622" fill="#FEA016"/>
<path d="M4.60175 36.0614C4.76841 35.9564 4.91008 35.8744 5.04475 35.7884C5.33708 35.575 5.69875 35.4764 6.06008 35.512C6.42108 35.5474 6.75641 35.7147 7.00074 35.981C7.09008 36.0547 7.14775 36.2007 7.26042 36.1994C7.37342 36.1977 7.42841 36.0534 7.50674 35.9714C7.71108 35.77 7.96374 35.6237 8.24074 35.5464C8.51808 35.469 8.81075 35.4634 9.09075 35.5294C9.37075 35.5957 9.62908 35.732 9.84141 35.925C10.0534 36.1184 10.2124 36.362 10.3031 36.633C10.3374 36.745 10.3541 36.8614 10.3524 36.9784C10.3524 37.8257 10.3524 38.673 10.3524 39.5204C10.3524 39.7644 10.3524 39.7644 10.1131 39.7674C9.95641 39.7674 9.79974 39.7674 9.64141 39.7674C9.52874 39.7674 9.48742 39.7224 9.48875 39.609C9.48875 39.287 9.48875 38.9664 9.48875 38.6444C9.48875 38.1967 9.48875 37.748 9.48875 37.3004C9.51608 37.0944 9.46274 36.8857 9.33974 36.7177C9.21674 36.5497 9.03308 36.4347 8.82708 36.397C8.59374 36.3307 8.34508 36.3417 8.11874 36.4284C7.89241 36.515 7.70074 36.6727 7.57274 36.8774C7.50941 37.0097 7.48075 37.1554 7.48875 37.3017C7.48875 37.9744 7.48875 38.6457 7.48875 39.3184V39.5517C7.48075 39.766 7.48075 39.7687 7.27841 39.7727C7.11208 39.7727 6.94541 39.7657 6.77774 39.7727C6.61007 39.7794 6.57408 39.718 6.57841 39.568C6.57841 38.827 6.57841 38.0877 6.57841 37.3467C6.58508 37.2007 6.56708 37.0544 6.52475 36.914C6.47275 36.745 6.36875 36.5967 6.22708 36.4897C6.08541 36.3827 5.91308 36.3227 5.73508 36.318C5.59708 36.3074 5.45807 36.3164 5.32241 36.3454C5.11074 36.3784 4.91942 36.4894 4.78608 36.6557C4.65242 36.8224 4.58675 37.0324 4.60175 37.2444C4.60175 37.9647 4.61008 38.6854 4.61574 39.4057V39.639C4.61574 39.7167 4.59208 39.7754 4.50141 39.7754H3.82342C3.75042 39.7754 3.71874 39.733 3.71607 39.6664C3.71341 39.5994 3.71607 39.549 3.71607 39.4904C3.71607 38.2824 3.71241 37.0744 3.70508 35.8664C3.70508 35.6097 3.70508 35.6097 3.95675 35.6017H4.13274C4.57007 35.6017 4.57008 35.6017 4.60608 36.0724" fill="white"/>
<path d="M49.1918 39.3657C49.0294 39.4623 48.9071 39.539 48.7791 39.6113C48.5491 39.7433 48.2941 39.8277 48.0301 39.8593C47.7661 39.891 47.4981 39.869 47.2431 39.7947C46.9878 39.7203 46.7504 39.5953 46.5454 39.4273C46.3404 39.2593 46.1718 39.0517 46.0501 38.817C45.8161 38.4297 45.7031 37.9823 45.7254 37.531C45.7481 37.08 45.9051 36.6457 46.1768 36.2833C46.3254 36.0583 46.5204 35.8677 46.7494 35.724C46.9784 35.5803 47.2358 35.4867 47.5044 35.45C47.7728 35.413 48.0461 35.4337 48.3058 35.5103C48.5654 35.587 48.8058 35.718 49.0101 35.8943C49.0528 35.93 49.0761 35.9953 49.1478 35.9993C49.2428 35.9543 49.2094 35.863 49.2111 35.7947C49.2111 35.26 49.2208 34.7237 49.2261 34.189C49.2261 33.894 49.2261 33.8943 49.5354 33.8873H49.8588C50.1078 33.8873 50.1131 33.8873 50.1118 34.152C50.1064 35.943 50.1001 37.7343 50.0928 39.5253C50.0928 39.7287 50.0928 39.7313 49.8848 39.7367C49.7378 39.7367 49.5904 39.7367 49.4434 39.7367C49.2221 39.7367 49.2221 39.7367 49.2081 39.5143C49.2081 39.4773 49.2081 39.4407 49.1944 39.3643M49.2798 37.664C49.2778 37.5763 49.2711 37.489 49.2591 37.402C49.2248 37.1647 49.1244 36.9417 48.9698 36.7573C48.8151 36.573 48.6121 36.435 48.3831 36.3583C48.1698 36.2793 47.9381 36.2633 47.7158 36.3117C47.4938 36.36 47.2901 36.471 47.1301 36.6313C46.8908 36.8577 46.7344 37.1563 46.6844 37.4803C46.6348 37.8047 46.6948 38.136 46.8548 38.4227C46.9478 38.5917 47.0788 38.737 47.2374 38.8477C47.3958 38.9583 47.5778 39.0317 47.7694 39.0617C47.9611 39.0917 48.1571 39.078 48.3424 39.021C48.5274 38.9643 48.6971 38.866 48.8381 38.7337C48.9881 38.6 49.1061 38.4347 49.1831 38.2497C49.2604 38.065 49.2948 37.8653 49.2838 37.6653" fill="white"/>
<path d="M40.6336 36.0257C40.7203 35.9317 40.6846 35.828 40.6873 35.7394C40.6873 35.619 40.7326 35.562 40.8606 35.566C41.027 35.566 41.195 35.566 41.3613 35.566C41.569 35.566 41.576 35.566 41.5773 35.7817V37.2414C41.5773 38.0014 41.5703 38.7627 41.562 39.52C41.562 39.7467 41.554 39.748 41.338 39.7534C41.1906 39.7534 41.0436 39.7534 40.8963 39.7534C40.7493 39.7534 40.657 39.703 40.6736 39.5364C40.672 39.494 40.666 39.452 40.6556 39.411C40.5223 39.444 40.398 39.5064 40.2926 39.5937C39.8703 39.852 39.3643 39.94 38.8786 39.8404C38.3926 39.7407 37.9636 39.4607 37.6793 39.0577C37.3153 38.572 37.155 37.9654 37.2316 37.365C37.3086 36.7647 37.617 36.2174 38.092 35.8374C38.4146 35.585 38.8126 35.4457 39.2236 35.441C39.6346 35.4364 40.0356 35.5667 40.364 35.8117C40.4563 35.877 40.5483 35.948 40.6393 36.0204M39.4466 39.0794C39.6236 39.0927 39.801 39.0564 39.9583 38.9744C40.156 38.876 40.3283 38.7347 40.463 38.5607C40.5973 38.3867 40.6903 38.1847 40.7346 37.97C40.779 37.755 40.7736 37.533 40.719 37.3207C40.6643 37.1084 40.5616 36.911 40.419 36.7434C40.3096 36.615 40.175 36.51 40.0236 36.4344C39.872 36.359 39.7066 36.3147 39.5373 36.3044C39.3683 36.2937 39.1986 36.3174 39.039 36.3737C38.879 36.43 38.7323 36.5177 38.6076 36.6317C38.3483 36.8604 38.182 37.1754 38.14 37.517C38.1076 37.7067 38.117 37.9014 38.1673 38.087C38.2176 38.273 38.308 38.4457 38.4316 38.5937C38.5553 38.742 38.71 38.862 38.8846 38.9454C39.0593 39.029 39.25 39.0744 39.444 39.078" fill="white"/>
<path d="M14.6699 36.079C14.6829 36.0394 14.6929 35.9987 14.7002 35.9574C14.7152 35.5974 14.7153 35.5837 15.0906 35.593C15.6863 35.6084 15.5912 35.4937 15.5942 36.0747C15.5942 37.1664 15.5942 38.258 15.5942 39.3494C15.5942 39.4274 15.5872 39.5064 15.5942 39.5827C15.6052 39.7194 15.5599 39.7807 15.4126 39.7724C15.2656 39.7644 15.0989 39.7724 14.9409 39.7724C14.7223 39.7724 14.7223 39.7724 14.7043 39.546C14.7043 39.509 14.6959 39.471 14.6906 39.4217C14.5572 39.4604 14.4336 39.5257 14.3273 39.614C13.9846 39.8287 13.5819 39.9294 13.1776 39.9014C12.7732 39.8737 12.3882 39.719 12.0786 39.46C11.6252 39.0977 11.3263 38.579 11.2416 38.0077C11.1566 37.4364 11.2919 36.8544 11.6206 36.3777C11.7646 36.141 11.9596 35.9387 12.1916 35.785C12.4232 35.6314 12.6866 35.53 12.9623 35.4887C13.2379 35.4474 13.5192 35.4667 13.7866 35.5454C14.0539 35.624 14.3006 35.76 14.5089 35.9437C14.5529 35.9807 14.5969 36.0174 14.6712 36.0804M12.1556 37.7557C12.1519 37.937 12.1852 38.117 12.2532 38.2854C12.3182 38.4564 12.4193 38.6117 12.5499 38.7407C12.6803 38.8697 12.8373 38.9697 13.0099 39.0334C13.1826 39.0974 13.3669 39.1237 13.5509 39.111C13.7346 39.098 13.9136 39.0464 14.0756 38.9594C14.3872 38.7774 14.6193 38.4864 14.7256 38.1434C14.8319 37.8007 14.8053 37.4307 14.6506 37.1064C14.5559 36.874 14.3929 36.6754 14.1829 36.536C13.9732 36.3967 13.7259 36.323 13.4732 36.3247C13.2906 36.3284 13.1106 36.369 12.9442 36.4437C12.7779 36.5187 12.6289 36.6264 12.5056 36.76C12.3826 36.894 12.2883 37.0514 12.2283 37.2224C12.1683 37.3937 12.1426 37.575 12.1556 37.7557Z" fill="white"/>
<path d="M27.4539 38.0203H26.1279C25.9603 38.0203 25.9396 38.0517 25.9696 38.2057C26.0013 38.3633 26.0659 38.5127 26.1593 38.6443C26.2526 38.7757 26.3726 38.8863 26.5116 38.969C26.6506 39.0517 26.8056 39.1043 26.9663 39.124C27.1273 39.1437 27.2906 39.1297 27.4456 39.083C27.7393 39.03 28.0196 38.92 28.2709 38.7597C28.3643 38.6873 28.4553 38.7133 28.4773 38.8157C28.5329 38.9667 28.6176 39.1057 28.7263 39.225C28.7893 39.3233 28.7923 39.4093 28.6726 39.4623C28.3066 39.668 27.9163 39.8273 27.5103 39.936C27.2233 39.9983 26.9259 40.001 26.6379 39.9433C26.3499 39.8857 26.0769 39.7693 25.8369 39.601C25.5966 39.433 25.3943 39.2173 25.2429 38.9673C25.0916 38.7177 24.9943 38.439 24.9573 38.1497C24.8809 37.7757 24.9016 37.3883 25.0176 37.0243C25.1336 36.6603 25.3409 36.3317 25.6203 36.069C25.9443 35.7743 26.3509 35.5843 26.7863 35.5243C27.2216 35.4643 27.6649 35.5373 28.0576 35.7333C28.2906 35.8707 28.4909 36.056 28.6456 36.2767C28.7999 36.4977 28.9049 36.7487 28.9529 37.0133C29.0076 37.2827 29.0326 37.557 29.0273 37.832C29.0273 37.9683 28.9819 38.0203 28.8416 38.0187C28.3796 38.0187 27.9186 38.0187 27.4579 38.0187L27.4539 38.0203ZM27.0413 37.364H27.9833C28.1209 37.364 28.1499 37.3107 28.1209 37.1823C28.0989 37.002 28.0249 36.832 27.9076 36.6927C27.7899 36.5533 27.6343 36.451 27.4593 36.398C27.1769 36.3087 26.8729 36.3127 26.5929 36.4087C26.4226 36.4607 26.2713 36.5613 26.1583 36.698C26.0453 36.8343 25.9756 37.001 25.9573 37.177C25.9353 37.3133 25.9766 37.3707 26.1279 37.3653C26.4319 37.3543 26.7359 37.3653 27.0399 37.3653" fill="white"/>
<path d="M18.3971 39.9077C17.8104 39.9154 17.2334 39.7607 16.7301 39.4617C16.5457 39.3634 16.5501 39.3564 16.6641 39.1737C16.9061 38.7767 16.9047 38.7767 17.3517 38.9294C17.7784 39.1107 18.2487 39.167 18.7067 39.0917C18.8324 39.0694 18.9544 39.029 19.0684 38.9717C19.1374 38.945 19.1971 38.8987 19.2404 38.839C19.2837 38.779 19.3084 38.7084 19.3117 38.6347C19.3117 38.471 19.1881 38.396 19.0657 38.3357C18.8421 38.2344 18.6041 38.1687 18.3601 38.1407C18.1057 38.1164 17.8541 38.0707 17.6077 38.0044C17.4397 37.9627 17.2827 37.8864 17.1471 37.78C17.0111 37.6737 16.8997 37.54 16.8197 37.388C16.7401 37.2357 16.6937 37.0684 16.6837 36.897C16.6741 36.726 16.7011 36.5544 16.7631 36.3944C16.8251 36.2344 16.9197 36.089 17.0411 35.967C17.1621 35.845 17.3071 35.7487 17.4674 35.6847C17.9881 35.4394 18.5847 35.4057 19.1301 35.5907C19.4301 35.6824 19.7251 35.7897 20.0134 35.9127C20.1371 35.9687 20.1507 36.0274 20.0764 36.1337C19.9904 36.2524 19.9121 36.3764 19.8414 36.5047C19.8321 36.5324 19.8164 36.5574 19.7957 36.5784C19.7751 36.599 19.7501 36.6147 19.7224 36.6247C19.6947 36.6344 19.6651 36.6377 19.6361 36.6344C19.6067 36.631 19.5787 36.6214 19.5537 36.6057C19.2824 36.4924 18.9997 36.4067 18.7107 36.3507C18.4804 36.295 18.2391 36.3034 18.0134 36.375C17.9204 36.4047 17.8337 36.451 17.7574 36.5117C17.7054 36.5494 17.6647 36.6 17.6394 36.6587C17.6137 36.7174 17.6047 36.782 17.6131 36.8454C17.6214 36.9087 17.6467 36.9684 17.6864 37.0187C17.7261 37.069 17.7787 37.1077 17.8387 37.131C17.9927 37.195 18.1564 37.2344 18.3227 37.247C18.6651 37.281 19.0044 37.337 19.3394 37.415C19.5791 37.4527 19.7987 37.57 19.9627 37.7477C20.1267 37.9254 20.2251 38.153 20.2417 38.3934C20.2854 38.6707 20.2311 38.9547 20.0877 39.197C19.9441 39.4394 19.7204 39.625 19.4547 39.722C19.3091 39.78 19.1587 39.8257 19.0051 39.8587C18.8061 39.8984 18.6027 39.914 18.3997 39.905" fill="white"/>
<path d="M21.7234 37.681C21.7234 37.34 21.7234 36.9987 21.7234 36.659C21.7234 36.5227 21.6918 36.453 21.5431 36.4693C21.4841 36.4727 21.4248 36.4727 21.3658 36.4693C20.9395 36.4693 20.9395 36.4693 20.9395 36.0313C20.9395 35.5933 20.9395 35.6043 21.3725 35.599C21.7728 35.599 21.7191 35.6317 21.7248 35.2577C21.7248 35.0243 21.7248 34.791 21.7248 34.5563C21.7248 34.435 21.7605 34.3763 21.8911 34.3803C22.1071 34.3803 22.3231 34.3873 22.5388 34.3803C22.6765 34.3803 22.7041 34.4473 22.7041 34.562C22.7041 34.8443 22.7121 35.1267 22.7041 35.4077C22.7041 35.5443 22.7535 35.599 22.8898 35.599H23.9198C24.1675 35.599 24.1701 35.599 24.1744 35.8607C24.1744 36.0067 24.1744 36.1527 24.1744 36.2973C24.1744 36.442 24.1221 36.4707 23.9981 36.468C23.6451 36.4633 23.2918 36.4633 22.9378 36.468C22.7138 36.468 22.7068 36.468 22.7041 36.6917C22.6985 37.305 22.6985 37.918 22.7041 38.531C22.6951 38.634 22.7238 38.737 22.7851 38.8207C22.8461 38.9047 22.9355 38.964 23.0368 38.988C23.1755 39.0383 23.3234 39.0577 23.4704 39.0453C23.6178 39.0327 23.7601 38.9887 23.8881 38.9157C24.1028 38.8013 24.1085 38.8067 24.1935 39.0223L24.3944 39.5393C24.4274 39.6213 24.4438 39.6867 24.3368 39.725C23.8888 39.9273 23.3971 40.0163 22.9061 39.9843C22.5788 39.955 22.2751 39.8033 22.0561 39.56C21.8375 39.3167 21.7198 39.0003 21.7275 38.6743C21.7151 38.344 21.7275 38.0127 21.7275 37.6823L21.7234 37.681Z" fill="white"/>
<path d="M36.2585 36.7733C35.9841 36.511 35.6178 36.3643 35.2368 36.364C34.9498 36.3403 34.6638 36.42 34.4311 36.588C34.1985 36.756 34.0341 37.0013 33.9685 37.2797C33.9011 37.484 33.8785 37.7003 33.9021 37.9143C33.9258 38.1283 33.9955 38.3347 34.1061 38.5197C34.2468 38.751 34.4614 38.929 34.7158 39.0257C34.9704 39.122 35.2501 39.1313 35.5104 39.052C35.7271 38.988 35.9321 38.8893 36.1168 38.76C36.2254 38.6837 36.2835 38.7027 36.3371 38.8253C36.4155 39.0043 36.5061 39.176 36.5985 39.3493C36.6521 39.4517 36.6191 39.5063 36.5241 39.558C36.2521 39.724 35.9494 39.8347 35.6338 39.8837C35.3184 39.9327 34.9965 39.9193 34.6861 39.844C34.3761 39.7687 34.0838 39.6333 33.8268 39.4453C33.5698 39.2573 33.3528 39.0207 33.1888 38.749C32.9254 38.277 32.8438 37.7263 32.9595 37.1993C33.0748 36.6723 33.3791 36.2047 33.8158 35.8837C34.2338 35.632 34.7141 35.5 35.2031 35.5027C35.6921 35.5053 36.1708 35.6423 36.5858 35.8987C36.6851 35.9573 36.6948 36.0147 36.6368 36.11C36.5104 36.3177 36.3935 36.5303 36.2571 36.772" fill="white"/>
<path d="M43.6688 36.0323C43.8968 35.8723 44.1335 35.725 44.3785 35.5917C44.6608 35.447 44.9892 35.4177 45.2932 35.5097C45.4168 35.5397 45.4885 35.5903 45.4308 35.7337C45.3605 35.904 45.2932 36.0787 45.2382 36.2547C45.2008 36.3667 45.1432 36.3733 45.0388 36.3393C44.7555 36.2467 44.4475 36.2637 44.1762 36.387C44.0175 36.4437 43.8808 36.5487 43.7858 36.6867C43.6908 36.825 43.6422 36.9893 43.6468 37.1567C43.6468 37.8977 43.6468 38.637 43.6468 39.378C43.6468 39.4557 43.6468 39.5333 43.6468 39.6113C43.6468 39.689 43.6165 39.7477 43.5285 39.7477H42.8805C42.7515 39.7477 42.7432 39.6617 42.7432 39.569V38.779C42.7432 37.8247 42.7478 36.8697 42.7568 35.9137C42.7568 35.8357 42.7568 35.758 42.7568 35.6803C42.7552 35.666 42.7565 35.6513 42.7615 35.6373C42.7662 35.6237 42.7738 35.611 42.7842 35.6007C42.7945 35.5903 42.8072 35.5827 42.8208 35.5777C42.8348 35.5727 42.8495 35.571 42.8642 35.5723C43.0802 35.5723 43.2958 35.5723 43.5118 35.5723C43.5958 35.5723 43.6302 35.6203 43.6372 35.709C43.6278 35.8237 43.6378 35.939 43.6675 36.05" fill="white"/>
<path d="M30.9096 36.0513C31.171 35.896 31.3856 35.765 31.5973 35.642C31.8553 35.4946 32.1596 35.449 32.4503 35.514C32.7253 35.5683 32.75 35.6093 32.6593 35.8603C32.6386 35.915 32.6123 35.967 32.5933 36.0213C32.5656 36.1433 32.5153 36.259 32.4446 36.3626C32.3553 36.45 32.237 36.3053 32.116 36.312C31.9313 36.3063 31.7466 36.3226 31.5656 36.3613C31.3723 36.4056 31.2003 36.516 31.0803 36.673C30.9603 36.83 30.8993 37.024 30.9083 37.2206C30.9083 37.9113 30.9083 38.6016 30.9083 39.292V39.6126C30.9083 39.704 30.8793 39.7626 30.7706 39.7626H30.1533C30.0543 39.7626 30.0156 39.7176 30.0156 39.6263V39.4503C30.0156 38.2733 30.019 37.0966 30.0253 35.9203C30.0253 35.8616 30.0253 35.803 30.0253 35.7456C30.0253 35.6326 30.0763 35.5876 30.1833 35.589C30.369 35.589 30.5563 35.597 30.742 35.589C30.8683 35.589 30.9193 35.6433 30.911 35.7663C30.911 35.8426 30.911 35.9203 30.911 36.054" fill="white"/>
<path d="M27.083 3.57482C27.083 3.53525 27.094 3.49159 27.1297 3.47249C27.7527 3.14229 28.263 2.65382 28.8807 2.31271C29.0813 2.20355 29.2603 2.02618 29.5203 2.04801C29.535 2.049 29.5497 2.0471 29.5637 2.04241C29.5773 2.03773 29.5903 2.03036 29.6013 2.02072C29.975 1.71593 30.4053 1.48692 30.868 1.34668C31.1483 1.2189 31.443 1.12455 31.7457 1.06561C31.84 1.04448 31.93 1.00806 32.0123 0.95782C32.1277 0.883957 32.2587 0.83728 32.395 0.821374C32.7333 0.78659 33.068 0.721747 33.3947 0.627624C33.7573 0.516677 34.13 0.441274 34.5073 0.40249C34.9353 0.37793 35.3423 0.229206 35.7743 0.240122C36.206 0.251037 36.6407 0.219655 37.07 0.252402C37.32 0.232415 37.5717 0.257375 37.8127 0.326082C37.8373 0.336997 37.8787 0.349277 37.8967 0.336997C38.092 0.177358 38.2667 0.297429 38.44 0.376567C38.5717 0.413904 38.709 0.42867 38.8457 0.420227C39.059 0.40956 39.273 0.43165 39.4797 0.48572C39.6557 0.556674 39.88 0.52256 40.0613 0.622167C40.0777 0.633634 40.0967 0.64069 40.1167 0.642634C40.4487 0.659687 40.7767 0.72449 41.0903 0.83502C41.3553 0.896437 41.613 0.98515 41.8593 1.09972C42.1343 1.22388 42.4217 1.32076 42.7077 1.419C43.0587 1.53907 43.361 1.76693 43.7217 1.86517C43.7393 1.86517 43.7517 1.88837 43.7683 1.89928C43.942 2.05064 44.1467 2.16324 44.368 2.22948C44.437 2.23522 44.503 2.25912 44.5597 2.29869C44.6163 2.33826 44.6613 2.39209 44.6897 2.45461C44.7027 2.47534 44.7207 2.49233 44.742 2.50384C44.7637 2.51535 44.7877 2.52097 44.8123 2.52011C44.8813 2.52282 44.9477 2.54935 44.9993 2.59515C45.4237 2.86682 45.827 3.16966 46.2057 3.50115C46.2333 3.54179 46.2707 3.57505 46.3143 3.59802C46.663 3.74932 46.963 3.99345 47.1807 4.30342C47.354 4.50129 47.5933 4.62409 47.775 4.81645C48.1353 5.19442 48.442 5.62012 48.83 5.97352C48.9367 6.08642 49.029 6.21199 49.105 6.34735C49.2273 6.53292 49.3953 6.68712 49.5177 6.86722C49.75 7.17485 49.9423 7.51045 50.0897 7.86599C50.1283 7.98062 50.2423 8.03245 50.3003 8.13889C50.4737 8.45135 50.673 8.75289 50.8433 9.06532C50.9713 9.29865 51.0593 9.56199 51.1777 9.80895C51.296 10.0559 51.3937 10.3384 51.494 10.6072C51.6277 10.9191 51.71 11.2504 51.7377 11.5882C51.7377 11.6278 51.7293 11.6755 51.7487 11.7028C51.8747 11.9194 51.9673 12.1535 52.0237 12.3973C52.0717 12.5338 52.0237 12.6702 52.065 12.7794C52.127 13.0033 52.173 13.2312 52.2023 13.4616C52.2843 13.7959 52.334 14.1372 52.351 14.4808C52.3593 14.7155 52.2573 14.9775 52.4333 15.204C52.452 15.2442 52.4617 15.288 52.4617 15.3322C52.4617 15.3765 52.452 15.4203 52.4333 15.4605C52.3657 15.6853 52.3623 15.9244 52.424 16.1509C52.4623 16.2873 52.38 16.3951 52.3853 16.5234C52.3803 17.133 52.3297 17.7414 52.234 18.3436C52.1873 18.8129 52.0003 19.2441 51.9673 19.708C51.9673 19.7803 51.8997 19.8444 51.875 19.9209C51.8007 20.1269 51.644 20.3084 51.6783 20.5485C51.68 20.5879 51.6683 20.6268 51.6453 20.659C51.461 21.0545 51.3123 21.4655 51.201 21.887C51.0947 22.0507 51.0317 22.2385 51.0183 22.4328C50.8227 22.6324 50.7017 22.8924 50.6757 23.1696C50.6207 23.2831 50.5483 23.3876 50.461 23.4793C50.341 23.6338 50.2557 23.812 50.2107 24.0019C50.1887 24.0866 50.1407 24.1624 50.0733 24.2189C49.8573 24.4799 49.6613 24.7568 49.4873 25.0471C49.2913 25.4157 49.014 25.7357 48.6757 25.9831C48.651 25.9981 48.6083 26.0117 48.6083 26.0322C48.541 26.2969 48.2757 26.3733 48.1217 26.5575C48.0447 26.6302 47.9883 26.7214 47.958 26.8222C47.9193 27.0037 47.75 27.0951 47.618 27.207C47.2977 27.4799 46.9607 27.7528 46.6677 28.0543C46.5193 28.1939 46.3543 28.3153 46.1767 28.4159C45.8817 28.6861 45.535 28.8949 45.1573 29.0299C45.1297 29.036 45.1057 29.0527 45.09 29.0763C44.925 29.4119 44.5563 29.4542 44.2867 29.6316C44.06 29.7803 43.7917 29.8431 43.5743 30.0095C43.2987 30.1507 43.0027 30.2492 42.6967 30.3015C42.6513 30.3179 42.573 30.3125 42.5593 30.3397C42.4313 30.6208 42.1467 30.5894 41.917 30.6699C41.418 30.8667 40.9057 31.0272 40.3833 31.1502C40.0653 31.2502 39.727 31.2689 39.4 31.2048C39.373 31.1924 39.3427 31.19 39.314 31.198C39.2857 31.206 39.2607 31.2239 39.2443 31.2485C39.1413 31.3985 38.9693 31.3849 38.8223 31.4108C38.676 31.4184 38.5307 31.4381 38.3877 31.4695C38.3657 31.4787 38.3423 31.4834 38.3187 31.4834C38.2953 31.4834 38.2717 31.4787 38.25 31.4695C38.019 31.2717 37.7837 31.4149 37.55 31.4531C37.408 31.4903 37.2587 31.4903 37.1167 31.4531C37.031 31.4315 36.9423 31.4228 36.854 31.4272C36.619 31.4458 36.3827 31.4293 36.1527 31.3781C36.0947 31.3683 36.0357 31.3715 35.9793 31.3876C35.931 31.3945 35.883 31.4286 35.8417 31.4217C35.63 31.3945 35.4167 31.4149 35.209 31.4054C34.9263 31.3983 34.645 31.365 34.3687 31.3058C34.0693 31.2672 33.78 31.1747 33.5143 31.0329C33.3447 30.9307 33.1473 30.883 32.949 30.8964C32.895 30.9039 32.84 30.8898 32.7963 30.8574C32.7527 30.825 32.7233 30.7767 32.7153 30.7231C32.708 30.7023 32.7053 30.6802 32.7067 30.6582C32.7083 30.6362 32.7143 30.6147 32.7247 30.5951C32.7347 30.5755 32.7487 30.5581 32.7657 30.544C32.783 30.5299 32.8027 30.5194 32.824 30.513C32.8797 30.4924 32.9257 30.4521 32.9533 30.3998C32.9793 30.3425 33.0783 30.2988 33.0193 30.2279C32.96 30.1569 32.894 30.2183 32.8403 30.2606C32.773 30.3006 32.6947 30.3183 32.6163 30.3111C32.3743 30.3275 32.3743 30.3288 32.3963 30.584C32.3963 30.6345 32.4043 30.6822 32.3453 30.7027C32.3267 30.7095 32.3063 30.7095 32.2877 30.7027C32.269 30.696 32.2533 30.6829 32.2437 30.6658C32.073 30.408 31.7703 30.3752 31.52 30.2565C31.4483 30.2334 31.3877 30.1848 31.3497 30.1201C31.26 29.9468 31.1087 29.9481 31.0167 30.1201C31.0023 30.1561 30.9927 30.1936 30.9877 30.2319C30.9817 30.2555 30.967 30.2761 30.947 30.2899C30.9267 30.3037 30.902 30.3097 30.8777 30.307C30.7403 30.307 30.699 30.2019 30.6633 30.101C30.6273 30 30.703 29.9645 30.7897 29.9563C30.8763 29.9481 30.941 29.8963 30.9273 29.8008C30.9137 29.7053 30.82 29.7312 30.7637 29.6998C30.7417 29.6897 30.7173 29.6854 30.693 29.6876C30.669 29.6897 30.646 29.6982 30.626 29.7121C30.234 29.9481 29.9137 29.7339 29.618 29.5224C29.512 29.4264 29.3733 29.3742 29.23 29.3764C29.0923 29.386 28.996 29.3355 28.999 29.1813C29.0017 29.0271 28.889 28.9166 28.8543 28.772C28.809 28.5919 28.6483 28.5741 28.5327 28.727C28.442 28.847 28.3607 28.8839 28.248 28.7734C28.218 28.7434 28.1807 28.7217 28.1397 28.7102C28.0987 28.6987 28.0553 28.6979 28.014 28.7079C27.8697 28.7083 27.7287 28.6652 27.6097 28.5843C27.4903 28.5034 27.399 28.3885 27.347 28.2549C27.5003 28.0523 27.69 27.8798 27.9067 27.7459C27.933 27.7325 27.9567 27.715 27.977 27.6941C28.3897 27.2506 28.8297 26.8345 29.215 26.3678C29.49 26.0377 29.765 25.7102 30.0153 25.365C30.2493 25.0443 30.4443 24.6964 30.6713 24.373C30.918 23.9877 31.1443 23.5902 31.3497 23.1819C31.5593 22.8085 31.7317 22.4154 31.864 22.0085C31.974 21.666 32.154 21.3494 32.2517 21.0015C32.4567 20.2633 32.652 19.5265 32.7923 18.7706C32.9997 17.5436 33.07 16.2976 33.0013 15.0553C32.9653 14.3676 32.878 13.6835 32.74 13.0086C32.6087 12.3232 32.4343 11.6465 32.2187 10.9824C32.0923 10.5853 31.9313 10.1965 31.7677 9.81305C31.3453 8.80445 30.8153 7.84382 30.186 6.94772C29.7933 6.39129 29.3707 5.85652 28.919 5.34585C28.644 5.03885 28.369 4.74142 28.065 4.46172C27.794 4.19652 27.509 3.94602 27.211 3.71125C27.1683 3.67032 27.131 3.62452 27.0993 3.57482M28.149 28.4609C28.1487 28.4489 28.146 28.437 28.141 28.4261C28.136 28.4151 28.1287 28.4054 28.1197 28.3974C28.1107 28.3894 28.1 28.3834 28.0883 28.3798C28.077 28.3762 28.0647 28.375 28.0527 28.3763C28.0017 28.3763 27.9453 28.3831 27.9507 28.4459C27.9527 28.4603 27.9573 28.4742 27.965 28.4867C27.9723 28.4991 27.9823 28.51 27.9943 28.5184C28.006 28.5269 28.0197 28.5328 28.034 28.5358C28.0483 28.5388 28.063 28.5389 28.0773 28.5359C28.0963 28.5346 28.1143 28.5261 28.1273 28.5121C28.1403 28.4982 28.149 28.4799 28.149 28.4609Z" fill="#FF9C0B"/>
<path d="M28.1316 28.4615C28.1316 28.4807 28.1243 28.4992 28.1109 28.5131C28.0976 28.5271 28.0796 28.5354 28.0603 28.5365C28.0459 28.5394 28.0309 28.5394 28.0166 28.5364C28.0023 28.5334 27.9889 28.5274 27.9769 28.519C27.9649 28.5105 27.9549 28.4997 27.9476 28.4872C27.9403 28.4747 27.9353 28.4609 27.9336 28.4464C27.9336 28.3837 27.9846 28.3755 28.0353 28.3769C28.0473 28.3755 28.0596 28.3767 28.0713 28.3803C28.0826 28.384 28.0933 28.39 28.1026 28.3979C28.1116 28.4059 28.1189 28.4157 28.1239 28.4266C28.1289 28.4376 28.1316 28.4494 28.1316 28.4615Z" fill="#FEA016"/>
</g>
</g>
</svg>
