<svg width="129" height="40" viewBox="0 0 129 40" fill="none" xmlns="http://www.w3.org/2000/svg">
<mask id="mask0_2033_311" style="mask-type:luminance" maskUnits="userSpaceOnUse" x="0" y="0" width="129" height="40">
<path d="M128.969 0H0.693359V40H128.969V0Z" fill="white"/>
</mask>
<g mask="url(#mask0_2033_311)">
<mask id="mask1_2033_311" style="mask-type:luminance" maskUnits="userSpaceOnUse" x="0" y="0" width="129" height="40">
<path d="M128.969 0H0.693359V40H128.969V0Z" fill="white"/>
</mask>
<g mask="url(#mask1_2033_311)">
<path d="M66.5088 39.0353C66.5695 39.0159 66.6349 39.0142 66.6966 39.0306C66.7582 39.047 66.8135 39.0806 66.8554 39.1273C66.7953 39.152 66.7284 39.1564 66.6654 39.1397C66.6025 39.123 66.5473 39.0861 66.5088 39.0353Z" fill="#298EE6"/>
<path d="M105.014 33.4898C105.057 33.4117 105.109 33.4005 105.173 33.4703L105.014 33.4898Z" fill="#0F3A90"/>
<path d="M104.86 33.6179L104.982 33.5009C104.979 33.5311 104.966 33.5593 104.943 33.5808C104.921 33.6022 104.891 33.6153 104.86 33.6179Z" fill="#0F3A90"/>
<path d="M93.9302 1.52152C93.7343 1.47346 93.5412 1.41387 93.3529 1.34318C90.4226 0.394008 87.3447 -0.0604063 84.2543 -6.14231e-05C80.3143 -0.0697166 76.435 0.939042 73.0647 2.90939C71.5529 3.76511 70.2522 4.9289 69.2549 6.31952C68.2571 7.71008 67.5859 9.29401 67.288 10.9607C67.0357 12.1528 67.0422 13.3825 67.3073 14.5721C67.5722 15.7617 68.0899 16.8853 68.8275 17.8721C69.7619 19.0761 70.8902 20.1281 72.1695 20.9879C73.704 21.9972 75.3219 22.8826 77.0074 23.6354C78.2405 24.1821 79.3888 24.8901 80.4212 25.7395C80.8081 26.0364 81.1143 26.4193 81.3143 26.8555C81.5143 27.2916 81.6019 27.768 81.5688 28.2438C81.5364 28.7196 81.3847 29.1807 81.1267 29.5877C80.8695 29.9946 80.5129 30.3352 80.0895 30.5803C79.0212 31.2732 77.7833 31.6835 76.4991 31.7703C73.5647 32.0357 70.606 31.6722 67.834 30.7057C66.9328 30.3992 66.0633 30.0312 65.1969 29.6439C64.7116 29.4266 64.7058 29.4405 64.5671 29.9588C64.563 29.9827 64.5562 30.006 64.547 30.0285C63.9867 32.4865 63.4465 34.9473 62.866 37.4026C62.8348 37.4742 62.8208 37.5517 62.8249 37.6294C62.829 37.707 62.8512 37.7827 62.8898 37.851C62.9283 37.9192 62.9822 37.9782 63.0476 38.0236C63.113 38.069 63.1881 38.0996 63.2674 38.1132C64.32 38.5057 65.4038 38.815 66.5082 39.0385C66.5689 39.019 66.6342 39.0173 66.696 39.0337C66.7576 39.0501 66.8129 39.0837 66.8548 39.1304L67.1436 39.1722C67.5783 39.3775 68.0619 39.467 68.5444 39.4314L68.7842 39.4648C68.8502 39.5268 68.934 39.5681 69.0247 39.5835C69.1153 39.5989 69.2086 39.5877 69.2926 39.5512L69.6709 39.5986C70.0819 39.7544 70.5281 39.8044 70.9647 39.7435L70.9998 39.7575H71.0371C71.3888 39.891 71.7743 39.9201 72.1433 39.841L72.984 39.8912C73.9488 40.0455 74.9336 40.0455 75.8984 39.8912L76.2853 39.8634L76.3316 39.8912L76.375 39.8578L76.7564 39.8104C77.4267 39.8665 78.1019 39.7984 78.746 39.6098L78.9888 39.5708C79.4288 39.6038 79.8695 39.5189 80.2626 39.3255L80.6384 39.2558C80.6984 39.2854 80.7681 39.2935 80.8336 39.2787C80.8998 39.2639 80.9584 39.2272 80.9991 39.175L81.2274 39.0998C81.2467 39.1139 81.2688 39.1235 81.2922 39.1279C81.3164 39.1324 81.3405 39.1315 81.364 39.1252C81.3867 39.119 81.4081 39.1077 81.426 39.0921C81.444 39.0766 81.4584 39.0573 81.4674 39.0357L81.8515 38.9409C81.8667 38.9539 81.8853 38.963 81.9046 38.9671C81.9247 38.9712 81.9453 38.9703 81.9653 38.9644C81.9847 38.9585 82.0019 38.9479 82.0164 38.9335C82.0302 38.9191 82.0398 38.9015 82.0447 38.8824L82.2991 38.7988C82.3164 38.8114 82.3364 38.82 82.3578 38.8239C82.3791 38.8278 82.4012 38.8269 82.4226 38.8212C82.4433 38.8155 82.4626 38.8053 82.4784 38.7912C82.495 38.7772 82.5074 38.7598 82.5157 38.7403L82.744 38.6622C82.7619 38.6735 82.7826 38.6804 82.804 38.6826C82.8253 38.6848 82.8474 38.6822 82.8674 38.6749C82.8874 38.6676 82.9053 38.6558 82.9205 38.6406C82.935 38.6253 82.946 38.607 82.9515 38.587L83.1971 38.5034L83.2578 38.5257L83.2695 38.4588C84.3626 38.0986 85.4047 37.608 86.3716 36.9985C87.9778 36.0817 89.346 34.8226 90.3709 33.3175C91.3957 31.8124 92.0502 30.1012 92.284 28.3146C92.5288 27.0224 92.4888 25.6952 92.1667 24.4189C91.8447 23.1427 91.2481 21.9461 90.415 20.907C89.3729 19.6944 88.1295 18.6566 86.7357 17.8359C85.1495 16.8521 83.4633 16.0468 81.8053 15.1856C80.6667 14.6695 79.6233 13.9787 78.7143 13.14C78.4564 12.9148 78.2509 12.6389 78.1115 12.3308C77.9729 12.0227 77.904 11.6895 77.9095 11.3535C77.915 11.0176 77.9943 10.6867 78.1433 10.3829C78.2922 10.0792 78.5067 9.80966 78.7722 9.59235C79.0226 9.3527 79.3053 9.14649 79.6129 8.97925C80.6943 8.40056 81.906 8.0858 83.1426 8.06235C86.0874 7.9229 89.0274 8.42187 91.7467 9.5227C91.9812 9.65883 92.2453 9.74083 92.5178 9.76235C92.5578 9.69697 92.5909 9.62787 92.6164 9.55614C93.1764 7.09532 93.7226 4.63449 94.286 2.17649C94.364 1.83925 94.3322 1.61911 93.9274 1.52711" fill="#142E79"/>
<path d="M49.3456 0.76331C49.3031 0.737793 49.2561 0.719861 49.2069 0.710344C45.8179 0.710344 42.4269 0.710344 39.0341 0.710344C38.8978 0.695999 38.7609 0.730344 38.6491 0.806895C38.5373 0.883378 38.4585 0.996758 38.4276 1.12559C38.1907 1.73869 37.922 2.34069 37.6708 2.94821C35.466 8.27669 33.2611 13.6043 31.0564 18.931C30.109 21.2273 29.1664 23.5246 28.2287 25.8229L27.8618 26.7035C27.5412 26.6478 27.6105 26.383 27.573 26.1852C27.0165 23.3295 26.4629 20.4758 25.9122 17.6239C25.0919 13.3906 24.2542 9.16297 23.4599 4.91855C23.2895 3.70724 22.6504 2.6031 21.671 1.82766C20.6916 1.05228 19.4445 0.663035 18.18 0.738207C12.8567 0.819035 7.54496 0.782827 2.22456 0.793931C1.89818 0.793931 1.57179 0.793931 1.2454 0.793931C1.17184 0.782551 1.09643 0.79393 1.03001 0.826482C0.963581 0.859034 0.909554 0.911102 0.875688 0.975102C0.529082 1.63283 0.656171 1.93655 1.38693 2.08986C1.69389 2.19538 2.01713 2.25 2.34298 2.25152C2.46012 2.33366 2.60271 2.3749 2.74736 2.36855C2.75703 2.3849 2.77016 2.3991 2.78592 2.41021C2.80166 2.42138 2.81967 2.42917 2.83876 2.4331C2.85784 2.43703 2.87758 2.43703 2.89667 2.4331C2.91576 2.42924 2.93378 2.42145 2.94954 2.41034C2.99594 2.45193 3.05149 2.48276 3.11202 2.50062C3.17256 2.51848 3.23649 2.5229 3.29904 2.51345L7.21568 3.65048L7.25612 3.68676H7.311C7.31592 3.70179 7.32454 3.71545 7.33613 3.72655C7.34772 3.73772 7.36194 3.74593 7.37756 3.75062C7.39318 3.75524 7.40974 3.75621 7.42581 3.75331C7.44189 3.75041 7.45701 3.74386 7.46986 3.73414L7.73563 3.82607C8.03052 4.01724 8.36438 4.14552 8.71473 4.20228L8.93714 4.28035H8.96894L9.29245 4.40855C9.31845 4.48379 9.36756 4.49214 9.43107 4.46152L9.68528 4.56462C9.97818 4.78469 10.3172 4.94062 10.6789 5.02165L10.9244 5.14145C10.9381 5.17952 10.9654 5.21159 11.0014 5.232C11.0373 5.25241 11.0796 5.25979 11.1208 5.25296C11.1209 5.26179 11.1233 5.27048 11.1278 5.27821C11.1322 5.28586 11.1387 5.29242 11.1464 5.2971C11.1542 5.30179 11.163 5.30462 11.1722 5.30517C11.1813 5.30573 11.1905 5.30407 11.1987 5.30035L11.2132 5.34772H11.2623L11.4009 5.43966C11.4538 5.52 11.5236 5.58876 11.6056 5.64159C11.6877 5.69435 11.7803 5.73 11.8776 5.74621L12.4552 6.36214H12.4754H12.4696L12.8509 6.93903C12.839 6.97828 12.8425 7.02035 12.8605 7.05731C12.8787 7.09428 12.9102 7.12359 12.9491 7.13966L13.0531 7.39324C13.0531 7.41276 13.0271 7.43786 13.0329 7.44904C13.0542 7.48331 13.0784 7.51593 13.1051 7.54655L13.1831 7.79455C13.1699 7.84166 13.1711 7.89145 13.1864 7.93786C13.2018 7.98434 13.2307 8.02552 13.2698 8.05655C13.2588 8.18931 13.3011 8.32103 13.3882 8.42441L13.3564 8.44669L13.4084 8.4551L13.4517 8.64738C13.4359 8.7209 13.4381 8.79704 13.4581 8.86959C13.4782 8.94214 13.5156 9.00924 13.5672 9.06538C13.5571 9.12014 13.56 9.17634 13.5755 9.22993C13.591 9.28345 13.6187 9.33296 13.6568 9.37476C13.6411 9.4229 13.6393 9.47428 13.6515 9.52331C13.6637 9.57241 13.6895 9.61738 13.7261 9.65345C13.7127 9.70779 13.7123 9.76435 13.7249 9.81883C13.7373 9.87338 13.7625 9.92448 13.7983 9.96835C14.0788 11.3396 14.4365 12.6951 14.8699 14.0288C14.8709 14.1959 14.9188 14.3597 15.0085 14.5026C14.9945 14.5184 14.9846 14.5372 14.9794 14.5574C14.9742 14.5776 14.974 14.5987 14.9788 14.619C14.9836 14.6392 14.9932 14.6582 15.0069 14.6743C15.0205 14.6903 15.0379 14.7032 15.0576 14.7116L15.1125 14.9123C15.0946 14.9846 15.0955 15.0602 15.1151 15.1321C15.1348 15.2041 15.1726 15.2703 15.2251 15.3247C15.2122 15.4456 15.2439 15.567 15.3147 15.6675C15.2569 15.7567 15.3002 15.8263 15.3551 15.896L15.7191 17.3731L15.826 17.6517C15.8189 17.7081 15.8242 17.7654 15.8417 17.8196C15.8591 17.8739 15.8882 17.924 15.927 17.9667C15.9087 18.0131 15.9036 18.0634 15.9122 18.1125C15.9209 18.1614 15.9429 18.2074 15.9761 18.2454C15.9654 18.329 15.9736 18.4139 16 18.4942C16.0264 18.5746 16.0705 18.6484 16.1292 18.7108L16.2043 18.9894C16.1866 19.047 16.1845 19.1079 16.1982 19.1665C16.2118 19.225 16.2408 19.2792 16.2823 19.3239L16.3545 19.5691C16.3405 19.6258 16.3405 19.6848 16.3546 19.7415C16.3686 19.7981 16.3963 19.8508 16.4354 19.8952C16.4258 19.9627 16.4307 20.0314 16.4496 20.097C16.4685 20.1626 16.5009 20.2239 16.5451 20.277C16.5954 20.7666 16.7199 21.2465 16.9149 21.7011C16.9042 21.8444 16.9394 21.9874 17.016 22.1108H17.0246L17.0824 22.3588C17.0661 22.4181 17.0663 22.4806 17.0831 22.5398C17.0998 22.599 17.1325 22.6529 17.1777 22.696C17.1685 22.8357 17.2037 22.9748 17.2788 23.0946C17.2239 23.1753 17.2557 23.2283 17.3308 23.2785C17.3219 23.4222 17.3636 23.5646 17.4492 23.6826C17.4492 23.6992 17.4174 23.7243 17.4232 23.7355C17.4405 23.7697 17.4608 23.8023 17.4839 23.833C17.4712 23.9842 17.5108 24.1351 17.5965 24.2622L17.634 24.4099C17.6254 24.5641 17.6667 24.7171 17.7525 24.8475C17.7525 24.8642 17.7207 24.8865 17.7265 24.8921C17.7442 24.9207 17.7645 24.9477 17.7871 24.9729C17.7774 25.1333 17.8188 25.2928 17.9056 25.4299C17.9056 25.4466 17.8709 25.469 17.8767 25.4773C17.8941 25.5087 17.9145 25.5386 17.9374 25.5665L18.0269 25.8452C18.0371 26.1785 18.1167 26.5064 18.2609 26.8095C18.2517 26.9243 18.2889 27.0381 18.3649 27.1271C18.3924 27.5574 18.5 27.9794 18.6825 28.3728L18.7461 28.6014C18.7305 28.6458 18.7289 28.6937 18.7418 28.7389C18.7547 28.7841 18.7813 28.8246 18.8183 28.855C18.8035 29.0308 18.8525 29.2062 18.9569 29.351C18.9569 29.3678 18.9252 29.3928 18.9309 29.404C18.9471 29.439 18.9665 29.4726 18.9887 29.5043L19.0551 29.7663C19.0376 29.824 19.0358 29.8852 19.0499 29.9438C19.0641 30.0024 19.0938 30.0565 19.136 30.1007C19.1271 30.2496 19.1709 30.397 19.2602 30.5188C19.2602 30.5354 19.2256 30.5578 19.2313 30.5661C19.2489 30.5975 19.2692 30.6273 19.292 30.6553C19.2862 30.6639 19.2824 30.6734 19.2806 30.6834C19.2788 30.6934 19.2791 30.7037 19.2816 30.7137C19.284 30.7235 19.2885 30.7328 19.2947 30.741C19.301 30.7492 19.3089 30.7561 19.318 30.7612C19.2992 30.8312 19.2983 30.9046 19.3154 30.975C19.3325 31.0454 19.3671 31.1107 19.4162 31.1653C19.4089 31.3396 19.4573 31.5118 19.5549 31.6586C19.5549 31.6781 19.526 31.7032 19.5318 31.7171C19.5508 31.755 19.573 31.7914 19.5982 31.8258C19.5871 31.9759 19.6289 32.125 19.7166 32.2494C19.7166 32.2661 19.6848 32.2884 19.6906 32.2996C19.7081 32.3327 19.7284 32.3644 19.7513 32.3943C19.7358 32.5322 19.7773 32.6704 19.8668 32.7789C19.842 32.8246 19.834 32.8769 19.844 32.9274C19.854 32.9781 19.8814 33.0239 19.9217 33.0576C19.913 33.1145 19.917 33.1725 19.9335 33.2278C19.9499 33.283 19.9784 33.3343 20.017 33.3781C19.9982 33.6092 20.0602 33.8399 20.1931 34.033C20.1816 34.1019 20.1842 34.1724 20.2011 34.2404C20.2179 34.3083 20.2487 34.3723 20.2913 34.4288C20.2913 34.4483 20.2625 34.4761 20.2711 34.4901C20.2931 34.5282 20.3182 34.5646 20.3462 34.5988C20.3305 34.7319 20.3665 34.866 20.4473 34.975C20.4251 35.2534 20.4949 35.5315 20.6467 35.7692C20.6378 35.9148 20.6773 36.0592 20.7593 36.1817C20.7354 36.2142 20.7249 36.2541 20.7297 36.2938C20.7345 36.3334 20.7543 36.3699 20.7853 36.3963C20.7689 36.4543 20.7667 36.5151 20.7787 36.5741C20.7907 36.6331 20.8167 36.6886 20.8546 36.7363C20.872 36.8059 20.8546 36.8895 20.9471 36.9258C20.9411 37.0592 20.9796 37.1911 21.0568 37.302C21.0319 37.3478 21.024 37.4005 21.0345 37.4512C21.0451 37.5019 21.0733 37.5477 21.1146 37.5807C21.1089 37.7128 21.1485 37.8431 21.2272 37.9513C21.2272 37.9513 21.1926 37.9848 21.1983 37.9903C21.2145 38.0117 21.2329 38.0313 21.2532 38.0489L21.337 38.361C21.3102 38.4074 21.3025 38.4618 21.3153 38.5134C21.3282 38.565 21.3607 38.6101 21.4063 38.6397C21.4016 38.8018 21.4436 38.9619 21.5276 39.1023L21.4958 39.1107L21.542 39.1274C21.5452 39.1728 21.564 39.2157 21.5954 39.2496C21.6268 39.2834 21.669 39.3061 21.7154 39.3141C21.8049 39.4479 21.9407 39.3838 22.0533 39.3838C25.0052 39.3838 27.9581 39.3838 30.912 39.3838C31.4073 39.4272 31.9065 39.4076 32.3966 39.3252C32.4468 39.3229 32.4953 39.3067 32.5362 39.2785C32.5772 39.2503 32.6089 39.2114 32.6276 39.1664C32.9524 38.5186 33.2331 37.8512 33.4682 37.1682C33.6493 36.8974 33.7813 36.5986 33.8581 36.2848C33.9621 36.0925 34.0776 35.9058 34.1642 35.7051L37.5957 27.8768C41.4738 18.9941 45.3577 10.1132 49.2474 1.23428C49.3109 1.08938 49.4611 0.955587 49.3398 0.76607M22.4548 39.303L23.8989 39.2863L22.4548 39.3002" fill="#12255D"/>
<path d="M17.5652 24.3067C17.5836 24.3401 17.6049 24.3717 17.6291 24.4014L17.5913 24.2538C17.5913 24.2705 17.5594 24.2956 17.5652 24.3067Z" fill="#12255D"/>
<path d="M8.96705 4.28607H8.93457L8.95229 4.32511V4.29449" fill="#12255D"/>
<path d="M120.923 1.4632C120.784 0.922513 120.882 0.685686 120.056 0.685686H111.995C111.517 0.684514 111.041 0.743546 110.58 0.861202C109.833 1.06093 109.148 1.4341 108.585 1.94803C108.022 2.46203 107.598 3.1012 107.351 3.80975C106.091 6.76382 104.8 9.70679 103.511 12.6497C99.9147 20.8561 96.3154 29.0616 92.7147 37.2662C92.4257 37.9044 92.1692 38.5509 91.874 39.2449C92.7457 39.3175 93.6202 39.337 94.494 39.3033C97.0044 39.3033 99.5168 39.3033 102.027 39.3033C102.426 39.3033 102.726 39.2839 102.893 38.8184C103.515 37.0739 104.191 35.3488 104.846 33.6182L104.97 33.5011H105.002C105.045 33.4231 105.097 33.4119 105.161 33.4816C106.014 33.5422 106.87 33.5422 107.723 33.4816C107.764 33.5058 107.812 33.5155 107.86 33.5089C107.907 33.5023 107.951 33.4798 107.983 33.4453C108.011 33.4716 108.047 33.4885 108.086 33.4935C108.125 33.4985 108.165 33.4914 108.2 33.4732C108.264 33.5002 108.333 33.514 108.403 33.514C108.473 33.514 108.542 33.5002 108.606 33.4732C108.664 33.5016 108.729 33.512 108.793 33.5031C108.856 33.494 108.915 33.4661 108.962 33.4231C108.978 33.4484 109.001 33.4696 109.028 33.485C109.055 33.5003 109.084 33.5093 109.115 33.5111C109.146 33.5131 109.177 33.5078 109.206 33.4959C109.235 33.484 109.26 33.4657 109.28 33.4426H109.306C109.333 33.4722 109.37 33.4913 109.41 33.4965C109.451 33.5016 109.491 33.4924 109.525 33.4704H109.69C109.73 33.492 109.774 33.5032 109.82 33.5032C109.865 33.5032 109.91 33.492 109.95 33.4704C110.164 33.5315 110.391 33.5315 110.606 33.4704C110.644 33.4917 110.689 33.5029 110.734 33.5029C110.779 33.5029 110.823 33.4917 110.862 33.4704C111.367 33.5295 111.877 33.5295 112.382 33.4704C112.432 33.4941 112.486 33.5064 112.542 33.5064C112.597 33.5064 112.653 33.4941 112.702 33.4704C114.508 33.5317 116.313 33.5095 118.118 33.4927C118.217 33.6335 118.283 33.7932 118.312 33.9609C118.635 35.4798 118.97 36.9931 119.291 38.5119C119.455 39.2978 119.441 39.3033 120.229 39.3062H125.717C126.648 39.3062 127.575 39.2866 128.505 39.3062C128.877 39.3062 129.011 39.1724 128.915 38.824C128.883 38.707 128.869 38.5871 128.843 38.4673C128.011 34.5285 127.179 30.5898 126.347 26.651C125.315 21.8204 124.275 16.9898 123.228 12.1592C122.809 10.2084 122.442 8.25761 121.94 6.34024C121.702 4.83534 121.315 3.36665 121.012 1.8812M102.949 29.2233C102.92 29.2233 102.867 29.1926 102.827 29.1759C102.844 29.1341 102.856 29.0728 102.885 29.0616C102.914 29.0504 102.966 29.0895 103.009 29.1062C102.992 29.148 102.98 29.2093 102.951 29.2204M115.683 25.6171H108.679C107.951 25.6171 107.931 25.5975 108.188 24.9231C109.88 20.4455 111.578 15.9689 113.28 11.4931C113.333 11.4104 113.393 11.3322 113.459 11.2591C113.615 11.9168 113.748 12.4742 113.881 13.0371C114.72 16.9387 115.554 20.8487 116.382 24.7671C116.567 25.6282 116.564 25.6198 115.68 25.6198" fill="#0A3192"/>
<path d="M103.002 29.1092C102.985 29.151 102.973 29.2123 102.945 29.2234C102.916 29.2345 102.864 29.1928 102.82 29.1761C102.838 29.1342 102.849 29.0729 102.878 29.0618C102.907 29.0506 102.959 29.0896 103.002 29.1092Z" fill="#0F3A90"/>
<path d="M63.6145 0.697284H62.1068C59.6035 0.697284 57.0925 0.697284 54.5739 0.697284C53.976 0.697284 53.9702 0.697281 53.8345 1.25466C53.6534 2.00894 53.4782 2.76515 53.3088 3.52315C51.8337 10.0779 50.3588 16.6326 48.8838 23.1873C47.7284 28.3449 46.5615 33.5025 45.3831 38.66C45.2444 39.3038 45.2444 39.3094 45.903 39.3122H50.4233H54.9436C55.605 39.3122 55.6079 39.3122 55.7552 38.6545C56.2848 36.3377 56.8134 34.0153 57.341 31.6873C59.2376 23.2877 61.1325 14.888 63.0253 6.48839C63.4094 4.7828 63.785 3.07728 64.1806 1.37446C64.3337 0.700042 64.3713 0.677766 63.6203 0.67218" fill="#0F215F"/>
</g>
</g>
</svg>
