<svg width="118" height="40" viewBox="0 0 118 40" fill="none" xmlns="http://www.w3.org/2000/svg">
<path d="M93.8908 3.93034L103.683 2.18669V39.5974H93.8908V3.93034ZM108.194 3.93034V39.5974H117.997V2.18669L108.194 3.93034ZM79.9388 39.5974H89.7394V12.2347H79.9388V39.5974ZM15.1805 16.104C13.9417 16.0235 11.0742 15.8393 11.0742 13.2707C11.0742 10.172 15.2028 10.172 16.7508 10.172C19.4737 10.172 22.9994 10.9717 25.5176 11.7214C25.5176 11.7214 26.9222 12.2139 28.1176 12.7185L28.2285 12.7487V12.6362V4.26086L28.0765 4.216C25.1045 3.18189 21.6491 2.18691 15.2428 2.18691C4.19596 2.18691 0.282227 8.58874 0.282227 14.0731C0.282227 17.2346 1.64393 24.6758 14.2948 25.5342C15.3674 25.5991 18.2131 25.7627 18.2131 28.4165C18.2131 30.6078 15.8834 31.8999 11.9645 31.8999C7.67021 31.8999 3.50279 30.8102 0.973075 29.777V38.5183C4.76165 39.5059 9.03136 40 14.0371 40C24.8376 40 29.6748 33.9429 29.6748 27.9395C29.6748 21.1327 24.2611 16.709 15.1805 16.104ZM74.4154 11.834C65.3588 12.1235 60.7605 16.1657 60.7605 24.2018V39.5974H70.6422V27.0425C70.6422 22.2311 71.2759 20.1674 77.0142 19.9714V11.9753C76.0491 11.7711 74.4154 11.834 74.4154 11.834ZM47.8325 12.2031C47.6142 12.7487 46.0462 17.158 42.2502 21.7285V2.18669L32.1388 4.17486V39.5972H42.2502V28.6479C45.1794 33.0174 46.6251 39.5972 46.6251 39.5972H58.7371C57.5394 34.6417 52.2982 25.5051 52.2982 25.5051C57.0017 19.5723 59.0674 13.2512 59.3959 12.2031H47.8325ZM84.8365 9.60977C87.5056 9.60977 89.6679 7.45949 89.6679 4.8064C89.6679 2.15309 87.5056 0 84.8365 0C82.1714 0 80.0091 2.15309 80.0091 4.8064C80.0091 7.4592 82.1714 9.60977 84.8365 9.60977Z" fill="#862165"/>
</svg>
