<svg width="225" height="38" viewBox="0 0 225 38" fill="none" xmlns="http://www.w3.org/2000/svg">
<path d="M218.665 26.7554C217.237 26.8234 215.913 27.4689 214.966 28.5221C214.018 29.5752 213.505 30.9682 213.577 32.3951C213.713 35.3509 216.257 37.6611 219.204 37.4912C222.157 37.3553 224.468 34.8073 224.299 31.8515C224.162 28.8958 221.651 26.6195 218.665 26.7554ZM214.492 32.3612C214.421 31.172 214.83 30.017 215.647 29.1336C216.459 28.2502 217.542 27.7406 218.73 27.6727C221.177 27.5368 223.28 29.4394 223.416 31.9195C223.416 31.9875 223.416 32.0893 223.416 32.1573C223.416 34.5015 221.547 36.5059 219.171 36.6079C216.731 36.7438 214.628 34.8413 214.492 32.3612Z" fill="#8CC63F"/>
<path d="M216.92 34.5L216.693 29.6262L218.58 29.5108C218.956 29.482 219.259 29.5108 219.461 29.5973C219.658 29.6839 219.837 29.8281 219.962 30.0299C220.087 30.2318 220.164 30.4914 220.164 30.7509C220.188 31.097 220.087 31.3854 219.914 31.6449C219.735 31.9045 219.432 32.0487 219.033 32.1641C219.182 32.2506 219.307 32.3082 219.384 32.3947C219.557 32.5678 219.711 32.7696 219.885 33.0292L220.693 34.327L219.986 34.3558L219.384 33.3753C219.206 33.0869 219.057 32.885 218.956 32.712C218.855 32.5678 218.754 32.4524 218.652 32.3947C218.58 32.337 218.479 32.3082 218.402 32.2794C218.325 32.2794 218.224 32.2794 218.075 32.2794L217.42 32.3082L217.521 34.4712L216.92 34.5ZM217.343 31.7603L218.551 31.7026C218.806 31.6738 219.004 31.6449 219.158 31.5872C219.307 31.5295 219.408 31.4142 219.485 31.27C219.557 31.1258 219.586 30.9816 219.586 30.8374C219.586 30.6067 219.485 30.4337 219.331 30.2895C219.182 30.1453 218.956 30.0876 218.628 30.1165L217.271 30.203L217.343 31.7603Z" fill="#8CC63F"/>
<path d="M207.703 3.28587C205.022 1.45127 200.921 0.5 195.592 0.5H181.58L176.355 28.8004H158.001L159.188 22.3793H170.248L171.572 15.1768L160.512 15.2108L161.7 8.82365H173.097L174.622 0.533944H151.485L146.532 27.4075H138.05L143.034 0.533944H130.956L126.004 27.4075H117.729L122.713 0.5H110.635L105.41 28.8344H86.9198L88.1074 22.4133H99.1992L100.523 15.2448H89.4315L90.6192 8.82365H102.12L103.613 0.533944H31.5516L27.4433 22.9569L19.2655 0.533944H6.71346L-0.00390625 37.1241H11.9705L16.0464 14.0557L23.984 37.1241H66.9038L72.1285 8.82365H78.8459L73.6212 37.158H186.564L189.822 19.2877L195.118 37.158H207.093L201.596 22.5492L202.855 22.2774C205.6 21.6999 207.774 20.4088 209.267 18.5063C210.76 16.5697 211.539 14.0896 211.539 11.1339C211.603 7.63458 210.318 5.08651 207.703 3.28587ZM56.4871 28.8344H38.1652L39.3528 22.4133H50.8535L52.1775 15.1768H40.7807L41.8646 8.82365H60.1865L56.4871 28.8344ZM197.831 16.5018C196.643 17.3512 194.878 17.7589 192.503 17.7589H191.451H190.127L191.964 7.94033H192.879H193.69C195.657 7.94033 197.117 8.24609 198.136 8.92555C198.915 9.43516 199.83 10.4544 199.83 12.357C199.83 14.5992 198.746 15.8563 197.831 16.5018Z" fill="#8CC63F"/>
</svg>
