<?xml version="1.0" encoding="UTF-8"?>
<svg xmlns="http://www.w3.org/2000/svg" xmlns:xlink="http://www.w3.org/1999/xlink" width="35px" height="21px" viewBox="0 0 35 21" version="1.1">
<g id="surface1">
<path style=" stroke:none;fill-rule:evenodd;fill:rgb(100%,100%,100%);fill-opacity:1;" d="M 34.53125 10.390625 C 34.53125 4.730469 29.988281 0.144531 24.386719 0.144531 C 21.953125 0.144531 19.742188 1.003906 17.996094 2.445312 C 19.328125 3.746094 20.34375 5.371094 20.890625 7.210938 L 20.046875 7.210938 C 19.519531 5.578125 18.589844 4.132812 17.386719 2.976562 C 16.1875 4.128906 15.269531 5.578125 14.742188 7.207031 L 13.898438 7.207031 C 14.441406 5.375 15.445312 3.746094 16.765625 2.453125 C 15.023438 1.027344 12.820312 0.144531 10.40625 0.144531 C 4.796875 0.144531 0.253906 4.730469 0.253906 10.390625 C 0.253906 16.046875 4.796875 20.632812 10.402344 20.632812 C 12.820312 20.632812 15.019531 19.753906 16.761719 18.328125 C 15.441406 17.03125 14.4375 15.402344 13.894531 13.574219 L 14.738281 13.574219 C 15.265625 15.199219 16.183594 16.648438 17.382812 17.804688 C 18.589844 16.644531 19.515625 15.203125 20.042969 13.566406 L 20.886719 13.566406 C 20.339844 15.40625 19.324219 17.035156 17.992188 18.332031 C 19.738281 19.773438 21.949219 20.632812 24.382812 20.632812 C 29.988281 20.632812 34.53125 16.046875 34.53125 10.390625 Z M 34.53125 10.390625 "/>
<path style=" stroke:none;fill-rule:evenodd;fill:rgb(12.156863%,12.156863%,12.156863%);fill-opacity:1;" d="M 27.074219 12.789062 L 27.773438 8.996094 L 28.660156 8.996094 L 28.75 9.371094 C 28.910156 9.183594 29.214844 8.996094 29.730469 8.996094 L 29.453125 9.984375 C 29.203125 9.984375 28.726562 9.917969 28.421875 11.050781 L 28.105469 12.785156 L 27.074219 12.785156 Z M 27.074219 12.789062 "/>
<path style=" stroke:none;fill-rule:evenodd;fill:rgb(12.156863%,12.156863%,12.156863%);fill-opacity:1;" d="M 13.5 8.035156 L 14.519531 8.035156 L 14.308594 9.039062 L 14.859375 9.039062 L 14.675781 9.859375 L 14.15625 9.859375 L 13.867188 11.390625 C 13.8125 11.679688 13.839844 11.945312 14.429688 11.851562 L 14.363281 12.617188 C 14.140625 12.765625 13.839844 12.804688 13.605469 12.804688 C 13.367188 12.804688 12.597656 12.65625 12.792969 11.628906 Z M 13.5 8.035156 "/>
<path style=" stroke:none;fill-rule:evenodd;fill:rgb(12.156863%,12.156863%,12.156863%);fill-opacity:1;" d="M 17.925781 11.101562 C 18.042969 10.492188 18.316406 8.984375 16.523438 8.984375 C 14.875 8.984375 14.664062 10.636719 14.625 10.875 C 14.585938 11.113281 14.558594 12.789062 16.328125 12.789062 C 16.757812 12.804688 17.386719 12.75 17.636719 12.617188 L 17.792969 11.839844 C 17.636719 11.878906 17.046875 11.929688 16.640625 11.929688 C 16.234375 11.929688 15.582031 11.957031 15.699219 11.097656 L 17.925781 11.097656 Z M 17.925781 11.101562 "/>
<path style=" stroke:none;fill-rule:evenodd;fill:rgb(12.156863%,12.156863%,12.156863%);fill-opacity:1;" d="M 12.53125 9.886719 L 12.769531 9.121094 C 12.285156 8.933594 11.902344 8.972656 11.757812 8.972656 C 11.613281 8.972656 10.390625 8.957031 10.203125 9.871094 C 10.058594 10.574219 10.3125 10.863281 10.554688 10.96875 C 10.949219 11.140625 11.171875 11.300781 11.382812 11.402344 C 11.640625 11.535156 11.589844 11.972656 11.25 11.972656 C 11.09375 11.972656 10.414062 12.050781 9.902344 11.878906 L 9.757812 12.65625 C 10.230469 12.789062 10.609375 12.789062 10.960938 12.789062 C 11.210938 12.789062 12.425781 12.855469 12.597656 11.71875 C 12.683594 11.164062 12.441406 10.914062 12.246094 10.792969 C 12.046875 10.660156 11.722656 10.476562 11.511719 10.382812 C 11.304688 10.292969 11.144531 9.933594 11.527344 9.828125 C 11.757812 9.808594 12.242188 9.808594 12.53125 9.886719 Z M 12.53125 9.886719 "/>
<path style=" stroke:none;fill-rule:evenodd;fill:rgb(12.156863%,12.156863%,12.156863%);fill-opacity:1;" d="M 5.910156 12.792969 L 6.761719 8.21875 L 5.085938 8.21875 L 3.84375 10.996094 L 3.648438 8.21875 L 2.011719 8.21875 L 1.132812 12.792969 L 2.15625 12.792969 L 2.785156 9.488281 L 3.058594 12.792969 L 4.027344 12.792969 L 5.453125 9.570312 L 4.851562 12.792969 Z M 5.910156 12.792969 "/>
<path style=" stroke:none;fill-rule:evenodd;fill:rgb(12.156863%,12.156863%,12.156863%);fill-opacity:1;" d="M 7.035156 9.105469 L 6.878906 9.925781 C 7.128906 9.898438 7.796875 9.792969 8.148438 9.808594 C 8.5 9.820312 8.894531 9.765625 8.777344 10.335938 C 8.515625 10.359375 6.679688 10.070312 6.394531 11.65625 C 6.277344 12.4375 6.945312 12.832031 7.46875 12.804688 C 7.988281 12.78125 8.132812 12.714844 8.316406 12.582031 L 8.449219 12.792969 L 9.402344 12.792969 L 9.808594 10.730469 C 9.914062 10.214844 10.085938 8.972656 8.371094 8.972656 C 8.054688 8.988281 7.703125 8.972656 7.035156 9.105469 Z M 7.035156 9.105469 "/>
<path style=" stroke:none;fill-rule:evenodd;fill:rgb(12.156863%,12.156863%,12.156863%);fill-opacity:1;" d="M 23.574219 9.277344 C 23.3125 9.117188 23.128906 9.09375 22.789062 9.09375 C 22.449219 9.09375 21.691406 9.421875 21.546875 10.347656 C 21.378906 11.441406 22.121094 11.984375 23.167969 11.628906 L 23.46875 12.554688 C 23.128906 12.714844 22.789062 12.792969 22.226562 12.792969 C 21.167969 12.792969 20.015625 11.839844 20.539062 9.910156 C 20.925781 8.488281 22.136719 7.96875 22.84375 7.996094 C 23.679688 8.027344 23.980469 8.3125 24.242188 8.605469 Z M 23.574219 9.277344 "/>
<path style=" stroke:none;fill-rule:evenodd;fill:rgb(12.156863%,12.156863%,12.156863%);fill-opacity:1;" d="M 32.28125 9.4375 C 32.082031 9.289062 31.964844 8.988281 31.484375 8.988281 C 30.917969 8.988281 30.042969 8.882812 29.546875 10.601562 C 29.214844 11.75 29.886719 12.792969 30.617188 12.792969 C 30.960938 12.78125 31.300781 12.632812 31.507812 12.492188 L 31.636719 12.792969 L 32.738281 12.792969 L 33.628906 7.984375 L 32.554688 7.984375 Z M 32.28125 9.4375 "/>
<path style=" stroke:none;fill-rule:evenodd;fill:rgb(12.156863%,12.156863%,12.156863%);fill-opacity:1;" d="M 24.308594 9.105469 L 24.152344 9.925781 C 24.402344 9.898438 25.066406 9.792969 25.421875 9.808594 C 25.773438 9.820312 26.167969 9.765625 26.050781 10.335938 C 25.789062 10.359375 23.953125 10.070312 23.667969 11.65625 C 23.550781 12.4375 24.21875 12.832031 24.742188 12.804688 C 25.261719 12.78125 25.40625 12.714844 25.589844 12.582031 L 25.722656 12.792969 L 26.675781 12.792969 L 27.082031 10.730469 C 27.1875 10.214844 27.359375 8.972656 25.644531 8.972656 C 25.332031 8.988281 24.976562 8.972656 24.308594 9.105469 Z M 24.308594 9.105469 "/>
<path style=" stroke:none;fill-rule:evenodd;fill:rgb(100%,100%,100%);fill-opacity:1;" d="M 15.765625 10.414062 L 17.035156 10.414062 C 17.101562 10.042969 16.980469 9.726562 16.574219 9.726562 C 16.167969 9.726562 15.882812 9.9375 15.765625 10.414062 Z M 15.765625 10.414062 "/>
<path style=" stroke:none;fill-rule:evenodd;fill:rgb(100%,100%,100%);fill-opacity:1;" d="M 8.605469 11.101562 C 8.4375 11.074219 8.058594 10.96875 7.730469 11.191406 C 7.402344 11.417969 7.308594 11.8125 7.652344 11.945312 C 7.980469 12.074219 8.460938 11.855469 8.527344 11.511719 Z M 8.605469 11.101562 "/>
<path style=" stroke:none;fill-rule:evenodd;fill:rgb(100%,100%,100%);fill-opacity:1;" d="M 31.914062 10.980469 C 32.019531 10.640625 31.960938 10.210938 31.847656 10.058594 C 31.535156 9.632812 30.8125 9.96875 30.589844 10.796875 C 30.445312 11.339844 30.761719 11.75 31.113281 11.75 C 31.496094 11.75 31.730469 11.445312 31.914062 10.980469 Z M 31.914062 10.980469 "/>
<path style=" stroke:none;fill-rule:evenodd;fill:rgb(100%,100%,100%);fill-opacity:1;" d="M 25.878906 11.101562 C 25.710938 11.074219 25.328125 10.96875 25.003906 11.191406 C 24.675781 11.417969 24.582031 11.8125 24.925781 11.945312 C 25.25 12.074219 25.734375 11.855469 25.800781 11.511719 Z M 25.878906 11.101562 "/>
<path style=" stroke:none;fill-rule:evenodd;fill:rgb(12.156863%,12.156863%,12.156863%);fill-opacity:1;" d="M 17.953125 12.792969 L 18.648438 9.039062 L 19.527344 9.039062 L 19.617188 9.410156 C 19.773438 9.222656 20.074219 9.039062 20.585938 9.039062 L 20.324219 10.027344 C 20.074219 10.027344 19.589844 9.949219 19.289062 11.074219 L 18.976562 12.789062 L 17.953125 12.789062 Z M 17.953125 12.792969 "/>
</g>
</svg>
