<?xml version="1.0" encoding="UTF-8"?>
<svg xmlns="http://www.w3.org/2000/svg" xmlns:xlink="http://www.w3.org/1999/xlink" width="44px" height="21px" viewBox="0 0 44 21" version="1.1">
<g id="surface1">
<path style=" stroke:none;fill-rule:evenodd;fill:rgb(100%,100%,100%);fill-opacity:1;" d="M 0.0078125 1.53125 C 0.0078125 0.769531 0.621094 0.144531 1.375 0.144531 L 42.535156 0.144531 C 43.285156 0.144531 43.898438 0.769531 43.898438 1.53125 L 43.898438 19.25 C 43.898438 20.011719 43.285156 20.632812 42.535156 20.632812 L 1.375 20.632812 C 0.621094 20.632812 0.0078125 20.011719 0.0078125 19.25 Z M 0.0078125 1.53125 "/>
<path style=" stroke:none;fill-rule:evenodd;fill:rgb(12.156863%,12.156863%,12.156863%);fill-opacity:1;" d="M 0.0078125 2.15625 L 43.898438 2.15625 L 43.898438 18.621094 L 0.0078125 18.621094 Z M 0.0078125 2.15625 "/>
<path style=" stroke:none;fill-rule:evenodd;fill:rgb(100%,100%,100%);fill-opacity:1;" d="M 36.917969 3.183594 C 33.546875 3.105469 31.957031 5.296875 29.65625 8 L 27.484375 10.550781 L 30.921875 14.71875 C 31.742188 16 30.179688 17.273438 29.207031 16.097656 L 26.027344 12.257812 L 22.929688 15.894531 C 21.945312 17.054688 20.398438 15.761719 21.234375 14.492188 L 24.597656 10.53125 L 22.394531 7.867188 L 23.8125 6.089844 L 26.054688 8.816406 L 27.984375 6.539062 C 28.933594 5.421875 29.898438 3.945312 31.152344 3.183594 L 0.0078125 3.183594 L 0.0078125 17.59375 L 7.289062 17.59375 C 10.664062 17.59375 12.195312 15.550781 14.4375 12.796875 L 16.550781 10.195312 L 13.015625 6.109375 C 12.167969 4.847656 13.703125 3.539062 14.699219 4.6875 L 17.964844 8.453125 L 20.980469 4.746094 C 21.941406 3.5625 23.515625 4.820312 22.707031 6.109375 L 19.4375 10.148438 L 21.699219 12.761719 L 20.273438 14.46875 L 18.019531 11.898438 L 16.140625 14.214844 C 15.21875 15.355469 14.285156 16.804688 13.046875 17.59375 L 43.898438 17.59375 L 43.898438 3.183594 Z M 12.917969 10.125 C 12.917969 13.335938 10.332031 15.957031 7.160156 15.957031 C 3.988281 15.957031 1.402344 13.335938 1.402344 10.125 C 1.402344 6.910156 3.988281 4.292969 7.160156 4.292969 C 10.332031 4.292969 12.917969 6.910156 12.917969 10.125 Z M 37.207031 15.957031 C 34.035156 15.957031 31.445312 13.335938 31.445312 10.125 C 31.445312 6.910156 34.035156 4.292969 37.207031 4.292969 C 40.378906 4.292969 42.964844 6.910156 42.964844 10.125 C 42.964844 13.335938 40.378906 15.957031 37.207031 15.957031 Z M 37.207031 15.957031 "/>
</g>
</svg>
