<?xml version="1.0" encoding="UTF-8"?>
<svg xmlns="http://www.w3.org/2000/svg" xmlns:xlink="http://www.w3.org/1999/xlink" width="59px" height="20px" viewBox="0 0 59 20" version="1.1">
<g id="surface1">
<path style=" stroke:none;fill-rule:nonzero;fill:rgb(52.54902%,12.941176%,39.607843%);fill-opacity:1;" d="M 46.945312 1.964844 L 51.839844 1.09375 L 51.839844 19.796875 L 46.945312 19.796875 Z M 54.097656 1.964844 L 54.097656 19.796875 L 59 19.796875 L 59 1.09375 Z M 39.96875 19.796875 L 44.871094 19.796875 L 44.871094 6.117188 L 39.96875 6.117188 Z M 7.589844 8.050781 C 6.972656 8.011719 5.535156 7.917969 5.535156 6.636719 C 5.535156 5.085938 7.601562 5.085938 8.375 5.085938 C 9.738281 5.085938 11.5 5.484375 12.757812 5.859375 C 12.757812 5.859375 13.460938 6.105469 14.058594 6.359375 L 14.113281 6.375 L 14.113281 2.128906 L 14.039062 2.109375 C 12.550781 1.589844 10.824219 1.09375 7.621094 1.09375 C 2.097656 1.09375 0.140625 4.292969 0.140625 7.035156 C 0.140625 8.617188 0.820312 12.339844 7.148438 12.765625 C 7.683594 12.800781 9.105469 12.882812 9.105469 14.207031 C 9.105469 15.304688 7.941406 15.949219 5.980469 15.949219 C 3.835938 15.949219 1.75 15.40625 0.488281 14.886719 L 0.488281 19.257812 C 2.378906 19.753906 4.515625 20 7.019531 20 C 12.417969 20 14.835938 16.972656 14.835938 13.96875 C 14.835938 10.566406 12.128906 8.355469 7.589844 8.050781 Z M 37.207031 5.917969 C 32.679688 6.0625 30.378906 8.082031 30.378906 12.101562 L 30.378906 19.796875 L 35.320312 19.796875 L 35.320312 13.519531 C 35.320312 11.117188 35.636719 10.082031 38.507812 9.984375 L 38.507812 5.988281 C 38.023438 5.886719 37.207031 5.917969 37.207031 5.917969 Z M 23.917969 6.101562 C 23.808594 6.375 23.023438 8.578125 21.125 10.863281 L 21.125 1.09375 L 16.070312 2.085938 L 16.070312 19.796875 L 21.125 19.796875 L 21.125 14.324219 C 22.589844 16.507812 23.3125 19.796875 23.3125 19.796875 L 29.367188 19.796875 C 28.769531 17.320312 26.148438 12.753906 26.148438 12.753906 C 28.5 9.785156 29.535156 6.625 29.699219 6.101562 Z M 42.417969 4.804688 C 43.753906 4.804688 44.832031 3.730469 44.832031 2.402344 C 44.832031 1.078125 43.753906 0 42.417969 0 C 41.085938 0 40.003906 1.078125 40.003906 2.402344 C 40.003906 3.730469 41.085938 4.804688 42.417969 4.804688 Z M 42.417969 4.804688 "/>
</g>
</svg>
