<?xml version="1.0" encoding="UTF-8"?>
<svg xmlns="http://www.w3.org/2000/svg" xmlns:xlink="http://www.w3.org/1999/xlink" width="112px" height="19px" viewBox="0 0 112 19" version="1.1">
<g id="surface1">
<path style=" stroke:none;fill-rule:nonzero;fill:rgb(54.901961%,77.647059%,24.705882%);fill-opacity:1;" d="M 108.847656 13.378906 C 108.136719 13.410156 107.476562 13.734375 107.003906 14.261719 C 106.535156 14.789062 106.277344 15.484375 106.3125 16.199219 C 106.382812 17.675781 107.648438 18.832031 109.113281 18.746094 C 110.585938 18.675781 111.734375 17.402344 111.652344 15.925781 C 111.582031 14.449219 110.332031 13.308594 108.847656 13.378906 Z M 106.769531 16.179688 C 106.734375 15.585938 106.9375 15.007812 107.34375 14.566406 C 107.75 14.125 108.289062 13.871094 108.878906 13.835938 C 110.097656 13.769531 111.144531 14.71875 111.210938 15.960938 C 111.210938 15.992188 111.210938 16.042969 111.210938 16.078125 C 111.210938 17.25 110.28125 18.253906 109.097656 18.304688 C 107.882812 18.371094 106.835938 17.421875 106.769531 16.179688 Z M 106.769531 16.179688 "/>
<path style=" stroke:none;fill-rule:nonzero;fill:rgb(54.901961%,77.647059%,24.705882%);fill-opacity:1;" d="M 107.976562 17.25 L 107.863281 14.8125 L 108.804688 14.753906 C 108.992188 14.742188 109.140625 14.753906 109.242188 14.796875 C 109.339844 14.84375 109.429688 14.914062 109.492188 15.015625 C 109.554688 15.117188 109.59375 15.246094 109.59375 15.375 C 109.605469 15.546875 109.554688 15.691406 109.46875 15.824219 C 109.378906 15.953125 109.226562 16.023438 109.03125 16.082031 C 109.105469 16.125 109.167969 16.152344 109.203125 16.199219 C 109.289062 16.285156 109.367188 16.386719 109.453125 16.515625 L 109.855469 17.164062 L 109.503906 17.179688 L 109.203125 16.6875 C 109.117188 16.542969 109.042969 16.441406 108.992188 16.355469 C 108.941406 16.285156 108.890625 16.226562 108.839844 16.199219 C 108.804688 16.167969 108.753906 16.152344 108.714844 16.140625 C 108.675781 16.140625 108.628906 16.140625 108.554688 16.140625 L 108.226562 16.152344 L 108.277344 17.234375 Z M 108.1875 15.878906 L 108.789062 15.851562 C 108.917969 15.835938 109.015625 15.824219 109.09375 15.792969 C 109.167969 15.765625 109.214844 15.707031 109.253906 15.636719 C 109.289062 15.5625 109.304688 15.492188 109.304688 15.417969 C 109.304688 15.304688 109.253906 15.21875 109.179688 15.144531 C 109.105469 15.074219 108.992188 15.042969 108.828125 15.058594 L 108.152344 15.101562 Z M 108.1875 15.878906 "/>
<path style=" stroke:none;fill-rule:nonzero;fill:rgb(54.901961%,77.647059%,24.705882%);fill-opacity:1;" d="M 103.390625 1.644531 C 102.054688 0.726562 100.015625 0.25 97.363281 0.25 L 90.386719 0.25 L 87.785156 14.398438 L 78.648438 14.398438 L 79.242188 11.191406 L 84.746094 11.191406 L 85.40625 7.589844 L 79.898438 7.605469 L 80.492188 4.410156 L 86.164062 4.410156 L 86.921875 0.265625 L 75.40625 0.265625 L 72.941406 13.703125 L 68.71875 13.703125 L 71.199219 0.265625 L 65.1875 0.265625 L 62.722656 13.703125 L 58.601562 13.703125 L 61.082031 0.25 L 55.070312 0.25 L 52.472656 14.417969 L 43.265625 14.417969 L 43.859375 11.207031 L 49.378906 11.207031 L 50.039062 7.621094 L 44.515625 7.621094 L 45.109375 4.410156 L 50.832031 4.410156 L 51.578125 0.265625 L 15.707031 0.265625 L 13.660156 11.476562 L 9.589844 0.265625 L 3.34375 0.265625 L 0 18.5625 L 5.957031 18.5625 L 7.988281 7.027344 L 11.9375 18.5625 L 33.304688 18.5625 L 35.902344 4.410156 L 39.246094 4.410156 L 36.648438 18.578125 L 92.867188 18.578125 L 94.488281 9.644531 L 97.125 18.578125 L 103.085938 18.578125 L 100.351562 11.273438 L 100.976562 11.140625 C 102.34375 10.851562 103.425781 10.203125 104.167969 9.253906 C 104.910156 8.285156 105.300781 7.042969 105.300781 5.566406 C 105.332031 3.816406 104.691406 2.542969 103.390625 1.644531 Z M 28.117188 14.417969 L 18.996094 14.417969 L 19.589844 11.207031 L 25.3125 11.207031 L 25.972656 7.589844 L 20.300781 7.589844 L 20.839844 4.410156 L 29.960938 4.410156 Z M 98.476562 8.25 C 97.882812 8.675781 97.007812 8.878906 95.824219 8.878906 L 94.640625 8.878906 L 95.554688 3.96875 L 96.414062 3.96875 C 97.394531 3.96875 98.121094 4.121094 98.628906 4.460938 C 99.015625 4.71875 99.472656 5.226562 99.472656 6.179688 C 99.472656 7.300781 98.929688 7.929688 98.476562 8.25 Z M 98.476562 8.25 "/>
</g>
</svg>
