<svg width="41" height="40" viewBox="0 0 41 40" fill="none" xmlns="http://www.w3.org/2000/svg">
<g clip-path="url(#clip0_143_2078)">
<path d="M40.4946 20.887C40.6613 20.6211 40.7498 20.3137 40.7498 20C40.7498 19.6862 40.6613 19.3788 40.4946 19.113C35.0845 10.5053 28.994 6.66663 20.7501 6.66663C12.5063 6.66663 6.4168 10.5053 1.00564 19.113C0.838611 19.3787 0.75 19.6861 0.75 20C0.75 20.3138 0.838611 20.6213 1.00564 20.887C6.4168 29.4946 12.5055 33.3333 20.7501 33.3333C28.9948 33.3333 35.0835 29.4946 40.4946 20.887ZM20.7501 28.3333C19.102 28.3333 17.4908 27.8446 16.1204 26.9289C14.75 26.0132 13.6819 24.7117 13.0511 23.189C12.4204 21.6663 12.2554 19.9907 12.5769 18.3742C12.8985 16.7577 13.6921 15.2728 14.8576 14.1074C16.023 12.942 17.5079 12.1483 19.1244 11.8267C20.7409 11.5052 22.4164 11.6702 23.9392 12.301C25.4619 12.9317 26.7634 13.9998 27.6791 15.3702C28.5947 16.7406 29.0835 18.3518 29.0835 20C29.0809 22.2093 28.2021 24.3274 26.6398 25.8896C25.0776 27.4519 22.9595 28.3307 20.7501 28.3333Z" fill="url(#paint0_linear_143_2078)"/>
<path d="M20.75 25C23.5114 25 25.75 22.7614 25.75 20C25.75 17.2386 23.5114 15 20.75 15C17.9886 15 15.75 17.2386 15.75 20C15.75 22.7614 17.9886 25 20.75 25Z" fill="url(#paint1_linear_143_2078)"/>
<path d="M2.41667 8.33333C2.85869 8.33333 3.28262 8.15774 3.59518 7.84518C3.90774 7.53262 4.08333 7.10869 4.08333 6.66667V3.33333H7.41667C7.85869 3.33333 8.28262 3.15774 8.59518 2.84518C8.90774 2.53262 9.08333 2.10869 9.08333 1.66667C9.08333 1.22464 8.90774 0.800716 8.59518 0.488155C8.28262 0.175595 7.85869 0 7.41667 0L2.41667 0C1.97464 0 1.55072 0.175595 1.23816 0.488155C0.925595 0.800716 0.75 1.22464 0.75 1.66667L0.75 6.66667C0.75 7.10869 0.925595 7.53262 1.23816 7.84518C1.55072 8.15774 1.97464 8.33333 2.41667 8.33333Z" fill="url(#paint2_linear_143_2078)"/>
<path d="M39.0827 0H34.0827C33.6407 0 33.2167 0.175595 32.9042 0.488155C32.5916 0.800716 32.416 1.22464 32.416 1.66667C32.416 2.10869 32.5916 2.53262 32.9042 2.84518C33.2167 3.15774 33.6407 3.33333 34.0827 3.33333H37.416V6.66667C37.416 7.10869 37.5916 7.53262 37.9042 7.84518C38.2167 8.15774 38.6407 8.33333 39.0827 8.33333C39.5247 8.33333 39.9486 8.15774 40.2612 7.84518C40.5738 7.53262 40.7493 7.10869 40.7493 6.66667V1.66667C40.7493 1.22464 40.5738 0.800716 40.2612 0.488155C39.9486 0.175595 39.5247 0 39.0827 0Z" fill="url(#paint3_linear_143_2078)"/>
<path d="M7.41667 36.6666H4.08333V33.3333C4.08333 32.8913 3.90774 32.4673 3.59518 32.1548C3.28262 31.8422 2.85869 31.6666 2.41667 31.6666C1.97464 31.6666 1.55072 31.8422 1.23816 32.1548C0.925595 32.4673 0.75 32.8913 0.75 33.3333L0.75 38.3333C0.75 38.7753 0.925595 39.1992 1.23816 39.5118C1.55072 39.8244 1.97464 40 2.41667 40H7.41667C7.85869 40 8.28262 39.8244 8.59518 39.5118C8.90774 39.1992 9.08333 38.7753 9.08333 38.3333C9.08333 37.8913 8.90774 37.4673 8.59518 37.1548C8.28262 36.8422 7.85869 36.6666 7.41667 36.6666Z" fill="url(#paint4_linear_143_2078)"/>
<path d="M39.0827 31.6666C38.6407 31.6666 38.2167 31.8422 37.9042 32.1548C37.5916 32.4673 37.416 32.8913 37.416 33.3333V36.6666H34.0827C33.6407 36.6666 33.2167 36.8422 32.9042 37.1548C32.5916 37.4673 32.416 37.8913 32.416 38.3333C32.416 38.7753 32.5916 39.1992 32.9042 39.5118C33.2167 39.8244 33.6407 40 34.0827 40H39.0827C39.5247 40 39.9486 39.8244 40.2612 39.5118C40.5738 39.1992 40.7493 38.7753 40.7493 38.3333V33.3333C40.7493 32.8913 40.5738 32.4673 40.2612 32.1548C39.9486 31.8422 39.5247 31.6666 39.0827 31.6666Z" fill="url(#paint5_linear_143_2078)"/>
</g>
<defs>
<linearGradient id="paint0_linear_143_2078" x1="-5.60711" y1="33.3333" x2="48.2854" y2="33.3333" gradientUnits="userSpaceOnUse">
<stop stop-color="#FFD84E"/>
<stop offset="1" stop-color="#7FD6A8"/>
</linearGradient>
<linearGradient id="paint1_linear_143_2078" x1="14.1607" y1="25" x2="27.6339" y2="25" gradientUnits="userSpaceOnUse">
<stop stop-color="#FFD84E"/>
<stop offset="1" stop-color="#7FD6A8"/>
</linearGradient>
<linearGradient id="paint2_linear_143_2078" x1="-0.574405" y1="8.33333" x2="10.6533" y2="8.33333" gradientUnits="userSpaceOnUse">
<stop stop-color="#FFD84E"/>
<stop offset="1" stop-color="#7FD6A8"/>
</linearGradient>
<linearGradient id="paint3_linear_143_2078" x1="31.0916" y1="8.33333" x2="42.3193" y2="8.33333" gradientUnits="userSpaceOnUse">
<stop stop-color="#FFD84E"/>
<stop offset="1" stop-color="#7FD6A8"/>
</linearGradient>
<linearGradient id="paint4_linear_143_2078" x1="-0.574405" y1="40" x2="10.6533" y2="40" gradientUnits="userSpaceOnUse">
<stop stop-color="#FFD84E"/>
<stop offset="1" stop-color="#7FD6A8"/>
</linearGradient>
<linearGradient id="paint5_linear_143_2078" x1="31.0916" y1="40" x2="42.3193" y2="40" gradientUnits="userSpaceOnUse">
<stop stop-color="#FFD84E"/>
<stop offset="1" stop-color="#7FD6A8"/>
</linearGradient>
<clipPath id="clip0_143_2078">
<rect width="40" height="40" fill="white" transform="translate(0.75)"/>
</clipPath>
</defs>
</svg>
