<svg width="41" height="40" viewBox="0 0 41 40" fill="none" xmlns="http://www.w3.org/2000/svg">
<g clip-path="url(#clip0_143_2089)">
<path d="M0.5 31.6666C0.5 32.1087 0.675595 32.5326 0.988155 32.8451C1.30072 33.1577 1.72464 33.3333 2.16667 33.3333H11.7L10.8667 36.6666H8.83333C8.39131 36.6666 7.96738 36.8422 7.65482 37.1548C7.34226 37.4673 7.16667 37.8913 7.16667 38.3333C7.16667 38.7753 7.34226 39.1992 7.65482 39.5118C7.96738 39.8244 8.39131 40 8.83333 40H32.1667C32.6087 40 33.0326 39.8244 33.3452 39.5118C33.6577 39.1992 33.8333 38.7753 33.8333 38.3333C33.8333 37.8913 33.6577 37.4673 33.3452 37.1548C33.0326 36.8422 32.6087 36.6666 32.1667 36.6666H30.1333L29.3 33.3333H38.8333C39.2754 33.3333 39.6993 33.1577 40.0118 32.8451C40.3244 32.5326 40.5 32.1087 40.5 31.6666V26.6666H0.5V31.6666ZM26.698 36.6666H14.3022L15.1355 33.3333H25.8647L26.698 36.6666Z" fill="url(#paint0_linear_143_2089)"/>
<path d="M38.8333 0H2.16667C1.72464 0 1.30072 0.175595 0.988155 0.488155C0.675595 0.800716 0.5 1.22464 0.5 1.66667L0.5 23.3333H40.5V1.66667C40.5 1.22464 40.3244 0.800716 40.0118 0.488155C39.6993 0.175595 39.2754 0 38.8333 0ZM19.6667 10H21.3333C22.3666 9.99896 23.3634 10.3819 24.1303 11.0745C24.8971 11.7671 25.3792 12.7199 25.4831 13.7479C25.5869 14.776 25.3051 15.806 24.6922 16.6379C24.0794 17.4698 23.1793 18.0444 22.1667 18.25V18.3333C22.1667 18.7754 21.9911 19.1993 21.6785 19.5118C21.3659 19.8244 20.942 20 20.5 20C20.058 20 19.634 19.8244 19.3215 19.5118C19.0089 19.1993 18.8333 18.7754 18.8333 18.3333H17.1667C16.7246 18.3333 16.3007 18.1577 15.9882 17.8452C15.6756 17.5326 15.5 17.1087 15.5 16.6667C15.5 16.2246 15.6756 15.8007 15.9882 15.4882C16.3007 15.1756 16.7246 15 17.1667 15H21.3333C21.5543 15 21.7663 14.9122 21.9226 14.7559C22.0789 14.5996 22.1667 14.3877 22.1667 14.1667C22.1667 13.9457 22.0789 13.7337 21.9226 13.5774C21.7663 13.4211 21.5543 13.3333 21.3333 13.3333H19.6667C18.6341 13.3334 17.6383 12.95 16.8723 12.2575C16.1064 11.565 15.6248 10.6128 15.521 9.58545C15.4172 8.5581 15.6986 7.52881 16.3106 6.69714C16.9226 5.86547 17.8216 5.29066 18.8333 5.08417V5C18.8333 4.55797 19.0089 4.13405 19.3215 3.82149C19.634 3.50893 20.058 3.33333 20.5 3.33333C20.942 3.33333 21.3659 3.50893 21.6785 3.82149C21.9911 4.13405 22.1667 4.55797 22.1667 5H23.8333C24.2754 5 24.6993 5.17559 25.0118 5.48816C25.3244 5.80072 25.5 6.22464 25.5 6.66667C25.5 7.10869 25.3244 7.53262 25.0118 7.84518C24.6993 8.15774 24.2754 8.33333 23.8333 8.33333H19.6667C19.4457 8.33333 19.2337 8.42113 19.0774 8.57741C18.9211 8.73369 18.8333 8.94565 18.8333 9.16667C18.8333 9.38768 18.9211 9.59964 19.0774 9.75592C19.2337 9.9122 19.4457 10 19.6667 10Z" fill="url(#paint1_linear_143_2089)"/>
</g>
<defs>
<linearGradient id="paint0_linear_143_2089" x1="-5.85714" y1="40" x2="48.0357" y2="40" gradientUnits="userSpaceOnUse">
<stop stop-color="#FFD84E"/>
<stop offset="1" stop-color="#7FD6A8"/>
</linearGradient>
<linearGradient id="paint1_linear_143_2089" x1="-5.85714" y1="23.3333" x2="48.0357" y2="23.3333" gradientUnits="userSpaceOnUse">
<stop stop-color="#FFD84E"/>
<stop offset="1" stop-color="#7FD6A8"/>
</linearGradient>
<clipPath id="clip0_143_2089">
<rect width="40" height="40" fill="white" transform="translate(0.5)"/>
</clipPath>
</defs>
</svg>
