<svg width="40" height="40" viewBox="0 0 40 40" fill="none" xmlns="http://www.w3.org/2000/svg">
<path d="M20 0C16.0444 0 12.1776 1.17298 8.8886 3.37061C5.59962 5.56823 3.03617 8.69181 1.52242 12.3463C0.00866576 16.0009 -0.387401 20.0222 0.384303 23.9018C1.15601 27.7814 3.06082 31.3451 5.85787 34.1421C8.65492 36.9392 12.2186 38.844 16.0982 39.6157C19.9778 40.3874 23.9992 39.9913 27.6537 38.4776C31.3082 36.9638 34.4318 34.4004 36.6294 31.1114C38.827 27.8224 40 23.9556 40 20C39.994 14.6975 37.8849 9.61393 34.1355 5.86451C30.3861 2.11508 25.3025 0.0060153 20 0ZM18.1818 18.1818H21.8182C23.2648 18.1818 24.6522 18.7565 25.6751 19.7794C26.6981 20.8023 27.2727 22.1897 27.2727 23.6364C27.2727 25.083 26.6981 26.4704 25.6751 27.4933C24.6522 28.5162 23.2648 29.0909 21.8182 29.0909V30.9091C21.8182 31.3913 21.6266 31.8538 21.2857 32.1947C20.9447 32.5357 20.4822 32.7273 20 32.7273C19.5178 32.7273 19.0553 32.5357 18.7144 32.1947C18.3734 31.8538 18.1818 31.3913 18.1818 30.9091V29.0909H14.5455C14.0632 29.0909 13.6008 28.8993 13.2598 28.5584C12.9188 28.2174 12.7273 27.7549 12.7273 27.2727C12.7273 26.7905 12.9188 26.3281 13.2598 25.9871C13.6008 25.6461 14.0632 25.4545 14.5455 25.4545H21.8182C22.3004 25.4545 22.7629 25.263 23.1038 24.922C23.4448 24.581 23.6364 24.1186 23.6364 23.6364C23.6364 23.1541 23.4448 22.6917 23.1038 22.3507C22.7629 22.0097 22.3004 21.8182 21.8182 21.8182H18.1818C16.7352 21.8182 15.3478 21.2435 14.3249 20.2206C13.302 19.1977 12.7273 17.8103 12.7273 16.3636C12.7273 14.917 13.302 13.5296 14.3249 12.5067C15.3478 11.4838 16.7352 10.9091 18.1818 10.9091V9.09091C18.1818 8.6087 18.3734 8.14623 18.7144 7.80526C19.0553 7.46428 19.5178 7.27273 20 7.27273C20.4822 7.27273 20.9447 7.46428 21.2857 7.80526C21.6266 8.14623 21.8182 8.6087 21.8182 9.09091V10.9091H25.4545C25.9368 10.9091 26.3992 11.1006 26.7402 11.4416C27.0812 11.7826 27.2727 12.2451 27.2727 12.7273C27.2727 13.2095 27.0812 13.6719 26.7402 14.0129C26.3992 14.3539 25.9368 14.5455 25.4545 14.5455H18.1818C17.6996 14.5455 17.2372 14.737 16.8962 15.078C16.5552 15.419 16.3636 15.8814 16.3636 16.3636C16.3636 16.8458 16.5552 17.3083 16.8962 17.6493C17.2372 17.9903 17.6996 18.1818 18.1818 18.1818Z" fill="url(#paint0_linear_143_2073)"/>
<defs>
<linearGradient id="paint0_linear_143_2073" x1="-6.35714" y1="40" x2="47.5357" y2="40" gradientUnits="userSpaceOnUse">
<stop stop-color="#FFD84E"/>
<stop offset="1" stop-color="#7FD6A8"/>
</linearGradient>
</defs>
</svg>
