<svg width="41" height="40" viewBox="0 0 41 40" fill="none" xmlns="http://www.w3.org/2000/svg">
<g clip-path="url(#clip0_143_2096)">
<path d="M39.4173 4.16661C39.4182 3.41519 39.2159 2.67751 38.8318 2.03169C38.4477 1.38587 37.8961 0.855939 37.2354 0.498017C36.5747 0.140094 35.8295 -0.0324988 35.0787 -0.00148626C34.3279 0.0295263 33.5995 0.26299 32.9706 0.674183C32.3416 1.08538 31.8356 1.65899 31.5061 2.3343C31.1765 3.0096 31.0357 3.76145 31.0986 4.51023C31.1615 5.25902 31.4257 5.97686 31.8632 6.58776C32.3007 7.19866 32.8953 7.67987 33.584 7.98044V9.16661H21.9173V7.98044C22.7947 7.59754 23.5134 6.92423 23.9527 6.07373C24.392 5.22322 24.525 4.2474 24.3294 3.31034C24.1339 2.37328 23.6216 1.53214 22.8788 0.928352C22.136 0.324567 21.2079 -0.00503776 20.2507 -0.00503776C19.2934 -0.00503776 18.3653 0.324567 17.6225 0.928352C16.8797 1.53214 16.3675 2.37328 16.1719 3.31034C15.9763 4.2474 16.1093 5.22322 16.5486 6.07373C16.9879 6.92423 17.7067 7.59754 18.584 7.98044V9.16661H6.91732V7.98011C7.79466 7.59721 8.5134 6.9239 8.95268 6.07339C9.39197 5.22289 9.52501 4.24707 9.32943 3.31001C9.13386 2.37295 8.62159 1.5318 7.87878 0.928019C7.13597 0.324233 6.20791 -0.00537109 5.25066 -0.00537109C4.29341 -0.00537109 3.36535 0.324233 2.62253 0.928019C1.87972 1.5318 1.36746 2.37295 1.17188 3.31001C0.976305 4.24707 1.10935 5.22289 1.54863 6.07339C1.98792 6.9239 2.70666 7.59721 3.58399 7.98011V10.8333C3.58399 11.2753 3.75958 11.6992 4.07215 12.0118C4.38471 12.3243 4.80863 12.4999 5.25066 12.4999H18.584V13.4499C15.2189 13.8739 12.1419 15.5643 9.97929 18.1771C7.81669 20.7899 6.7311 24.1286 6.94349 27.5137C7.15589 30.8987 8.65031 34.0755 11.1225 36.3975C13.5948 38.7195 16.859 40.012 20.2507 40.012C23.6423 40.012 26.9065 38.7195 29.3788 36.3975C31.851 34.0755 33.3454 30.8987 33.5578 27.5137C33.7702 24.1286 32.6846 20.7899 30.522 18.1771C28.3594 15.5643 25.2824 13.8739 21.9173 13.4499V12.4999H35.2507C35.6927 12.4999 36.1166 12.3243 36.4292 12.0118C36.7417 11.6992 36.9173 11.2753 36.9173 10.8333V7.98044C37.6595 7.65629 38.2911 7.12299 38.7351 6.44569C39.1791 5.7684 39.4161 4.97645 39.4173 4.16661ZM25.2507 21.6666C25.2507 22.1086 25.0751 22.5326 24.7625 22.8451C24.4499 23.1577 24.026 23.3333 23.584 23.3333H19.4173C19.1963 23.3333 18.9843 23.4211 18.8281 23.5774C18.6718 23.7336 18.584 23.9456 18.584 24.1666C18.584 24.3876 18.6718 24.5996 18.8281 24.7559C18.9843 24.9121 19.1963 24.9999 19.4173 24.9999H21.084C22.1173 24.9989 23.1141 25.3818 23.8809 26.0744C24.6478 26.767 25.1299 27.7198 25.2338 28.7479C25.3376 29.7759 25.0557 30.8059 24.4429 31.6378C23.8301 32.4698 22.93 33.0443 21.9173 33.2499V33.3333C21.9173 33.7753 21.7417 34.1992 21.4292 34.5118C21.1166 34.8243 20.6927 34.9999 20.2507 34.9999C19.8086 34.9999 19.3847 34.8243 19.0721 34.5118C18.7596 34.1992 18.584 33.7753 18.584 33.3333H16.9173C16.4753 33.3333 16.0514 33.1577 15.7388 32.8451C15.4263 32.5326 15.2507 32.1086 15.2507 31.6666C15.2507 31.2246 15.4263 30.8007 15.7388 30.4881C16.0514 30.1755 16.4753 29.9999 16.9173 29.9999H21.084C21.305 29.9999 21.517 29.9121 21.6732 29.7559C21.8295 29.5996 21.9173 29.3876 21.9173 29.1666C21.9173 28.9456 21.8295 28.7336 21.6732 28.5774C21.517 28.4211 21.305 28.3333 21.084 28.3333H19.4173C18.3847 28.3333 17.3889 27.9499 16.623 27.2574C15.857 26.565 15.3755 25.6127 15.2717 24.5854C15.1679 23.558 15.4493 22.5288 16.0613 21.6971C16.6733 20.8654 17.5723 20.2906 18.584 20.0841V19.9999C18.584 19.5579 18.7596 19.134 19.0721 18.8214C19.3847 18.5089 19.8086 18.3333 20.2507 18.3333C20.6927 18.3333 21.1166 18.5089 21.4292 18.8214C21.7417 19.134 21.9173 19.5579 21.9173 19.9999H23.584C24.026 19.9999 24.4499 20.1755 24.7625 20.4881C25.0751 20.8007 25.2507 21.2246 25.2507 21.6666Z" fill="url(#paint0_linear_143_2096)"/>
</g>
<defs>
<linearGradient id="paint0_linear_143_2096" x1="-5.00828" y1="40.012" x2="46.6391" y2="40.012" gradientUnits="userSpaceOnUse">
<stop stop-color="#FFD84E"/>
<stop offset="1" stop-color="#7FD6A8"/>
</linearGradient>
<clipPath id="clip0_143_2096">
<rect width="40" height="40" fill="white" transform="translate(0.25)"/>
</clipPath>
</defs>
</svg>
