<svg width="40" height="40" viewBox="0 0 40 40" fill="none" xmlns="http://www.w3.org/2000/svg">
<g clip-path="url(#clip0_143_2123)">
<path d="M38.3333 36.6667H36.6667V15C36.6667 14.558 36.4911 14.1341 36.1785 13.8215C35.866 13.509 35.442 13.3334 35 13.3334H28.3333C27.8913 13.3334 27.4674 13.509 27.1548 13.8215C26.8423 14.1341 26.6667 14.558 26.6667 15V36.6667H25V21.6667C25 21.2247 24.8244 20.8008 24.5118 20.4882C24.1993 20.1756 23.7754 20 23.3333 20H16.6667C16.2246 20 15.8007 20.1756 15.4882 20.4882C15.1756 20.8008 15 21.2247 15 21.6667V36.6667H13.3333V26.6667C13.3333 26.2247 13.1577 25.8008 12.8452 25.4882C12.5326 25.1756 12.1087 25 11.6667 25H5C4.55797 25 4.13405 25.1756 3.82149 25.4882C3.50893 25.8008 3.33333 26.2247 3.33333 26.6667V36.6667H1.66667C1.22464 36.6667 0.800716 36.8423 0.488155 37.1549C0.175595 37.4674 0 37.8913 0 38.3334C0 38.7754 0.175595 39.1993 0.488155 39.5119C0.800716 39.8244 1.22464 40 1.66667 40H38.3333C38.7754 40 39.1993 39.8244 39.5118 39.5119C39.8244 39.1993 40 38.7754 40 38.3334C40 37.8913 39.8244 37.4674 39.5118 37.1549C39.1993 36.8423 38.7754 36.6667 38.3333 36.6667Z" fill="url(#paint0_linear_143_2123)"/>
<path d="M6.66667 18.3333C16.681 18.3333 25.5645 10.6598 30 6.056V8.33333C30 8.77536 30.1756 9.19928 30.4882 9.51184C30.8007 9.82441 31.2246 10 31.6667 10C32.1087 10 32.5326 9.82441 32.8452 9.51184C33.1577 9.19928 33.3333 8.77536 33.3333 8.33333V1.66667C33.3168 1.22991 33.1359 0.815503 32.8269 0.506446C32.5178 0.19739 32.1034 0.0164989 31.6667 0L25 0C24.558 0 24.1341 0.175595 23.8215 0.488155C23.5089 0.800716 23.3333 1.22464 23.3333 1.66667C23.3333 2.10869 23.5089 2.53262 23.8215 2.84518C24.1341 3.15774 24.558 3.33333 25 3.33333H27.9742C24.0348 7.48683 15.6737 15 6.66667 15C6.22464 15 5.80072 15.1756 5.48816 15.4882C5.17559 15.8007 5 16.2246 5 16.6667C5 17.1087 5.17559 17.5326 5.48816 17.8452C5.80072 18.1577 6.22464 18.3333 6.66667 18.3333Z" fill="url(#paint1_linear_143_2123)"/>
</g>
<defs>
<linearGradient id="paint0_linear_143_2123" x1="-6.35714" y1="40" x2="47.5357" y2="40" gradientUnits="userSpaceOnUse">
<stop stop-color="#FFD84E"/>
<stop offset="1" stop-color="#7FD6A8"/>
</linearGradient>
<linearGradient id="paint1_linear_143_2123" x1="0.497024" y1="18.3333" x2="38.6711" y2="18.3333" gradientUnits="userSpaceOnUse">
<stop stop-color="#FFD84E"/>
<stop offset="1" stop-color="#7FD6A8"/>
</linearGradient>
<clipPath id="clip0_143_2123">
<rect width="40" height="40" fill="white"/>
</clipPath>
</defs>
</svg>
