<svg width="40" height="37" viewBox="0 0 40 37" fill="none" xmlns="http://www.w3.org/2000/svg">
<path d="M26.6667 0H1.66667C1.22464 0 0.800716 0.175595 0.488155 0.488155C0.175595 0.800716 0 1.22464 0 1.66667L0 35C0 35.442 0.175595 35.866 0.488155 36.1785C0.800716 36.4911 1.22464 36.6667 1.66667 36.6667H26.6667C27.1087 36.6667 27.5326 36.4911 27.8452 36.1785C28.1577 35.866 28.3333 35.442 28.3333 35V1.66667C28.3333 1.22464 28.1577 0.800716 27.8452 0.488155C27.5326 0.175595 27.1087 0 26.6667 0ZM21.6667 30H6.66667C6.22464 30 5.80072 29.8244 5.48816 29.5118C5.17559 29.1993 5 28.7754 5 28.3333C5 27.8913 5.17559 27.4674 5.48816 27.1548C5.80072 26.8423 6.22464 26.6667 6.66667 26.6667H21.6667C22.1087 26.6667 22.5326 26.8423 22.8452 27.1548C23.1577 27.4674 23.3333 27.8913 23.3333 28.3333C23.3333 28.7754 23.1577 29.1993 22.8452 29.5118C22.5326 29.8244 22.1087 30 21.6667 30ZM21.6667 23.3333H6.66667C6.22464 23.3333 5.80072 23.1577 5.48816 22.8452C5.17559 22.5326 5 22.1087 5 21.6667C5 21.2246 5.17559 20.8007 5.48816 20.4882C5.80072 20.1756 6.22464 20 6.66667 20H21.6667C22.1087 20 22.5326 20.1756 22.8452 20.4882C23.1577 20.8007 23.3333 21.2246 23.3333 21.6667C23.3333 22.1087 23.1577 22.5326 22.8452 22.8452C22.5326 23.1577 22.1087 23.3333 21.6667 23.3333ZM21.6667 16.6667H6.66667C6.22464 16.6667 5.80072 16.4911 5.48816 16.1785C5.17559 15.866 5 15.442 5 15C5 14.558 5.17559 14.1341 5.48816 13.8215C5.80072 13.5089 6.22464 13.3333 6.66667 13.3333H21.6667C22.1087 13.3333 22.5326 13.5089 22.8452 13.8215C23.1577 14.1341 23.3333 14.558 23.3333 15C23.3333 15.442 23.1577 15.866 22.8452 16.1785C22.5326 16.4911 22.1087 16.6667 21.6667 16.6667ZM21.6667 10H6.66667C6.22464 10 5.80072 9.82441 5.48816 9.51184C5.17559 9.19928 5 8.77536 5 8.33333C5 7.89131 5.17559 7.46738 5.48816 7.15482C5.80072 6.84226 6.22464 6.66667 6.66667 6.66667H21.6667C22.1087 6.66667 22.5326 6.84226 22.8452 7.15482C23.1577 7.46738 23.3333 7.89131 23.3333 8.33333C23.3333 8.77536 23.1577 9.19928 22.8452 9.51184C22.5326 9.82441 22.1087 10 21.6667 10Z" fill="url(#paint0_linear_143_2110)"/>
<path d="M40 10H30V26.6667H40V10Z" fill="url(#paint1_linear_143_2110)"/>
<path d="M33.5096 35.7455C33.6479 36.0224 33.8607 36.2553 34.1241 36.4181C34.3874 36.5808 34.6908 36.6671 35.0004 36.6671C35.31 36.6671 35.6134 36.5808 35.8767 36.4181C36.14 36.2553 36.3528 36.0224 36.4912 35.7455L39.3641 30H30.6367L33.5096 35.7455Z" fill="url(#paint2_linear_143_2110)"/>
<path d="M35 0C33.6744 0.0014558 32.4034 0.528708 31.4661 1.46607C30.5287 2.40344 30.0015 3.67436 30 5V6.66667H40V5C39.9985 3.67436 39.4713 2.40344 38.5339 1.46607C37.5966 0.528708 36.3256 0.0014558 35 0Z" fill="url(#paint3_linear_143_2110)"/>
<defs>
<linearGradient id="paint0_linear_143_2110" x1="-4.50298" y1="36.6667" x2="33.6711" y2="36.6667" gradientUnits="userSpaceOnUse">
<stop stop-color="#FFD84E"/>
<stop offset="1" stop-color="#7FD6A8"/>
</linearGradient>
<linearGradient id="paint1_linear_143_2110" x1="28.4107" y1="26.6667" x2="41.8839" y2="26.6667" gradientUnits="userSpaceOnUse">
<stop stop-color="#FFD84E"/>
<stop offset="1" stop-color="#7FD6A8"/>
</linearGradient>
<linearGradient id="paint2_linear_143_2110" x1="29.2497" y1="36.6671" x2="41.0082" y2="36.6671" gradientUnits="userSpaceOnUse">
<stop stop-color="#FFD84E"/>
<stop offset="1" stop-color="#7FD6A8"/>
</linearGradient>
<linearGradient id="paint3_linear_143_2110" x1="28.4107" y1="6.66667" x2="41.8839" y2="6.66667" gradientUnits="userSpaceOnUse">
<stop stop-color="#FFD84E"/>
<stop offset="1" stop-color="#7FD6A8"/>
</linearGradient>
</defs>
</svg>
